<?xml version="1.0" encoding="UTF-8" standalone="no"?>
<!-- Created with Inkscape (http://www.inkscape.org/) -->

<svg
   xmlns:dc="http://purl.org/dc/elements/1.1/"
   xmlns:cc="http://creativecommons.org/ns#"
   xmlns:rdf="http://www.w3.org/1999/02/22-rdf-syntax-ns#"
   xmlns:svg="http://www.w3.org/2000/svg"
   xmlns="http://www.w3.org/2000/svg"
   xmlns:sodipodi="http://sodipodi.sourceforge.net/DTD/sodipodi-0.dtd"
   xmlns:inkscape="http://www.inkscape.org/namespaces/inkscape"
   width="600"
   height="1500"
   viewBox="0 0 600.00001 1500"
   id="svg2"
   version="1.1"
   inkscape:version="0.91 r13725"
   sodipodi:docname="f0nt-axe.svg"
   inkscape:export-filename="/home/sungsit/github/f0nt/f0nt/f0nt.png"
   inkscape:export-xdpi="90"
   inkscape:export-ydpi="90">
  <sodipodi:namedview
     showguides="true"
     id="base"
     pagecolor="#ffffff"
     bordercolor="#666666"
     borderopacity="1.0"
     inkscape:pageopacity="0.0"
     inkscape:pageshadow="2"
     inkscape:zoom="0.26003005"
     inkscape:cx="1982.2645"
     inkscape:cy="1237.5"
     inkscape:document-units="px"
     inkscape:current-layer="g8160"
     showgrid="false"
     inkscape:window-width="2048"
     inkscape:window-height="1046"
     inkscape:window-x="0"
     inkscape:window-y="32"
     inkscape:window-maximized="1"
     units="px"
     inkscape:showpageshadow="false"
     showborder="false">
    <inkscape:grid
       type="xygrid"
       id="grid4089" />
  </sodipodi:namedview>
  <defs
     id="defs4" />
  <metadata
     id="metadata7">
    <rdf:RDF>
      <cc:Work
         rdf:about="">
        <dc:format>image/svg+xml</dc:format>
        <dc:type
           rdf:resource="http://purl.org/dc/dcmitype/StillImage" />
        <dc:title></dc:title>
      </cc:Work>
    </rdf:RDF>
  </metadata>
  <g
     inkscape:groupmode="layer"
     id="layer1"
     inkscape:label="1000 normal"
     style="display:none">
    <g
       id="g7627"
       transform="translate(-2069.723,1052.5728)">
      <path
         style="display:inline;fill:currentColor"
         d="m 3154.801,97.427197 c 62,-21 122,-40 185,-40 64,0 115,20 115,80.000003 0,51 -18,98 -30,153 -35,4 -126,7 -190,7 5,-28 22,-85 22,-110 0,-9 -1,-23 -7,-25 -13,3 -40,13 -55,20 -10,-23 -25,-61 -40,-85.000003 z"
         id="path3349"
         inkscape:connector-curvature="0" />
      <g
         id="g3372"
         style="display:inline"
         transform="translate(2069.723,-604.93496)">
        <path
           inkscape:connector-curvature="0"
           id="path3343"
           d="m 1500.078,454.36216 c 0,-96 32,-310 43,-442 61,-1 217,-9 276,-16 -12,128 -41,334 -41,422 0,76 25,82 142,82 67,0 109,-15 115,-52 9,-54 19,-136 22,-163 l 220,0 c -3,18 -7,85 -12,137 -14,158 -249,204 -423,204 -199,0 -342,-47 -342,-172 z"
           style="fill:currentColor" />
        <path
           inkscape:connector-curvature="0"
           id="path3341"
           d="m 1860.078,317.36216 c 7,-21 54,-113 60,-135 46,33 112,55 210,55 97,0 242,-22 270,-30 0,26 -9,107 -15,125 -26,9 -165,30 -285,30 -101,0 -196,-22 -240,-45 z"
           style="fill:currentColor" />
        <path
           inkscape:connector-curvature="0"
           id="path3339"
           d="m 2030.078,160.36216 c 0,-125 153,-182 320,-182 59,0 101,10 125,15 -14,29 -41,100 -50,129 -21,-12 -88,-30 -130,-30 -22,0 -30,17 -30,45 0,77 27,112 45,135 l -200,15 c -31,-17 -80,-62 -80,-127 z"
           style="fill:currentColor" />
        <path
           inkscape:connector-curvature="0"
           id="path3337"
           d="m 2045.078,454.36216 220,-32 c 0,61 55,78 145,78 67,0 89,-15 95,-52 10,-55 27,-327 27,-436 67,-10 212,-17 278,-19 0,102 -18,362 -29,431 -27,163 -265,202 -439,202 -164,0 -297,-47 -297,-172 z"
           style="fill:currentColor" />
        <path
           inkscape:connector-curvature="0"
           id="path3371"
           d="m 2335.078,-72.63784 c 0,-47 30,-108 105,-155 89,-56 209,-70 340,-70 17,0 57,0 80,1 -8,28 -36,97 -50,120 -16,0 -47,-1 -60,-1 -72,0 -102,12 -125,25 -16,9 -42,32 -42,65 -49,0 -198,9 -248,15 z"
           style="fill:currentColor" />
      </g>
      <path
         id="path3439"
         d="m 2209.801,-119.5728 c 0,-157 182,-198 272,-198 154,0 319,95 432,277.999997 l -129,48.9999998 c -61,-122.9999968 -207,-226.9999968 -343,-226.9999968 -36,0 -54,34 -54,76 z"
         style="display:inline;fill:currentColor"
         inkscape:connector-curvature="0" />
      <path
         id="path3437"
         d="m 2209.801,-119.5728 178,-22 c 0,41 14,57.999997 38,57.999997 26,0 34,-33.999997 34,-73.999997 0,-44 -6,-80 -10,-115 4,-48 15,-106 15,-154 0,-59 -21,-68 -69,-68 -17,0 -46,6 -46,6 l 20,-122 c 0,0 103,-10 136,-10 110,0 197,37 197,133 0,121 -30,241 -43,320 -15,101.999997 -125,188.999997 -267,188.999997 -123,0 -183,-67 -183,-140.999997 z"
         style="display:inline;fill:currentColor"
         inkscape:connector-curvature="0" />
      <path
         id="path3435"
         d="m 2784.801,9.4271968 c 9,-73.9999998 43,-438.9999968 55,-601.9999968 103,-13 155,-14 250,-16 -12,167 -56,537.999997 -65,611.9999968 -60,0 -176,3 -240,6 z"
         style="display:inline;fill:currentColor"
         inkscape:connector-curvature="0" />
      <path
         id="path3433"
         d="m 2964.801,-117.5728 c 79,-96 261,-200 435,-200 167,0 240,66 240,165 l -180,10 c 0,-49 -26,-75 -90,-75 -158,0 -292,129.999997 -345,220.9999968 z"
         style="display:inline;fill:currentColor"
         inkscape:connector-curvature="0" />
      <path
         id="path3420"
         d="m 3169.801,-152.5728 c 0,-129 28,-291 65,-445 68,-6 226,-11 280,-11 -36,123 -76,235 -90,321 -6,21 -40,71 -40,135 0,51 9,68.999997 35,68.999997 22,0 40,-19.999997 40,-58.999997 l 180,-10 c 0,130.999997 -133,173.999997 -245,173.999997 -158,0 -225,-75 -225,-173.999997 z"
         style="display:inline;fill:currentColor"
         inkscape:connector-curvature="0" />
    </g>
  </g>
  <g
     style="display:inline"
     inkscape:label="1000 normal contrast"
     id="g8160"
     inkscape:groupmode="layer">
    <g
       id="g8166"
       style="display:inline"
       transform="translate(0,447.63784)" />
    <path
       style="fill:currentColor"
       d="m 140.078,933 178,-22 c 0,79 8,148 38,148 34,0 39,-73 39,-164 0,-79 -4,-132 -10,-152 4,-48 20,-149 20,-197 0,-59 -2,-95 -37,-95 -36,0 -86,13 -86,13 l 2,-19 c 0,0 68,-13 157,-13 107,0 192,37 192,133 0,121 -30,241 -43,320 -15,102 -124,189 -267,189 -103,0 -183,-67 -183,-141 z"
       id="path8323" />
    <path
       style="fill:currentColor"
       d="m 140.078,933 c 0,-157 180,-198 288,-198 150,0 286,143 357,278 l -70,49 c -59,-149 -142,-312 -304,-312 -65,0 -93,83 -93,161 z"
       id="path8321" />
    <path
       style="fill:currentColor"
       d="m 715.078,1062 c 9,-74 43,-439 55,-602 103,-13 155,-14 250,-16 -12,167 -56,538 -65,612 -60,0 -176,3 -240,6 z"
       id="path8319" />
    <path
       style="fill:currentColor"
       d="m 942.078,940 c 63,-96 208,-205 388,-205 166,0 240,66 240,165 l -180,10 c 0,-92 -45,-160 -84,-160 -170,0 -301,197 -351,306 z"
       id="path8317" />
    <path
       style="fill:currentColor"
       d="m 1100.078,900 c 0,-146 35,-291 65,-445 54,-6 237,-11 280,-11 -29,123 -77,225 -88,311 -5,21 -42,30 -42,165 0,81 4,139 30,139 32,0 45,-71 45,-149 l 180,-10 c 0,131 -134,174 -245,174 -156,0 -225,-75 -225,-174 z"
       id="path8315" />
    <path
       style="fill:currentColor"
       d="m 1085.078,1150 c 50,-21 124,-40 187,-40 60,0 113,20 113,80 0,51 -20,98 -30,153 -28,4 -139,7 -190,7 8,-39 30,-115 30,-180 0,-9 -1,-31 -10,-31 -19,0 -79,21 -91,28 -3,-6 -6,-12 -9,-17 z"
       id="path8313" />
    <path
       style="fill:currentColor"
       d="m 1500.078,902 c 0,-96 34,-310 43,-442 49,-1 224,-9 271,-16 -10,128 -49,380 -52,533 -1,76 77,82 133,82 66,0 122,-15 127,-52 7,-54 32,-211 32,-277 l 225,-9 c -2,18 -4,97 -8,149 -11,158 -261,204 -434,204 -198,0 -337,-47 -337,-172 z"
       id="path8311" />
    <path
       style="fill:currentColor"
       d="m 1893.078,693 c 2,-6 6,-15 8,-20 42,34 154,51 242,51 95,0 232,-23 254,-31 0,4 -2,13 -2,17 -20,7 -164,29 -276,29 -90,0 -191,-23 -226,-46 z"
       id="path8309" />
    <path
       style="fill:currentColor"
       d="m 2025.078,608 c 0,-125 159,-182 311,-182 57,0 101,10 120,15 -2,4 -8,16 -9,20 -15,-7 -58,-20 -130,-20 -44,0 -64,32 -64,60 0,145 23,202 31,219 l -200,15 c -25,-17 -59,-62 -59,-127 z"
       id="path8307" />
    <path
       style="fill:currentColor"
       d="m 2045.078,902 226,-32 c -10,169 4,189 116,189 57,0 111,-10 116,-47 8,-55 28,-443 28,-552 54,-10 213,-17 279,-19 0,102 -18,362 -29,431 -27,163 -261,202 -434,202 -169,0 -302,-47 -302,-172 z"
       id="path8305" />
    <path
       style="fill:currentColor"
       d="m 2335.078,375 c 0,-64 42,-113 105,-155 75,-50 196,-70 328,-70 17,0 69,0 92,1 -2,5 -4,12 -5,15 -16,0 -78,-1 -112,-1 -53,0 -85,12 -103,25 -13,9 -62,53 -62,170 -39,0 -203,9 -243,15 z"
       id="path8292" />
  </g>
  <g
     style="display:none"
     inkscape:label="1000 condensed"
     id="g7642"
     inkscape:groupmode="layer">
    <path
       style="fill:currentColor"
       d="m 140.078,933 173,-22 c 0,41 12,58 28,58 19,0 24,-34 24,-74 0,-44 -11,-80 -15,-115 4,-48 15,-106 15,-154 0,-59 -8,-68 -44,-68 -14,0 -41,6 -41,6 l 20,-122 c 0,0 73,-10 106,-10 107,0 192,37 192,133 0,121 -30,241 -43,320 -15,102 -104,189 -247,189 -103,0 -168,-67 -168,-141 z"
       id="path7977"
       inkscape:connector-curvature="0" />
    <path
       style="fill:currentColor"
       d="m 140.078,933 c 0,-157 181,-198 253,-198 132,0 233,95 323,278 l -115,49 c -49,-123 -123,-227 -240,-227 -29,0 -48,34 -48,76 z"
       id="path7975"
       inkscape:connector-curvature="0" />
    <path
       style="fill:currentColor"
       d="m 601.078,1062 c 9,-74 38,-439 50,-602 103,-13 160,-14 255,-16 -12,167 -53,538 -62,612 -60,2 -179,0 -243,6 z"
       id="path7973"
       inkscape:connector-curvature="0" />
    <path
       style="fill:currentColor"
       d="m 796.078,935 c 63,-96 193,-200 332,-200 134,0 192,66 192,165 l -149,10 c 0,-49 -28,-75 -67,-75 -126,0 -218,130 -260,221 z"
       id="path7971"
       inkscape:connector-curvature="0" />
    <path
       style="fill:currentColor"
       d="m 917.078,1150 c 50,-21 106,-40 163,-40 60,0 107,20 107,80 0,51 -14,98 -24,153 -28,4 -136,7 -187,7 4,-28 17,-85 17,-110 0,-9 0,-23 -5,-25 -8,3 -27,13 -39,20 -8,-23 -20,-61 -32,-85 z"
       id="path7969"
       inkscape:connector-curvature="0" />
    <path
       style="fill:currentColor"
       d="m 919.078,900 c 0,-129 22,-291 52,-445 54,-6 231,-11 274,-11 -29,123 -66,235 -77,321 -5,21 -47,65 -47,135 0,51 11,69 23,69 15,0 27,-20 27,-59 l 149,-10 c 0,131 -106,174 -196,174 -137,0 -205,-75 -205,-174 z"
       id="path7967"
       inkscape:connector-curvature="0" />
    <path
       style="fill:currentColor"
       d="m 1239.078,902 c 0,-96 25,-310 34,-442 49,-1 224,-9 271,-16 -10,128 -33,334 -33,422 0,76 25,82 89,82 49,0 57,-15 62,-52 7,-54 15,-136 17,-163 l 236,0 c -2,18 -5,85 -9,137 -11,158 -205,204 -369,204 -184,0 -298,-47 -298,-172 z"
       id="path7965"
       inkscape:connector-curvature="0" />
    <path
       style="fill:currentColor"
       d="m 1537.078,765 c 6,-21 43,-113 48,-135 37,33 95,55 183,55 95,0 209,-22 231,-30 0,26 -7,107 -12,125 -21,9 -135,30 -243,30 -90,0 -172,-22 -207,-45 z"
       id="path7963"
       inkscape:connector-curvature="0" />
    <path
       style="fill:currentColor"
       d="m 1658.078,608 c 0,-125 134,-182 286,-182 47,0 81,10 100,15 -11,29 -33,100 -40,129 -17,-12 -54,-30 -89,-30 -15,0 -24,17 -24,45 0,77 27,112 41,135 l -210,15 c -25,-17 -64,-62 -64,-127 z"
       id="path7961"
       inkscape:connector-curvature="0" />
    <path
       style="fill:currentColor"
       d="m 1670.078,902 236,-32 c 0,61 26,78 86,78 41,0 56,-15 61,-52 8,-55 21,-327 21,-436 54,-10 215,-17 281,-19 0,102 -18,362 -29,431 -27,163 -216,202 -389,202 -155,0 -267,-47 -267,-172 z"
       id="path7959"
       inkscape:connector-curvature="0" />
    <path
       style="fill:currentColor"
       d="m 1917.078,375 c 0,-47 24,-108 84,-155 71,-56 176,-70 299,-70 17,0 66,0 89,1 -8,28 -36,97 -50,120 -16,0 -51,-1 -64,-1 -35,0 -68,12 -86,25 -13,9 -34,32 -34,65 -39,0 -198,9 -238,15 z"
       id="path7946"
       inkscape:connector-curvature="0" />
  </g>
  <g
     inkscape:groupmode="layer"
     id="g7998"
     inkscape:label="1000 condensed contrast"
     style="display:none">
    <path
       style="fill:currentColor"
       d="m 140.078,933 c 0,-157 181,-198 253,-198 103,0 207,143 278,278 l -70,49 c -59,-149 -111,-312 -240,-312 -29,0 -48,83 -48,161 z"
       id="path8139"
       inkscape:connector-curvature="0" />
    <path
       style="fill:currentColor"
       d="m 601.078,1062 c 9,-74 38,-439 50,-602 103,-13 160,-14 255,-16 -12,167 -53,538 -62,612 -60,2 -179,0 -243,6 z"
       id="path8137"
       inkscape:connector-curvature="0" />
    <path
       style="fill:currentColor"
       d="m 831.078,935 c 63,-96 164,-200 297,-200 134,0 192,66 192,165 l -149,10 c 0,-92 -28,-160 -67,-160 -126,0 -210,197 -260,306 z"
       id="path8135"
       inkscape:connector-curvature="0" />
    <path
       style="fill:currentColor"
       d="m 917.078,1150 c 50,-21 106,-40 163,-40 60,0 107,20 107,80 0,51 -14,98 -24,153 -28,4 -136,7 -187,7 4,-28 29,-133 29,-180 0,-9 -1,-31 -10,-31 -10,0 -59,21 -71,28 -3,-6 -4,-12 -7,-17 z"
       id="path8133"
       inkscape:connector-curvature="0" />
    <path
       style="fill:currentColor"
       d="m 1239.078,902 c 0,-96 25,-310 34,-442 49,-1 224,-9 271,-16 -10,128 -35,380 -38,533 -1,76 38,82 89,82 49,0 62,-15 67,-52 7,-54 27,-211 27,-277 l 230,-9 c -2,18 -4,97 -8,149 -11,158 -210,204 -374,204 -184,0 -298,-47 -298,-172 z"
       id="path8131"
       inkscape:connector-curvature="0" />
    <path
       style="fill:currentColor"
       d="m 1563.078,693 c 2,-6 6,-15 8,-20 42,34 114,51 202,51 95,0 202,-23 224,-31 0,4 -2,13 -2,17 -20,7 -134,29 -246,29 -90,0 -151,-23 -186,-46 z"
       id="path8129"
       inkscape:connector-curvature="0" />
    <path
       style="fill:currentColor"
       d="m 1658.078,608 c 0,-125 134,-182 286,-182 47,0 81,10 100,15 -2,4 -8,16 -9,20 -15,-7 -45,-20 -120,-20 -22,0 -29,32 -29,60 0,145 28,202 36,219 l -200,15 c -25,-17 -64,-62 -64,-127 z"
       id="path8127"
       inkscape:connector-curvature="0" />
    <path
       style="fill:currentColor"
       d="m 1685.078,902 226,-32 c -10,169 -12,189 76,189 41,0 56,-10 61,-47 8,-55 26,-443 26,-552 54,-10 215,-17 281,-19 0,102 -18,362 -29,431 -27,163 -216,202 -389,202 -155,0 -252,-47 -252,-172 z"
       id="path8125"
       inkscape:connector-curvature="0" />
    <path
       style="fill:currentColor"
       d="m 1917.078,375 c 0,-47 24,-108 84,-155 71,-56 176,-70 299,-70 17,0 66,0 89,1 -2,5 -4,12 -5,15 -16,0 -96,-1 -109,-1 -45,0 -68,12 -86,25 -13,9 -34,37 -34,170 -39,0 -198,9 -238,15 z"
       id="path8123"
       inkscape:connector-curvature="0" />
    <path
       style="fill:currentColor"
       d="m 140.078,933 173,-22 c 0,79 12,148 28,148 19,0 29,-73 29,-164 0,-79 -9,-132 -15,-152 4,-48 20,-149 20,-197 0,-59 -2,-95 -37,-95 -36,0 -86,18 -86,18 l -1,-19 c 0,0 66,-18 155,-18 107,0 192,37 192,133 0,121 -30,241 -43,320 -15,102 -104,189 -247,189 -103,0 -168,-67 -168,-141 z"
       id="path8121"
       inkscape:connector-curvature="0" />
    <path
       style="fill:currentColor"
       d="m 919.078,900 c 0,-129 22,-291 52,-445 54,-6 231,-11 274,-11 -29,123 -66,225 -77,311 -5,21 -52,30 -52,165 0,81 16,139 28,139 15,0 27,-71 27,-149 l 149,-10 c 0,131 -106,174 -196,174 -137,0 -205,-75 -205,-174 z"
       id="path8108"
       inkscape:connector-curvature="0" />
  </g>
  <g
     style="display:none"
     inkscape:label="100 normal"
     id="g6298"
     inkscape:groupmode="layer">
    <g
       id="g7584"
       transform="translate(-14669.56,-2128.1103)"
       style="fill:#d45500">
      <path
         style="display:inline;fill:#d45500"
         d="m 15822.638,3262.1103 c 34,-11 69,-15 93,-15 52,0 72,29 72,69 0,45 -23,105 -31,152 -4,1 -15,1 -19,1 13,-60 32,-111 32,-153 0,-32 -12,-56 -52,-56 -21,0 -58,3 -90,14 0,-2 -4,-11 -5,-12 z"
         id="path3346"
         inkscape:connector-curvature="0" />
      <g
         id="g3431"
         style="display:inline;fill:#d45500"
         transform="translate(14669.56,2575.7481)">
        <path
           inkscape:connector-curvature="0"
           id="path3354"
           d="m 1567.078,469.36216 c 0,-104 37,-330 52,-472 5,0 17,0 22,-1 -15,142 -52,370 -52,471 0,110 73,134 272,134 172,0 260,-42 275,-134 5,-30 14,-112 21,-182 l 20,-3 c -8,75 -15,156 -19,187 -14,95 -104,148 -299,148 -199,0 -292,-27 -292,-148 z"
           style="fill:#d45500" />
        <path
           inkscape:connector-curvature="0"
           id="path3352"
           d="m 1972.078,246.36216 c 1,-2 8,-14 8,-16 29,19 78,47 150,47 95,0 189,-12 247,-26 0,2 -1,14 -1,15 -60,14 -136,26 -248,26 -71,0 -130,-28 -156,-46 z"
           style="fill:#d45500" />
        <path
           inkscape:connector-curvature="0"
           id="path3350"
           d="m 2092.078,140.36216 c 0,-136 113,-153 201,-153 49,0 97,12 121,21 -3,5 -5,12 -7,17 -19,-9 -65,-22 -117,-22 -124,0 -178,49 -178,135 0,70 33,115 73,144 l -20,5 c -39,-31 -73,-79 -73,-147 z"
           style="fill:#d45500" />
        <path
           inkscape:connector-curvature="0"
           id="path3348"
           d="m 2140.078,486.36216 18,-17 c 9,80 99,132 248,132 189,0 258,-42 280,-134 16,-68 34,-363 34,-472 4,-1 17,-2 22,-2 0,111 -18,406 -34,476 -25,104 -103,148 -304,148 -145,0 -249,-47 -264,-131 z"
           style="fill:#d45500" />
        <path
           inkscape:connector-curvature="0"
           id="path3371-3"
           d="m 2403.078,-72.63784 c 0,-67 32,-103 82,-132 56,-33 148,-48 269,-48 12,0 29,0 39,1 0,2 -2,14 -3,16 -11,-1 -25,-1 -37,-1 -121,0 -206,16 -256,45 -45,26 -73,63 -73,117 -3,0 -18,1 -21,2 z"
           style="fill:#d45500" />
      </g>
      <path
         id="path3404"
         d="m 14877.638,3072.1103 c 0,-105 88,-153 194,-153 213,0 368,155 434,253 l -13,9 c -66,-97 -216,-247 -422,-247 -90,0 -173,39 -173,137 z"
         style="display:inline;fill:#d45500"
         inkscape:connector-curvature="0" />
      <path
         id="path3402"
         d="m 14877.638,3072.1103 20,-1 c 0,66 64,106 119,106 63,0 150,-28 167,-138 5,-41 8,-61 13,-98 11,-89 21,-200 21,-251 0,-81 -43,-114 -121,-114 -16,0 -84,6 -84,6 l 2,-17 c 0,0 67,-5 84,-5 85,0 139,42 139,129 0,101 -19,237 -35,351 -18,118 -114,153 -187,153 -67,0 -138,-48 -138,-121 z"
         style="display:inline;fill:#d45500"
         inkscape:connector-curvature="0" />
      <path
         id="path3400"
         d="m 15492.638,3181.1103 c 15,-109 58,-444 70,-607 0,0 9,-2 20,-2 -14,178 -60,528 -70,608 0,0 -12,0 -20,1 z"
         style="display:inline;fill:#d45500"
         inkscape:connector-curvature="0" />
      <path
         id="path3398"
         d="m 15501.638,3170.1103 c 82,-54 299,-248 505,-248 84,0 166,48 166,146 l -19,3 c 0,-89 -75,-134 -149,-134 -179,0 -371,158 -492,243 z"
         style="display:inline;fill:#d45500"
         inkscape:connector-curvature="0" />
      <path
         id="path3385"
         d="m 15873.638,3043.1103 c 0,-171 36,-350 78,-469 4,-1 18,-2 22,-2 -36,107 -65,236 -75,371 -2,31 -4,66 -4,98 0,110 76,137 127,137 77,0 132,-40 132,-107 l 19,-3 c 0,80 -66,125 -153,125 -60,0 -146,-34 -146,-150 z"
         style="display:inline;fill:#d45500"
         inkscape:connector-curvature="0" />
    </g>
  </g>
  <g
     inkscape:groupmode="layer"
     id="g7705"
     inkscape:label="100 condensed"
     style="display:none">
    <g
       style="fill:#d45500"
       transform="translate(-14669.56,-3128.1103)"
       id="g7707">
      <path
         inkscape:connector-curvature="0"
         id="path7709"
         d="m 15822.638,3262.1103 c 34,-11 69,-15 93,-15 52,0 72,29 72,69 0,45 -23,105 -31,152 -4,1 -15,1 -19,1 13,-60 32,-111 32,-153 0,-32 -12,-56 -52,-56 -21,0 -58,3 -90,14 0,-2 -4,-11 -5,-12 z"
         style="display:inline;fill:#d45500" />
      <g
         transform="translate(14669.56,2575.7481)"
         style="display:inline;fill:#d45500"
         id="g7711">
        <path
           style="fill:#d45500"
           d="m 1567.078,469.36216 c 0,-104 37,-330 52,-472 5,0 17,0 22,-1 -15,142 -52,370 -52,471 0,110 73,134 272,134 172,0 260,-42 275,-134 5,-30 14,-112 21,-182 l 20,-3 c -8,75 -15,156 -19,187 -14,95 -104,148 -299,148 -199,0 -292,-27 -292,-148 z"
           id="path7713"
           inkscape:connector-curvature="0" />
        <path
           style="fill:#d45500"
           d="m 1972.078,246.36216 c 1,-2 8,-14 8,-16 29,19 78,47 150,47 95,0 189,-12 247,-26 0,2 -1,14 -1,15 -60,14 -136,26 -248,26 -71,0 -130,-28 -156,-46 z"
           id="path7715"
           inkscape:connector-curvature="0" />
        <path
           style="fill:#d45500"
           d="m 2092.078,140.36216 c 0,-136 113,-153 201,-153 49,0 97,12 121,21 -3,5 -5,12 -7,17 -19,-9 -65,-22 -117,-22 -124,0 -178,49 -178,135 0,70 33,115 73,144 l -20,5 c -39,-31 -73,-79 -73,-147 z"
           id="path7717"
           inkscape:connector-curvature="0" />
        <path
           style="fill:#d45500"
           d="m 2140.078,486.36216 18,-17 c 9,80 99,132 248,132 189,0 258,-42 280,-134 16,-68 34,-363 34,-472 4,-1 17,-2 22,-2 0,111 -18,406 -34,476 -25,104 -103,148 -304,148 -145,0 -249,-47 -264,-131 z"
           id="path7719"
           inkscape:connector-curvature="0" />
        <path
           style="fill:#d45500"
           d="m 2403.078,-72.63784 c 0,-67 32,-103 82,-132 56,-33 148,-48 269,-48 12,0 29,0 39,1 0,2 -2,14 -3,16 -11,-1 -25,-1 -37,-1 -121,0 -206,16 -256,45 -45,26 -73,63 -73,117 -3,0 -18,1 -21,2 z"
           id="path7721"
           inkscape:connector-curvature="0" />
      </g>
      <path
         inkscape:connector-curvature="0"
         style="display:inline;fill:#d45500"
         d="m 14877.638,3072.1103 c 0,-105 88,-153 194,-153 213,0 368,155 434,253 l -13,9 c -66,-97 -216,-247 -422,-247 -90,0 -173,39 -173,137 z"
         id="path7723" />
      <path
         inkscape:connector-curvature="0"
         style="display:inline;fill:#d45500"
         d="m 14877.638,3072.1103 20,-1 c 0,66 64,106 119,106 63,0 150,-28 167,-138 5,-41 8,-61 13,-98 11,-89 21,-200 21,-251 0,-81 -43,-114 -121,-114 -16,0 -84,6 -84,6 l 2,-17 c 0,0 67,-5 84,-5 85,0 139,42 139,129 0,101 -19,237 -35,351 -18,118 -114,153 -187,153 -67,0 -138,-48 -138,-121 z"
         id="path7725" />
      <path
         inkscape:connector-curvature="0"
         style="display:inline;fill:#d45500"
         d="m 15492.638,3181.1103 c 15,-109 58,-444 70,-607 0,0 9,-2 20,-2 -14,178 -60,528 -70,608 0,0 -12,0 -20,1 z"
         id="path7727" />
      <path
         inkscape:connector-curvature="0"
         style="display:inline;fill:#d45500"
         d="m 15501.638,3170.1103 c 82,-54 299,-248 505,-248 84,0 166,48 166,146 l -19,3 c 0,-89 -75,-134 -149,-134 -179,0 -371,158 -492,243 z"
         id="path7729" />
      <path
         inkscape:connector-curvature="0"
         style="display:inline;fill:#d45500"
         d="m 15873.638,3043.1103 c 0,-171 36,-350 78,-469 4,-1 18,-2 22,-2 -36,107 -65,236 -75,371 -2,31 -4,66 -4,98 0,110 76,137 127,137 77,0 132,-40 132,-107 l 19,-3 c 0,80 -66,125 -153,125 -60,0 -146,-34 -146,-150 z"
         id="path7731" />
    </g>
    <g
       id="g7756"
       transform="matrix(1,0,0,-1,208.078,1155)">
      <path
         id="path7758"
         d="m 792,21 c 27,11 55,15 74,15 42,0 58,-29 58,-69 0,-45 -19,-105 -25,-152 -3,-1 -12,-1 -15,-1 10,60 25,111 25,153 0,32 -9,56 -41,56 -17,0 -46,-3 -72,-14 0,2 -3,11 -4,12 z m 331,217 c 0,104 29,330 41,472 4,0 14,0 18,1 -12,-142 -42,-370 -42,-471 0,-110 59,-134 218,-134 138,0 208,42 220,134 4,30 11,112 17,182 l 16,3 c -6,-75 -12,-156 -15,-187 -11,-95 -84,-148 -240,-148 -159,0 -233,27 -233,148 z m 324,223 c 1,2 6,14 6,16 23,-19 62,-47 120,-47 76,0 152,12 198,26 0,-2 -1,-14 -1,-15 -48,-14 -108,-26 -198,-26 -57,0 -104,28 -125,46 z m 96,106 c 0,136 91,153 161,153 39,0 77,-12 96,-21 -2,-5 -3,-12 -5,-17 -15,9 -52,22 -94,22 -99,0 -142,-49 -142,-135 0,-70 26,-115 58,-144 l -16,-5 c -31,31 -58,79 -58,147 z m 38,-346 15,17 c 7,-80 79,-132 198,-132 151,0 209,42 231,134 16,68 34,363 34,472 4,1 17,2 22,2 0,-111 -18,-406 -34,-476 -25,-104 -94,-148 -255,-148 -116,0 -199,47 -211,131 z m 211,559 c 0,67 25,103 65,132 45,33 118,48 236,48 12,0 29,0 39,-1 0,-2 -2,-14 -3,-16 -11,1 -25,1 -37,1 -118,0 -185,-16 -225,-45 -36,-26 -59,-63 -59,-117 -2,0 -14,-1 -16,-2 z M 0,211 c 0,105 88,153 191,153 170,0 294,-155 347,-253 l -10,-9 C 475,199 355,349 190,349 103,349 20,310 20,212 Z m 0,0 20,1 c 0,-66 64,-106 119,-106 58,0 127,28 141,138 4,41 7,61 11,98 9,89 17,200 17,251 0,81 -35,114 -97,114 -13,0 -76,-6 -76,-6 l 2,17 c 0,0 61,5 75,5 68,0 112,-42 112,-129 C 324,493 309,357 296,243 282,125 204,90 138,90 71,90 0,138 0,211 Z M 528,102 c 12,109 46,444 56,607 0,0 7,2 16,2 -11,-178 -48,-528 -56,-608 0,0 -10,0 -16,-1 z m 7,11 c 66,54 239,248 404,248 67,0 133,-48 133,-146 l -16,-3 c 0,89 -60,134 -119,134 C 794,346 641,188 544,103 Z m 297,127 c 0,171 29,350 63,469 3,1 14,2 17,2 -29,-107 -52,-236 -60,-371 -2,-31 -3,-66 -3,-98 0,-110 61,-137 102,-137 62,0 105,40 105,107 l 16,3 C 1072,135 1019,90 949,90 901,90 832,124 832,240 Z"
         inkscape:connector-curvature="0"
         style="fill:currentColor" />
    </g>
  </g>
</svg>
