<?xml version="1.0" encoding="UTF-8" standalone="no"?>
<!-- Created with Inkscape (http://www.inkscape.org/) -->

<svg
   xmlns:dc="http://purl.org/dc/elements/1.1/"
   xmlns:cc="http://creativecommons.org/ns#"
   xmlns:rdf="http://www.w3.org/1999/02/22-rdf-syntax-ns#"
   xmlns:svg="http://www.w3.org/2000/svg"
   xmlns="http://www.w3.org/2000/svg"
   xmlns:sodipodi="http://sodipodi.sourceforge.net/DTD/sodipodi-0.dtd"
   xmlns:inkscape="http://www.inkscape.org/namespaces/inkscape"
   sodipodi:docname="f0nt-latin-interpolations.svg"
   inkscape:version="0.91 r13725"
   version="1.1"
   id="svg2"
   viewBox="0 0 1200 1200"
   height="1200"
   width="1200">
  <sodipodi:namedview
     inkscape:window-maximized="1"
     inkscape:window-y="32"
     inkscape:window-x="0"
     inkscape:window-height="1046"
     inkscape:window-width="2048"
     showborder="false"
     units="px"
     showgrid="false"
     inkscape:current-layer="layer1"
     inkscape:document-units="px"
     inkscape:cy="7327"
     inkscape:cx="5915"
     inkscape:zoom="0.080408885"
     inkscape:pageshadow="2"
     inkscape:pageopacity="0.0"
     borderopacity="1.0"
     bordercolor="#666666"
     pagecolor="#ffffff"
     id="base" />
  <defs
     id="defs4" />
  <metadata
     id="metadata7">
    <rdf:RDF>
      <cc:Work
         rdf:about="">
        <dc:format>image/svg+xml</dc:format>
        <dc:type
           rdf:resource="http://purl.org/dc/dcmitype/StillImage" />
        <dc:title />
      </cc:Work>
    </rdf:RDF>
  </metadata>
  <g
     style="display:inline"
     inkscape:label="ceoO0Q"
     inkscape:groupmode="layer"
     id="layer1"
     transform="translate(0,147.63784)">
    <g
       id="g7178"
       transform="matrix(1,0,0,-1,1036,52.36216)" />
    <g
       id="g7216"
       transform="matrix(1,0,0,-1,0,397.36216)" />
    <g
       transform="matrix(1,0,0,-1,1036,52.36216)"
       id="g7228"
       style="fill:#000000" />
    <g
       transform="matrix(1,0,0,-1,0,397.36216)"
       id="g7232"
       style="fill:#000000" />
    <path
       style="fill:currentColor"
       d="m 9000,-3208.6378 c 0,-236 242,-363 472,-363 l -73,128 c -65,0 -124,93 -124,199 0,137 84,193 127,193 l -72,128 c -240,0 -330,-142 -330,-285 z"
       id="path5212"
       inkscape:connector-curvature="0" />
    <path
       style="fill:currentColor"
       d="m 0,-3222.6378 c 0,-203 171,-340 376,-340 l -3,16 c -192,0 -352,130 -352,324 0,160 120,274 271,274 l -2,16 c -162,0 -290,-123 -290,-290 z"
       id="path5210"
       inkscape:connector-curvature="0" />
    <path
       style="fill:currentColor"
       d="m 1000,-3220.6378 c 0,-207 179,-343 387,-343 l -11,28 c -178,0 -327,127 -327,311 0,157 116,265 255,265 l -10,28 c -171,0 -294,-125 -294,-289 z"
       id="path5208"
       inkscape:connector-curvature="0" />
    <path
       style="fill:currentColor"
       d="m 2000,-3219.6378 c 0,-210 186,-345 397,-345 l -18,41 c -164,0 -302,122 -302,296 0,155 112,256 239,256 l -17,41 c -179,0 -299,-127 -299,-289 z"
       id="path5206"
       inkscape:connector-curvature="0" />
    <path
       style="fill:#d45500"
       d="m 3000,-3217.6378 c 0,-214 195,-348 408,-348 l -26,53 c -150,0 -276,118 -276,283 0,152 108,247 223,247 l -26,53 c -188,0 -303,-129 -303,-288 z"
       id="path5204"
       inkscape:connector-curvature="0" />
    <path
       style="fill:currentColor"
       d="m 4000,-3216.6378 c 0,-218 203,-350 419,-350 l -34,66 c -136,0 -251,113 -251,268 0,150 104,238 207,238 l -33,66 c -197,0 -308,-132 -308,-288 z"
       id="path5202"
       inkscape:connector-curvature="0" />
    <path
       style="fill:currentColor"
       d="m 5000,-3214.6378 c 0,-221 210,-353 429,-353 l -42,78 c -121,0 -225,110 -225,255 0,147 100,229 191,229 l -41,78 c -205,0 -312,-133 -312,-287 z"
       id="path5200"
       inkscape:connector-curvature="0" />
    <path
       style="fill:#d45500"
       d="m 6000,-3213.6378 c 0,-225 218,-355 440,-355 l -50,91 c -107,0 -200,105 -200,240 0,145 96,220 175,220 l -48,91 c -214,0 -317,-136 -317,-287 z"
       id="path5198"
       inkscape:connector-curvature="0" />
    <path
       style="fill:currentColor"
       d="m 7000,-3211.6378 c 0,-229 227,-358 451,-358 l -58,103 c -93,0 -174,101 -174,227 0,142 92,211 159,211 l -57,103 c -223,0 -321,-138 -321,-286 z"
       id="path5196"
       inkscape:connector-curvature="0" />
    <path
       style="fill:currentColor"
       d="m 8000,-3210.6378 c 0,-232 234,-360 461,-360 l -65,116 c -79,0 -149,96 -149,212 0,140 88,202 143,202 l -64,116 c -231,0 -326,-140 -326,-286 z"
       id="path5183"
       inkscape:connector-curvature="0" />
    <path
       style="fill:currentColor"
       d="m 9330,-2923.6378 72,-128 c 73,0 133,-103 133,-194 0,-142 -90,-198 -136,-198 l 73,-128 c 244,0 338,140 338,290 0,239 -260,358 -480,358 z"
       id="path5266"
       inkscape:connector-curvature="0" />
    <path
       style="fill:currentColor"
       d="m 290,-2932.6378 2,-16 c 184,0 362,-117 362,-318 0,-167 -123,-280 -281,-280 l 3,-16 c 169,0 299,122 299,296 0,219 -199,334 -385,334 z"
       id="path5264"
       inkscape:connector-curvature="0" />
    <path
       style="fill:currentColor"
       d="m 1294,-2931.6378 10,-28 c 172,0 337,-116 337,-305 0,-164 -119,-271 -265,-271 l 11,-28 c 177,0 303,124 303,295 0,221 -206,337 -396,337 z"
       id="path5262"
       inkscape:connector-curvature="0" />
    <path
       style="fill:currentColor"
       d="m 2299,-2930.6378 17,-41 c 159,0 312,-113 312,-290 0,-161 -116,-262 -249,-262 l 18,-41 c 186,0 308,126 308,295 0,223 -212,339 -406,339 z"
       id="path5260"
       inkscape:connector-curvature="0" />
    <path
       style="fill:#d45500"
       d="m 3303,-2929.6378 26,-53 c 147,0 285,-113 285,-277 0,-159 -111,-253 -232,-253 l 26,-53 c 194,0 312,128 312,294 0,226 -220,342 -417,342 z"
       id="path5258"
       inkscape:connector-curvature="0" />
    <path
       style="fill:currentColor"
       d="m 4308,-2928.6378 33,-66 c 135,0 260,-111 260,-263 0,-156 -108,-243 -216,-243 l 34,-66 c 202,0 316,130 316,293 0,228 -226,345 -427,345 z"
       id="path5256"
       inkscape:connector-curvature="0" />
    <path
       style="fill:currentColor"
       d="m 5312,-2927.6378 41,-78 c 122,0 235,-109 235,-249 0,-153 -105,-235 -201,-235 l 42,-78 c 211,0 321,132 321,293 0,230 -233,347 -438,347 z"
       id="path5254"
       inkscape:connector-curvature="0" />
    <path
       style="fill:#d45500"
       d="m 6317,-2926.6378 48,-91 c 110,0 210,-107 210,-235 0,-150 -102,-225 -185,-225 l 50,-91 c 219,0 325,134 325,292 0,232 -239,350 -448,350 z"
       id="path5252"
       inkscape:connector-curvature="0" />
    <path
       style="fill:currentColor"
       d="m 7321,-2925.6378 57,-103 c 98,0 183,-107 183,-222 0,-148 -97,-216 -168,-216 l 58,-103 c 227,0 329,136 329,291 0,235 -247,353 -459,353 z"
       id="path5250"
       inkscape:connector-curvature="0" />
    <path
       style="fill:currentColor"
       d="m 8326,-2924.6378 64,-116 c 85,0 158,-104 158,-207 0,-145 -94,-207 -152,-207 l 65,-116 c 236,0 334,138 334,291 0,237 -253,355 -469,355 z"
       id="path5237"
       inkscape:connector-curvature="0" />
    <path
       style="fill:currentColor"
       d="m 10800,-4304.6378 c 0,-312 298,-477 596,-477 l -82,136 c -120,0 -215,157 -215,303 0,194 138,283 205,283 l -82,136 c -308,0 -422,-187 -422,-381 z"
       id="path4124"
       inkscape:connector-curvature="0" />
    <path
       style="fill:currentColor"
       d="m 0,-4318.6378 c 0,-275 224,-454 497,-454 l -3,16 c -296,0 -472,212 -472,436 0,219 164,372 364,372 l -2,16 c -218,0 -384,-162 -384,-386 z"
       id="path4122"
       inkscape:connector-curvature="0" />
    <path
       style="fill:currentColor"
       d="m 1200,-4316.6378 c 0,-279 232,-457 508,-457 l -12,29 c -276,0 -443,207 -443,422 0,216 161,362 346,362 l -11,29 c -228,0 -388,-164 -388,-385 z"
       id="path4120"
       inkscape:connector-curvature="0" />
    <path
       style="fill:currentColor"
       d="m 2400,-4315.6378 c 0,-283 240,-459 519,-459 l -21,43 c -257,0 -414,199 -414,406 0,213 158,352 328,352 l -20,43 c -238,0 -392,-168 -392,-385 z"
       id="path4118"
       inkscape:connector-curvature="0" />
    <path
       style="fill:#d45500"
       d="m 3600,-4313.6378 c 0,-287 249,-462 530,-462 l -29,56 c -237,0 -387,194 -387,392 0,211 155,342 311,342 l -28,56 c -248,0 -397,-170 -397,-384 z"
       id="path4116"
       inkscape:connector-curvature="0" />
    <path
       style="fill:currentColor"
       d="m 4800,-4312.6378 c 0,-291 257,-464 541,-464 l -38,69 c -218,0 -358,188 -358,377 0,208 152,333 293,333 l -37,69 c -258,0 -401,-173 -401,-384 z"
       id="path4114"
       inkscape:connector-curvature="0" />
    <path
       style="fill:currentColor"
       d="m 6000,-4310.6378 c 0,-296 265,-467 552,-467 l -47,83 c -198,0 -329,181 -329,362 0,205 150,322 276,322 l -47,83 c -268,0 -405,-176 -405,-383 z"
       id="path4112"
       inkscape:connector-curvature="0" />
    <path
       style="fill:#d45500"
       d="m 7200,-4309.6378 c 0,-300 273,-469 563,-469 l -56,96 c -179,0 -300,175 -300,347 0,202 147,313 258,313 l -56,96 c -278,0 -409,-179 -409,-383 z"
       id="path4110"
       inkscape:connector-curvature="0" />
    <path
       style="fill:currentColor"
       d="m 8400,-4307.6378 c 0,-304 282,-472 574,-472 l -64,109 c -159,0 -273,170 -273,333 0,200 144,303 241,303 l -64,109 c -288,0 -414,-181 -414,-382 z"
       id="path4108"
       inkscape:connector-curvature="0" />
    <path
       style="fill:currentColor"
       d="m 9600,-4306.6378 c 0,-308 290,-474 585,-474 l -73,123 c -140,0 -244,162 -244,317 0,197 141,293 223,293 l -73,123 c -298,0 -418,-185 -418,-382 z"
       id="path4095-7"
       inkscape:connector-curvature="0" />
    <path
       style="fill:currentColor"
       d="m 11222,-3923.6378 82,-136 c 135,0 227,-148 227,-296 0,-198 -144,-290 -217,-290 l 82,-136 c 313,0 434,185 434,388 0,322 -333,470 -608,470 z"
       id="path4178"
       inkscape:connector-curvature="0" />
    <path
       style="fill:currentColor"
       d="m 384,-3932.6378 2,-16 c 239,0 487,-149 487,-428 0,-228 -168,-380 -379,-380 l 3,-16 c 225,0 398,161 398,394 0,282 -249,446 -511,446 z"
       id="path4176"
       inkscape:connector-curvature="0" />
    <path
       style="fill:currentColor"
       d="m 1588,-3931.6378 11,-29 c 227,0 458,-150 458,-414 0,-225 -165,-370 -361,-370 l 12,-29 c 235,0 402,163 402,393 0,286 -259,449 -522,449 z"
       id="path4174"
       inkscape:connector-curvature="0" />
    <path
       style="fill:currentColor"
       d="m 2792,-3930.6378 20,-43 c 216,0 429,-148 429,-398 0,-221 -163,-360 -343,-360 l 21,-43 c 245,0 406,167 406,393 0,291 -268,451 -533,451 z"
       id="path4172"
       inkscape:connector-curvature="0" />
    <path
       style="fill:#d45500"
       d="m 3997,-3929.6378 28,-56 c 204,0 401,-149 401,-384 0,-218 -160,-350 -325,-350 l 29,-56 c 254,0 410,169 410,392 0,295 -277,454 -543,454 z"
       id="path4170"
       inkscape:connector-curvature="0" />
    <path
       style="fill:currentColor"
       d="m 5201,-3928.6378 37,-69 c 193,0 372,-149 372,-370 0,-215 -157,-340 -307,-340 l 38,-69 c 264,0 414,171 414,391 0,300 -286,457 -554,457 z"
       id="path4168"
       inkscape:connector-curvature="0" />
    <path
       style="fill:currentColor"
       d="m 6405,-3927.6378 47,-83 c 181,0 342,-148 342,-354 0,-211 -155,-330 -289,-330 l 47,-83 c 274,0 418,175 418,391 0,304 -296,459 -565,459 z"
       id="path4166"
       inkscape:connector-curvature="0" />
    <path
       style="fill:#d45500"
       d="m 7609,-3926.6378 56,-96 c 170,0 313,-148 313,-340 0,-208 -152,-320 -271,-320 l 56,-96 c 284,0 422,177 422,390 0,309 -305,462 -576,462 z"
       id="path4164"
       inkscape:connector-curvature="0" />
    <path
       style="fill:currentColor"
       d="m 8814,-3925.6378 64,-109 c 158,0 285,-149 285,-326 0,-205 -149,-310 -253,-310 l 64,-109 c 293,0 426,179 426,389 0,313 -314,465 -586,465 z"
       id="path4162"
       inkscape:connector-curvature="0" />
    <path
       style="fill:currentColor"
       d="m 10018,-3924.6378 73,-123 c 147,0 256,-147 256,-310 0,-201 -147,-300 -235,-300 l 73,-123 c 303,0 430,183 430,389 0,318 -323,467 -597,467 z"
       id="path4149"
       inkscape:connector-curvature="0" />
    <path
       inkscape:connector-curvature="0"
       id="path4609"
       d="m 1200,-305.63786 c 0,-294 219,-468 472,-468 157,0 285,92 285,232 0,16 -2,36 -4,47 -10,0 -42,1 -52,3 2,-9 4,-29 4,-45 0,-128 -104,-208 -242,-208 -246,0 -410,189 -410,432 0,268 174,352.00002 333,352.00002 164,0 326,-78.00002 402,-143.00002 10,2 32,11 42,15 -85,76 -276,157.00002 -455,157.00002 -194,0 -375,-100.00002 -375,-374.00002 z"
       style="fill:currentColor" />
    <path
       inkscape:connector-curvature="0"
       id="path4607"
       d="m 2400,-303.63786 c 0,-300 228,-471 483,-471 172,0 291,100 291,231 0,20 -2,41 -4,53 -17,0 -66,4 -83,6 2,-10 5,-33 5,-50 0,-120 -97,-197 -225,-197 -230,0 -383,186 -383,417 0,264 169,341.00002 315,341.00002 153,0 308,-76.00002 379,-140.00002 18,2 50,13 67,19 -85,82 -284,164.00002 -466,164.00002 -202,0 -379,-103.00002 -379,-373.00002 z"
       style="fill:currentColor" />
    <path
       inkscape:connector-curvature="0"
       id="path4605"
       d="m 3600,-302.63786 c 0,-305 237,-473 495,-473 188,0 297,108 297,230 0,23 -3,46 -6,60 -23,0 -90,4 -113,7 3,-12 6,-35 6,-54 0,-113 -90,-187 -208,-187 -213,0 -356,183 -356,402 0,261 165,332.00002 297,332.00002 142,0 290,-75.00002 357,-139.00002 25,3 67,16 91,24 -85,88 -291,171.00002 -477,171.00002 -211,0 -383,-106.00002 -383,-373.00002 z"
       style="fill:#d45500" />
    <path
       inkscape:connector-curvature="0"
       id="path4603"
       d="m 4800,-301.63786 c 0,-310 245,-475 506,-475 203,0 303,116 303,229 0,27 -3,52 -6,67 -29,0 -114,4 -144,8 3,-14 7,-38 7,-58 0,-105 -83,-177 -191,-177 -197,0 -329,181 -329,388 0,257 161,322.00002 279,322.00002 131,0 271,-73.00002 334,-137.00002 33,3 85,18 116,28 -85,94 -299,178.00002 -488,178.00002 -219,0 -387,-110.00002 -387,-373.00002 z"
       style="fill:currentColor" />
    <path
       inkscape:connector-curvature="0"
       id="path4601"
       d="m 6000,-299.63786 c 0,-316 254,-478 517,-478 219,0 309,125 309,228 0,30 -3,56 -7,73 -36,0 -137,7 -173,11 4,-15 6,-41 6,-63 0,-98 -75,-166 -173,-166 -180,0 -303,177 -303,372 0,253 156,312 261,312 121,0 254,-72 312,-135 40,4 103,19 141,32 -86,101 -306,186.00002 -499,186.00002 -228,0 -391,-113.00002 -391,-372.00002 z"
       style="fill:currentColor" />
    <path
       inkscape:connector-curvature="0"
       id="path4599"
       d="m 7200,-298.63786 c 0,-321 262,-480 528,-480 234,0 315,133 315,227 0,34 -3,62 -7,80 -42,0 -161,7 -204,12 4,-17 7,-44 7,-67 0,-90 -68,-156 -156,-156 -164,0 -276,175 -276,358 0,249 152,302 243,302 110,0 235,-70 289,-133 48,4 121,21 166,36 -86,107 -314,193.00002 -510,193.00002 -236,0 -395,-117.00002 -395,-372.00002 z"
       style="fill:#d45500" />
    <path
       inkscape:connector-curvature="0"
       id="path4597"
       d="m 8400,-297.63786 c 0,-326 271,-482 540,-482 250,0 321,141 321,226 0,37 -4,67 -9,87 -48,0 -185,7 -234,13 5,-19 8,-46 8,-71 0,-83 -61,-146 -139,-146 -147,0 -249,172 -249,343 0,246 148,293 225,293 99,0 217,-69 267,-132 55,5 138,24 190,41 -86,113 -321,200.00002 -521,200.00002 -245,0 -399,-120.00002 -399,-372.00002 z"
       style="fill:currentColor" />
    <path
       inkscape:connector-curvature="0"
       id="path4595"
       d="m 9600,-295.63786 c 0,-332 280,-485 551,-485 265,0 327,149 327,225 0,41 -4,72 -9,93 -55,0 -209,10 -265,16 5,-20 9,-50 9,-76 0,-75 -54,-135 -122,-135 -131,0 -222,169 -222,328 0,242 143,282 207,282 88,0 199,-67 244,-129 63,5 156,26 215,45 -86,119 -329,207.00002 -532,207.00002 -253,0 -403,-123.00002 -403,-371.00002 z"
       style="fill:currentColor" />
    <path
       inkscape:connector-curvature="0"
       id="path4593"
       d="m 0,-306.63786 c 0,-289 211,-466 461,-466 141,0 279,84 279,233 0,13 -2,31 -3,40 -4,0 -18,1 -22,2 1,-7 3,-27 3,-41 0,-135 -111,-218 -259,-218 -263,0 -437,192 -437,447 0,272 178,361.00002 351,361.00002 175,0 345,-79.00002 425,-144.00002 3,1 14,8 17,10 -85,70 -269,150.00002 -444,150.00002 -185,0 -371,-96.00002 -371,-374.00002 z"
       style="fill:currentColor" />
    <path
       inkscape:connector-curvature="0"
       id="path4580"
       d="m 10800,-294.63786 c 0,-337 288,-487 562,-487 281,0 333,157 333,224 0,44 -4,77 -10,100 -61,0 -233,10 -295,17 6,-22 10,-52 10,-80 0,-68 -47,-125 -105,-125 -114,0 -195,166 -195,313 0,238 139,273 189,273 77,0 180,-66 221,-128 70,6 174,29 240,50 -86,125 -336,214.00002 -543,214.00002 -262,0 -407,-127.00002 -407,-371.00002 z"
       style="fill:currentColor" />
    <g
       transform="matrix(1,0,0,-1,-1000,1397.3622)"
       id="g3554" />
    <g
       style="fill:#d45500"
       id="g3580"
       transform="matrix(1,0,0,-1,-1000,1397.3622)" />
    <g
       transform="matrix(1,0,0,-1,0,1397.3622)"
       id="g3595" />
    <g
       style="fill:#d45500"
       id="g3625"
       transform="matrix(1,0,0,-1,9058.5949,52.18316)" />
    <g
       transform="matrix(1,0,0,-1,0,1397.3622)"
       id="g3477" />
    <path
       inkscape:connector-curvature="0"
       style="fill:currentColor"
       d="m 0,771.3622 c 0,-197 163,-334 352,-334 140,0 218,67 218,175 0,11 -1,22 -3,34 -8,1 -14,1 -22,2 2,-10 3,-25 3,-36 0,-101 -70,-158 -198,-158 -175,0 -329,126 -329,316 0,169 119,280 267,280 153,0 262,-53 309,-108 5,1 15,5 18,8 -52,61 -170,117 -329,117 -163,0 -286,-122 -286,-296 z"
       id="path5126" />
    <path
       inkscape:connector-curvature="0"
       style="fill:currentColor"
       d="m 1000,773.3622 c 0,-201 172,-337 362,-337 148,0 225,69 225,176 0,12 -2,25 -4,37 -13,1 -33,1 -48,3 2,-10 3,-25 3,-36 0,-98 -65,-151 -182,-151 -161,0 -306,121 -306,303 0,165 113,271 251,271 144,0 248,-52 294,-105 9,2 27,8 35,13 -53,62 -175,121 -340,121 -173,0 -290,-124 -290,-295 z"
       id="path5124" />
    <path
       inkscape:connector-curvature="0"
       style="fill:currentColor"
       d="m 2000,774.3622 c 0,-205 182,-339 373,-339 156,0 231,71 231,177 0,14 -2,28 -4,40 -19,1 -53,1 -75,4 2,-10 3,-26 3,-37 0,-94 -61,-143 -167,-143 -146,0 -281,117 -281,290 0,162 106,262 234,262 136,0 234,-53 278,-103 14,3 41,12 53,19 -54,63 -178,125 -350,125 -183,0 -295,-127 -295,-295 z"
       id="path5122" />
    <path
       inkscape:connector-curvature="0"
       style="fill:#d45500"
       d="m 3000,776.3622 c 0,-209 191,-342 383,-342 163,0 238,74 238,179 0,15 -3,30 -5,42 -24,1 -73,2 -102,6 2,-10 3,-28 3,-38 0,-91 -56,-136 -150,-136 -132,0 -258,111 -258,276 0,158 100,254 218,254 127,0 220,-52 263,-100 18,3 53,15 70,24 -54,64 -183,129 -361,129 -193,0 -299,-129 -299,-294 z"
       id="path5120" />
    <path
       inkscape:connector-curvature="0"
       style="fill:currentColor"
       d="m 4000,778.3622 c 0,-213 201,-345 394,-345 171,0 244,76 244,180 0,17 -3,33 -5,45 -30,1 -93,2 -129,7 2,-10 3,-28 3,-38 0,-88 -52,-129 -135,-129 -117,0 -234,107 -234,263 0,155 94,245 202,245 118,0 205,-51 247,-97 23,4 67,18 88,29 -55,65 -187,133 -372,133 -203,0 -303,-131 -303,-293 z"
       id="path5118" />
    <path
       inkscape:connector-curvature="0"
       style="fill:currentColor"
       d="m 5000,779.3622 c 0,-216 209,-347 404,-347 179,0 251,79 251,181 0,18 -4,36 -6,47 -35,2 -111,4 -155,9 2,-10 3,-29 3,-39 0,-84 -47,-120 -119,-120 -103,0 -210,101 -210,249 0,151 86,235 185,235 110,0 192,-51 232,-94 27,5 79,24 105,36 -56,65 -191,136 -382,136 -213,0 -308,-135 -308,-293 z"
       id="path5116" />
    <path
       inkscape:connector-curvature="0"
       style="fill:#d45500"
       d="m 6000,781.3622 c 0,-220 219,-350 415,-350 187,0 257,81 257,182 0,20 -4,39 -6,50 -41,2 -131,4 -182,10 2,-10 3,-29 3,-39 0,-81 -43,-113 -104,-113 -88,0 -186,97 -186,236 0,148 80,226 169,226 101,0 177,-50 216,-91 32,6 93,27 123,41 -57,66 -195,140 -393,140 -223,0 -312,-137 -312,-292 z"
       id="path5114" />
    <path
       inkscape:connector-curvature="0"
       style="fill:currentColor"
       d="m 7000,783.3622 c 0,-224 228,-353 425,-353 194,0 264,84 264,184 0,21 -5,41 -7,52 -46,2 -151,5 -209,12 2,-10 3,-31 3,-40 0,-78 -38,-106 -87,-106 -74,0 -163,91 -163,222 0,144 74,218 153,218 92,0 163,-49 201,-88 36,6 105,30 140,46 -57,67 -200,144 -404,144 -233,0 -316,-139 -316,-291 z"
       id="path5112" />
    <path
       inkscape:connector-curvature="0"
       style="fill:currentColor"
       d="m 8000,784.3622 c 0,-228 238,-355 436,-355 202,0 270,86 270,185 0,23 -5,44 -7,55 -52,2 -171,5 -236,13 2,-10 3,-32 3,-41 0,-74 -34,-98 -72,-98 -59,0 -138,87 -138,209 0,141 67,209 136,209 84,0 149,-50 185,-86 41,7 119,34 158,52 -58,68 -203,148 -414,148 -243,0 -321,-142 -321,-291 z"
       id="path5110" />
    <path
       inkscape:connector-curvature="0"
       style="fill:currentColor"
       d="m 9000,786.3622 c 0,-232 247,-358 446,-358 210,0 277,88 277,186 0,24 -6,47 -8,58 -57,2 -190,5 -262,14 2,-10 3,-32 3,-41 0,-71 -29,-91 -56,-91 -45,0 -115,82 -115,196 0,137 61,200 120,200 75,0 135,-49 170,-83 45,8 131,37 175,57 -59,69 -208,152 -425,152 -253,0 -325,-144 -325,-290 z"
       id="path5097" />
    <path
       style="fill:currentColor"
       d="m 350,-1545.6378 c -175,0 -329,126 -329,316 0,169 119,279.99996 267,279.99996 153,0 262,-52.99996 309,-107.99996 5,1 15,5 18,8 -52,60.99996 -170,116.99996 -329,116.99996 -163,0 -286,-121.99996 -286,-295.99996 0,-197 163,-334 352,-334 z"
       id="path5397"
       inkscape:connector-curvature="0"
       sodipodi:nodetypes="cssccsscc" />
    <path
       style="fill:currentColor"
       d="m 1356,-1534.6378 c -161,0 -306,121 -306,303 0,165 113,270.99996 251,270.99996 144,0 248,-51.99996 294,-104.99996 9,2 27,8 35,13 -53,61.99996 -175,120.99996 -340,120.99996 -173,0 -290,-123.99996 -290,-294.99996 0,-201 172,-337 362,-337 z"
       id="path5399"
       inkscape:connector-curvature="0"
       sodipodi:nodetypes="cssccsscc" />
    <path
       style="fill:currentColor"
       d="m 2361,-1523.6378 c -146,0 -281,117 -281,290 0,162 106,261.99996 234,261.99996 136,0 234,-52.99996 278,-102.99996 14,3 41,12 53,19 -54,62.99996 -178,124.99996 -350,124.99996 -183,0 -295,-126.99996 -295,-294.99996 0,-205 182,-339 373,-339 z"
       id="path5401"
       inkscape:connector-curvature="0"
       sodipodi:nodetypes="cssccsscc" />
    <path
       style="fill:#d45500"
       d="m 3367,-1512.6378 c -132,0 -258,111 -258,276 0,158 100,253.99996 218,253.99996 127,0 220,-51.99996 263,-99.99996 18,3 53,15 70,24 -54,63.99996 -183,128.99996 -361,128.99996 -193,0 -299,-128.99996 -299,-293.99996 0,-209 191,-342 383,-342 z"
       id="path5403"
       inkscape:connector-curvature="0"
       sodipodi:nodetypes="cssccsscc" />
    <path
       style="fill:currentColor"
       d="m 4372,-1501.6378 c -117,0 -234,107 -234,263 0,155 94,244.99996 202,244.99996 118,0 205,-50.99996 247,-96.99996 23,4 67,18 88,29 -55,64.99996 -187,132.99996 -372,132.99996 -203,0 -303,-130.99996 -303,-292.99996 0,-213 201,-345 394,-345 z"
       id="path5405"
       inkscape:connector-curvature="0"
       sodipodi:nodetypes="cssccsscc" />
    <path
       style="fill:currentColor"
       d="m 5378,-1489.6378 c -103,0 -210,101 -210,249 0,151 86,235 185,235 110,0 192,-51 232,-94 27,5 79,24 105,36 -56,64.99996 -191,135.99996 -382,135.99996 -213,0 -308,-134.99996 -308,-292.99996 0,-216 209,-347 404,-347 z"
       id="path5407"
       inkscape:connector-curvature="0"
       sodipodi:nodetypes="cssccsscc" />
    <path
       style="fill:#d45500"
       d="m 6383,-1478.6378 c -88,0 -186,97 -186,236 0,148 80,226 169,226 101,0 177,-50 216,-91 32,6 93,27 123,41 -57,66 -195,139.99996 -393,139.99996 -223,0 -312,-136.99996 -312,-291.99996 0,-220 219,-350 415,-350 z"
       id="path5409"
       inkscape:connector-curvature="0"
       sodipodi:nodetypes="cssccsscc" />
    <path
       style="fill:currentColor"
       d="m 7389,-1467.6378 c -74,0 -163,91 -163,222 0,144 74,218 153,218 92,0 163,-49 201,-88 36,6 105,30 140,46 -57,67 -200,143.99996 -404,143.99996 -233,0 -316,-138.99996 -316,-290.99996 0,-224 228,-353 425,-353 z"
       id="path5411"
       inkscape:connector-curvature="0"
       sodipodi:nodetypes="cssccsscc" />
    <path
       style="fill:currentColor"
       d="m 8394,-1456.6378 c -59,0 -138,87 -138,209 0,141 67,209 136,209 84,0 149,-50 185,-86 41,7 119,34 158,52 -58,68 -203,147.99996 -414,147.99996 -243,0 -321,-141.99996 -321,-290.99996 0,-228 238,-355 436,-355 z"
       id="path5413"
       inkscape:connector-curvature="0"
       sodipodi:nodetypes="cssccsscc" />
    <path
       style="fill:currentColor"
       d="m 9400,-1445.6378 c -45,0 -115,82 -115,196 0,137 61,200 120,200 75,0 135,-49 170,-83 45,8 131,37 175,57 -59,69 -208,151.99996 -425,151.99996 -253,0 -325,-143.99996 -325,-289.99996 0,-232 247,-358 446,-358 z"
       id="path5415"
       inkscape:connector-curvature="0"
       sodipodi:nodetypes="cssccsscc" />
    <path
       inkscape:connector-curvature="0"
       id="path6161"
       d="m 8085,-1240.6378 c 257,-12 377,-30 377,-134 0,-45 -28,-82 -68,-82 l 42,-114 c 241,0 267,117 267,164 0,194 -349,263 -604,275 z"
       style="fill:currentColor" />
    <path
       inkscape:connector-curvature="0"
       id="path6159"
       d="m 7076,-1233.6378 c 248,-11 398,-30 398,-145 0,-46 -30,-89 -85,-89 l 36,-102 c 232,0 262,114 262,162 0,196 -351,259 -599,271 z"
       style="fill:currentColor" />
    <path
       inkscape:connector-curvature="0"
       id="path6157"
       d="m 6066,-1225.6378 c 239,-11 419,-32 419,-158 0,-46 -33,-95 -102,-95 l 32,-90 c 224,0 256,111 256,160 0,198 -352,257 -593,268 z"
       style="fill:#d45500" />
    <path
       inkscape:connector-curvature="0"
       id="path6155"
       d="m 5057,-1218.6378 c 230,-10 440,-32 440,-169 0,-47 -35,-102 -119,-102 l 26,-78 c 215,0 251,108 251,158 0,200 -353,253 -587,264 z"
       style="fill:currentColor" />
    <path
       inkscape:connector-curvature="0"
       id="path6153"
       d="m 4048,-1211.6378 c 222,-10 461,-34 461,-181 0,-48 -39,-109 -137,-109 l 22,-65 c 207,0 246,106 246,157 0,202 -356,249 -583,260 z"
       style="fill:currentColor" />
    <path
       inkscape:connector-curvature="0"
       id="path6151"
       d="m 3039,-1204.6378 c 213,-9 482,-34 482,-192 0,-49 -41,-116 -154,-116 l 16,-53 c 198,0 241,103 241,155 0,204 -357,245 -577,256 z"
       style="fill:#d45500" />
    <path
       inkscape:connector-curvature="0"
       id="path6149"
       d="m 2029,-1196.6378 c 204,-9 503,-36 503,-205 0,-49 -44,-122 -171,-122 l 12,-41 c 190,0 235,100 235,153 0,206 -358,243 -571,253 z"
       style="fill:currentColor" />
    <path
       inkscape:connector-curvature="0"
       id="path6147"
       d="m 1020,-1189.6378 c 195,-8 524,-36 524,-216 0,-50 -46,-129 -188,-129 l 6,-29 c 181,0 230,97 230,151 0,208 -360,239 -566,249 z"
       style="fill:currentColor" />
    <path
       inkscape:connector-curvature="0"
       id="path6145"
       d="m 9094,-1247.6378 c 266,-12 356,-29 356,-122 0,-44 -24,-76 -50,-76 l 46,-126 c 249,0 273,120 273,166 0,192 -348,266 -610,278 z"
       style="fill:currentColor" />
    <path
       inkscape:connector-curvature="0"
       id="path6132"
       d="m 11,-1182.6378 c 186,-8 545,-37 545,-228 0,-51 -50,-135 -206,-135 l 2,-17 c 173,0 224,94 224,149 0,210 -361,236 -560,246 z"
       style="fill:currentColor" />
    <path
       id="path8331"
       d="m 0,-2317.6378 c 0,-222 108,-455 326,-455 l -3,16 c -203,0 -300,238 -300,437 0,209 106,371 230,371 l -2,16 c -151,0 -251,-170 -251,-385 z"
       style="display:inline;fill:currentColor"
       inkscape:connector-curvature="0" />
    <path
       id="path8329"
       d="m 9000,-2304.6378 c 0,-320 180,-477 424,-477 l -63,150 c -30,4 -83,147 -83,291 0,133 49,267 79,267 l -68,150 c -233,0 -289,-199 -289,-381 z"
       style="display:inline;fill:currentColor"
       inkscape:connector-curvature="0" />
    <path
       id="path8327"
       d="m 1000,-2316.6378 c 0,-233 116,-457 337,-457 l -10,31 c -184,0 -276,228 -276,421 0,201 100,359 214,359 l -10,31 c -160,0 -255,-174 -255,-385 z"
       style="display:inline;fill:currentColor"
       inkscape:connector-curvature="0" />
    <path
       id="path8325"
       d="m 2000,-2314.6378 c 0,-244 124,-460 348,-460 l -17,46 c -165,1 -251,217 -251,404 0,192 93,348 196,348 l -17,46 c -169,0 -259,-176 -259,-384 z"
       style="display:inline;fill:currentColor"
       inkscape:connector-curvature="0" />
    <path
       id="path8323"
       d="m 3000,-2313.6378 c 0,-255 132,-462 359,-462 l -23,61 c -145,1 -228,207 -228,388 0,184 87,336 180,336 l -24,61 c -178,0 -264,-180 -264,-384 z"
       style="display:inline;fill:#d45500"
       inkscape:connector-curvature="0" />
    <path
       id="path8321"
       d="m 4000,-2311.6378 c 0,-266 140,-465 370,-465 l -30,76 c -126,2 -204,197 -204,372 0,175 81,324 163,324 l -31,76 c -187,0 -268,-183 -268,-383 z"
       style="display:inline;fill:currentColor"
       inkscape:connector-curvature="0" />
    <path
       id="path8319"
       d="m 5000,-2310.6378 c 0,-276 148,-467 380,-467 l -36,90 c -107,2 -179,188 -179,356 0,167 74,314 146,314 l -39,90 c -197,0 -272,-186 -272,-383 z"
       style="display:inline;fill:currentColor"
       inkscape:connector-curvature="0" />
    <path
       id="path8317"
       d="m 6000,-2308.6378 c 0,-287 156,-470 391,-470 l -43,105 c -88,3 -155,178 -155,340 0,158 68,302 129,302 l -46,105 c -206,0 -276,-189 -276,-382 z"
       style="display:inline;fill:#d45500"
       inkscape:connector-curvature="0" />
    <path
       id="path8315"
       d="m 7000,-2307.6378 c 0,-298 164,-472 402,-472 l -49,120 c -68,3 -132,168 -132,324 0,150 62,290 113,290 l -53,120 c -215,0 -281,-193 -281,-382 z"
       style="display:inline;fill:currentColor"
       inkscape:connector-curvature="0" />
    <path
       id="path8301-3"
       d="m 8000,-2305.6378 c 0,-309 172,-475 413,-475 l -56,135 c -49,4 -107,157 -107,307 0,141 55,279 95,279 l -60,135 c -224,0 -285,-195 -285,-381 z"
       style="display:inline;fill:currentColor"
       inkscape:connector-curvature="0" />
    <path
       style="display:inline;fill:currentColor"
       d="m 251,-1932.6378 2,-16 c 200,0 309,-220 309,-429 0,-229 -106,-379 -239,-379 l 3,-16 c 158,0 259,159 259,393 0,231 -116,447 -334,447 z"
       id="path11557"
       inkscape:connector-curvature="0" />
    <path
       style="display:inline;fill:currentColor"
       d="m 9289,-1923.6378 68,-150 c 31,-2 85,-139 85,-284 0,-152 -50,-272 -81,-274 l 63,-150 c 244,0 296,197 296,388 0,258 -130,470 -431,470 z"
       id="path11555"
       inkscape:connector-curvature="0" />
    <path
       style="display:inline;fill:currentColor"
       d="m 1255,-1931.6378 10,-31 c 181,0 284,-211 284,-413 0,-220 -100,-367 -222,-367 l 10,-31 c 168,0 263,163 263,392 0,234 -118,450 -345,450 z"
       id="path11553"
       inkscape:connector-curvature="0" />
    <path
       style="display:inline;fill:currentColor"
       d="m 2259,-1930.6378 17,-46 c 162,0 259,-202 259,-397 0,-212 -94,-355 -204,-355 l 17,-46 c 177,0 267,168 267,392 0,237 -120,452 -356,452 z"
       id="path11551"
       inkscape:connector-curvature="0" />
    <path
       style="display:inline;fill:#d45500"
       d="m 3264,-1929.6378 24,-61 c 144,-1 234,-192 234,-380 0,-203 -87,-343 -186,-344 l 23,-61 c 187,0 271,171 271,391 0,240 -120,455 -366,455 z"
       id="path11549"
       inkscape:connector-curvature="0" />
    <path
       style="display:inline;fill:currentColor"
       d="m 4268,-1928.6378 31,-76 c 125,-1 210,-183 210,-364 0,-195 -81,-331 -169,-332 l 30,-76 c 196,0 275,176 275,391 0,243 -122,457 -377,457 z"
       id="path11547"
       inkscape:connector-curvature="0" />
    <path
       style="display:inline;fill:currentColor"
       d="m 5272,-1927.6378 39,-90 c 106,-1 184,-176 184,-349 0,-186 -75,-320 -151,-321 l 36,-90 c 206,0 280,180 280,390 0,246 -124,460 -388,460 z"
       id="path11545"
       inkscape:connector-curvature="0" />
    <path
       style="display:inline;fill:#d45500"
       d="m 6276,-1926.6378 46,-105 c 87,-1 160,-167 160,-333 0,-178 -69,-308 -134,-309 l 43,-105 c 215,0 284,185 284,390 0,249 -126,462 -399,462 z"
       id="path11543"
       inkscape:connector-curvature="0" />
    <path
       style="display:inline;fill:currentColor"
       d="m 7281,-1925.6378 53,-120 c 69,-2 135,-157 135,-316 0,-169 -62,-296 -116,-298 l 49,-120 c 225,0 288,188 288,389 0,252 -126,465 -409,465 z"
       id="path11541"
       inkscape:connector-curvature="0" />
    <path
       style="display:inline;fill:currentColor"
       d="m 8285,-1924.6378 60,-135 c 50,-2 110,-148 110,-300 0,-161 -56,-284 -98,-286 l 56,-135 c 234,0 292,193 292,389 0,255 -128,467 -420,467 z"
       id="path11528"
       inkscape:connector-curvature="0" />
    <g
       id="g7186"
       transform="matrix(1,0,0,-1,10840,-4947.6378)" />
    <path
       id="path7977"
       d="m 9600,-6306.6378 c 0,-308 290,-474 585,-474 201,0 330,84 389,201 -58,29 -194,100 -238,130 -35,-141 -150,-208 -224,-208 -140,0 -244,162 -244,317 0,197 134,293 223,293 221,0 282,-156 285,-242 l 228,-32 c -5,243 -324,397 -586,397 -298,0 -418,-185 -418,-382 z"
       style="fill:currentColor" />
    <path
       id="path7975"
       d="m 8400,-6307.6378 c 0,-304 282,-472 574,-472 200,0 333,89 389,214 -52,25 -172,87 -211,114 -36,-146 -154,-219 -242,-219 -159,0 -273,170 -273,333 0,200 138,303 241,303 233,0 306,-164 308,-255 l 203,-28 c -5,229 -304,392 -575,392 -288,0 -414,-181 -414,-382 z"
       style="fill:currentColor" />
    <path
       id="path7973"
       d="m 7200,-6309.6378 c 0,-300 273,-469 563,-469 199,0 335,93 389,226 -45,22 -150,75 -184,98 -36,-150 -160,-228 -261,-228 -179,0 -300,175 -300,347 0,202 141,313 258,313 246,0 330,-171 332,-266 l 176,-24 c -4,215 -285,386 -564,386 -278,0 -409,-179 -409,-383 z"
       style="fill:#d45500" />
    <path
       id="path7971"
       d="m 6000,-6310.6378 c 0,-296 265,-467 552,-467 198,0 337,97 389,238 -38,18 -128,63 -157,83 -37,-154 -165,-238 -279,-238 -198,0 -329,181 -329,362 0,205 145,322 276,322 259,0 353,-179 355,-278 l 151,-20 c -3,201 -265,381 -553,381 -268,0 -405,-176 -405,-383 z"
       style="fill:currentColor" />
    <path
       id="path7969"
       d="m 4800,-6312.6378 c 0,-291 257,-464 541,-464 197,0 339,102 388,251 -32,15 -105,51 -130,67 -37,-159 -168,-249 -296,-249 -218,0 -358,188 -358,377 0,208 149,333 293,333 271,0 379,-187 380,-291 l 124,-16 c -3,186 -244,376 -541,376 -258,0 -401,-173 -401,-384 z"
       style="fill:currentColor" />
    <path
       id="path7967"
       d="m 3600,-6313.6378 c 0,-287 249,-462 530,-462 196,0 341,106 388,263 -25,11 -83,39 -103,52 -38,-163 -173,-259 -314,-259 -237,0 -387,194 -387,392 0,211 153,342 311,342 284,0 402,-195 403,-303 l 99,-12 c -2,172 -224,371 -530,371 -248,0 -397,-170 -397,-384 z"
       style="fill:#d45500" />
    <path
       id="path7965"
       d="m 2400,-6315.6378 c 0,-283 240,-459 519,-459 195,0 343,110 388,275 -18,8 -61,27 -76,36 -38,-167 -179,-268 -333,-268 -257,0 -414,199 -414,406 0,213 156,352 328,352 297,0 426,-202 427,-314 l 72,-8 c -1,158 -205,365 -519,365 -238,0 -392,-168 -392,-385 z"
       style="fill:currentColor" />
    <path
       id="path7963"
       d="m 1200,-6316.6378 c 0,-279 232,-457 508,-457 194,0 346,115 388,288 -12,4 -39,14 -49,20 -39,-172 -183,-279 -351,-279 -276,0 -443,207 -443,422 0,216 160,362 346,362 309,0 450,-210 450,-327 l 47,-4 c -1,144 -185,360 -508,360 -228,0 -388,-164 -388,-385 z"
       style="fill:currentColor" />
    <path
       id="path7961"
       d="m 10800,-6304.6378 c 0,-312 298,-477 596,-477 202,0 328,80 389,189 -65,32 -216,111 -265,145 -35,-137 -145,-198 -206,-198 -120,0 -215,157 -215,303 0,194 130,283 205,283 208,0 258,-148 261,-230 l 255,-36 c -6,257 -345,402 -598,402 -308,0 -422,-187 -422,-381 z"
       style="fill:currentColor" />
    <path
       id="path7948"
       d="m 0,-6318.6378 c 0,-275 224,-454 497,-454 193,0 348,119 388,300 -5,1 -17,3 -22,5 -39,-176 -188,-289 -369,-289 -296,0 -472,212 -472,436 0,219 164,372 364,372 322,0 474,-218 474,-339 l 20,0 c 0,130 -164,355 -496,355 -218,0 -384,-162 -384,-386 z"
       style="fill:currentColor" />
    <path
       style="fill:currentColor"
       d="m 10001,-6262.6378 c 0,-189 145,-288 357,-288 220,0 246,135 246,229 l -228,32 c 0,-78 -32,-155 -76,-158 -51,12 -80,72 -80,158 0,91 14,183 71,246 91,103 202,149 324,180 -24,21 -127,84 -160,95 -141,-18 -285,-108 -362,-221 -60,-87 -92,-186 -92,-273 z"
       id="path8637" />
    <path
       style="fill:currentColor"
       d="m 8806,-6261.6378 c 0,-183 139,-283 343,-283 210,0 240,132 240,227 l -203,28 c 0,-81 -34,-162 -88,-164 -61,10 -97,75 -97,168 0,94 16,185 75,251 89,100 200,148 324,180 -21,19 -112,75 -142,85 -141,-21 -280,-108 -357,-217 -62,-86 -95,-185 -95,-275 z"
       id="path8635" />
    <path
       style="fill:#d45500"
       d="m 7612,-6261.6378 c 0,-178 131,-278 328,-278 200,0 233,130 233,227 l -176,24 c 0,-85 -36,-168 -101,-170 -72,9 -115,77 -115,176 0,96 19,189 81,257 86,97 197,148 323,181 -19,17 -98,65 -124,74 -142,-24 -276,-107 -352,-212 -63,-86 -97,-186 -97,-279 z"
       id="path8633" />
    <path
       style="fill:currentColor"
       d="m 6417,-6261.6378 c 0,-172 125,-272 314,-272 190,0 227,127 227,225 l -151,20 c 0,-88 -38,-174 -113,-176 -83,7 -132,80 -132,186 0,98 21,192 85,262 84,94 195,147 323,181 -16,15 -83,56 -106,64 -142,-27 -271,-107 -347,-208 -65,-85 -100,-186 -100,-282 z"
       id="path8631" />
    <path
       style="fill:currentColor"
       d="m 5223,-6260.6378 c 0,-167 118,-268 300,-268 179,0 219,124 219,224 l -124,16 c 0,-91 -39,-180 -125,-181 -93,6 -151,81 -151,194 0,101 25,196 91,269 81,90 192,144 322,180 -14,12 -68,47 -87,54 -142,-29 -267,-107 -342,-204 -67,-85 -103,-184 -103,-284 z"
       id="path8629" />
    <path
       style="fill:#d45500"
       d="m 4028,-6260.6378 c 0,-161 112,-262 286,-262 169,0 213,121 213,222 l -99,12 c 0,-94 -41,-186 -137,-187 -104,4 -168,84 -168,204 0,103 27,199 95,274 79,87 190,143 322,180 -11,10 -53,38 -69,44 -142,-32 -262,-107 -337,-200 -69,-84 -106,-184 -106,-287 z"
       id="path8627" />
    <path
       style="fill:currentColor"
       d="m 2834,-6260.6378 c 0,-156 104,-257 271,-257 159,0 206,119 206,222 l -72,8 c 0,-98 -43,-192 -150,-193 -115,3 -186,86 -186,212 0,105 30,203 101,280 76,84 187,143 321,181 -9,8 -39,28 -51,33 -143,-35 -258,-106 -332,-195 -70,-84 -108,-185 -108,-291 z"
       id="path8625" />
    <path
       style="fill:currentColor"
       d="m 1639,-6259.6378 c 0,-150 98,-252 257,-252 149,0 200,116 200,220 l -47,4 c 0,-101 -45,-199 -162,-199 -125,1 -203,89 -203,222 0,108 32,205 105,285 74,81 185,142 321,181 -6,6 -24,19 -33,23 -143,-38 -253,-106 -327,-191 -72,-83 -111,-184 -111,-293 z"
       id="path8623" />
    <path
       style="fill:currentColor"
       d="m 11195,-6262.6378 c 0,-194 153,-293 372,-293 230,0 253,138 253,230 l -255,36 c 0,-75 -30,-150 -63,-153 -40,13 -62,71 -62,150 0,89 10,179 65,240 94,106 205,150 325,180 -26,23 -141,93 -178,105 -141,-15 -289,-108 -367,-225 -58,-87 -90,-186 -90,-270 z"
       id="path8621" />
    <path
       style="fill:currentColor"
       d="m 445,-6259.6378 c 0,-145 90,-247 242,-247 139,0 193,113 193,219 l -20,0 c 0,-104 -47,-204 -175,-204 -136,0 -221,90 -221,230 0,110 36,209 111,291 71,78 182,141 320,181 -4,4 -10,10 -15,13 -143,-41 -249,-106 -322,-187 -74,-83 -113,-184 -113,-296 z"
       id="path8608" />
  </g>
  <g
     style="display:none"
     inkscape:label="sS"
     id="layer3"
     inkscape:groupmode="layer">
    <g
       transform="matrix(1,0,0,-1,72.076361,1217.8218)"
       id="g6290" />
    <g
       transform="matrix(1,0,0,-1,9085.1746,1200)"
       id="g6433" />
    <g
       transform="matrix(1,0,0,-1,-12,1545)"
       id="g6561" />
    <g
       transform="matrix(1,0,0,-1,10,1838)"
       id="g6586" />
    <path
       inkscape:connector-curvature="0"
       style="fill:currentColor"
       d="m 8000,763 c 0,-131 211,-186 376,-186 113,0 213,25 309,70 -33,28 -99,95 -126,125 -68,-34 -162,-82 -254,-82 -35,0 -59,17 -59,41 0,31 34,64 135,100 152,53 273,105 273,206 0,118 -195,186 -363,186 -114,0 -223,-29 -281,-58 23,-31 91,-93 126,-113 50,25 150,59 223,59 22,0 47,-15 47,-40 0,-47 -62,-64 -215,-118 -129,-46 -191,-117 -191,-190 z"
       id="path7014" />
    <path
       inkscape:connector-curvature="0"
       style="fill:currentColor"
       d="m 7000,758 c 0,-126 203,-180 363,-180 111,0 210,24 307,70 -29,25 -88,84 -112,111 -72,-36 -165,-80 -257,-80 -45,0 -83,20 -83,51 0,33 38,71 145,108 155,54 274,104 274,203 0,116 -189,181 -349,181 -110,0 -221,-30 -278,-58 21,-27 81,-82 112,-100 50,24 152,58 225,58 30,0 70,-19 70,-51 0,-50 -65,-70 -221,-125 -131,-46 -196,-117 -196,-188 z"
       id="path7012" />
    <path
       inkscape:connector-curvature="0"
       style="fill:#d45500"
       d="m 6000,753 c 0,-122 196,-174 350,-174 109,0 207,23 305,69 -26,22 -76,75 -97,98 -76,-37 -169,-78 -262,-78 -56,0 -107,23 -107,61 0,36 45,76 157,115 157,54 273,105 273,202 0,113 -183,175 -334,175 -107,0 -219,-29 -275,-57 18,-24 71,-72 98,-88 49,24 154,57 228,57 37,0 93,-21 93,-61 0,-54 -70,-78 -228,-133 -133,-47 -201,-116 -201,-186 z"
       id="path7010" />
    <path
       inkscape:connector-curvature="0"
       style="fill:currentColor"
       d="m 5000,748 c 0,-117 188,-168 337,-168 107,0 204,23 303,69 -22,19 -65,64 -83,84 -80,-39 -172,-76 -265,-76 -66,0 -131,26 -131,71 0,38 49,81 167,122 159,55 274,106 274,201 0,110 -177,169 -320,169 -103,0 -217,-30 -272,-57 15,-21 61,-61 84,-75 48,24 156,56 231,56 45,0 115,-24 115,-72 0,-57 -74,-84 -234,-140 -135,-47 -206,-116 -206,-184 z"
       id="path7008" />
    <path
       inkscape:connector-curvature="0"
       style="fill:currentColor"
       d="m 4000,744 c 0,-113 179,-163 323,-163 106,0 202,22 302,69 -18,15 -55,52 -69,69 -85,-40 -176,-73 -269,-73 -76,0 -154,30 -154,81 0,40 54,88 178,130 162,55 274,105 274,198 0,108 -171,164 -306,164 -99,0 -215,-29 -269,-56 13,-17 49,-53 69,-64 48,23 159,56 234,55 53,-1 138,-26 138,-81 0,-60 -77,-92 -240,-148 -138,-48 -211,-114 -211,-181 z"
       id="path7006" />
    <path
       inkscape:connector-curvature="0"
       style="fill:#d45500"
       d="m 3000,739 c 0,-108 171,-157 310,-157 104,0 199,22 300,69 -14,12 -44,41 -55,55 -89,-42 -179,-71 -272,-71 -86,0 -178,33 -178,91 0,42 58,93 188,137 164,56 275,106 275,197 0,105 -165,158 -292,158 -95,0 -213,-30 -266,-56 10,-14 39,-42 55,-51 47,23 161,55 237,54 61,-1 160,-29 160,-92 0,-63 -81,-98 -246,-155 -140,-48 -216,-114 -216,-179 z"
       id="path7004" />
    <path
       inkscape:connector-curvature="0"
       style="fill:currentColor"
       d="m 2000,734 c 0,-104 164,-151 297,-151 102,0 196,21 298,68 -11,9 -32,32 -40,42 -93,-43 -183,-69 -277,-69 -97,0 -202,36 -202,101 0,45 65,98 200,144 166,56 274,107 274,196 0,102 -159,152 -277,152 -92,0 -211,-29 -263,-55 7,-11 29,-32 41,-39 46,23 163,54 240,53 68,-1 183,-31 183,-102 0,-67 -86,-106 -253,-163 -142,-49 -221,-113 -221,-177 z"
       id="path7002" />
    <path
       inkscape:connector-curvature="0"
       style="fill:currentColor"
       d="m 1000,729 c 0,-99 156,-145 284,-145 100,0 193,20 296,68 -7,6 -21,21 -26,28 -97,-45 -186,-67 -280,-67 -107,0 -226,39 -226,111 0,47 69,105 210,152 169,57 275,106 275,193 0,100 -153,147 -263,147 -88,0 -209,-30 -260,-55 5,-7 19,-21 27,-26 46,22 165,53 242,52 76,-1 206,-35 206,-113 0,-70 -89,-112 -259,-170 -144,-49 -226,-113 -226,-175 z"
       id="path7000" />
    <path
       inkscape:connector-curvature="0"
       style="fill:currentColor"
       d="m 9000,768 c 0,-135 219,-192 389,-192 115,0 216,25 311,70 -37,31 -110,106 -140,139 -64,-33 -158,-84 -250,-84 -25,0 -36,14 -36,31 0,29 29,59 124,93 150,53 273,104 273,207 0,121 -201,192 -377,192 -118,0 -225,-30 -284,-59 26,-34 101,-103 140,-125 51,25 148,60 220,60 14,0 25,-13 25,-30 0,-44 -58,-56 -209,-110 -127,-45 -186,-118 -186,-192 z"
       id="path6998" />
    <path
       inkscape:connector-curvature="0"
       style="fill:currentColor"
       d="m 0,724 c 0,-95 148,-139 271,-139 98,0 190,20 294,68 -3,3 -10,10 -12,14 C 452,621 363,602 269,602 152,602 20,644 20,723 c 0,49 74,110 221,159 171,57 275,107 275,192 0,97 -147,141 -249,141 -84,0 -207,-29 -257,-54 2,-4 9,-11 13,-14 45,22 167,52 245,51 84,-1 228,-37 228,-123 C 496,1002 403,955 231,897 85,847 0,785 0,724 Z"
       id="path6985" />
    <g
       id="g7174"
       transform="matrix(1,0,0,-1,9025,200)" />
    <path
       inkscape:connector-curvature="0"
       id="path7686"
       d="m 8000,-399 c 0,-143 195,-234 436,-234 145,0 264,35 379,94 -38,29 -108,94 -139,130 -84,-46 -173,-93 -319,-94 -38,0 -94,23 -94,72 0,43 59,86 200,139 193,73 329,145 329,281 0,160 -238,234 -412,234 -139,0 -287,-45 -355,-83 35,-43 100,-102 153,-139 85,52 161,92 265,92 45,0 89,-23 89,-72 0,-59 -69,-92 -260,-164 -169,-63 -272,-152 -272,-256 z"
       style="fill:currentColor" />
    <path
       inkscape:connector-curvature="0"
       id="path7684"
       d="m 7000,-404 c 0,-140 191,-228 423,-228 142,0 260,33 377,93 -33,26 -96,84 -123,116 -89,-48 -182,-92 -324,-93 -51,0 -120,25 -120,83 0,46 63,95 209,149 197,74 333,145 333,278 0,156 -229,228 -399,228 -135,0 -284,-43 -351,-81 31,-38 89,-91 136,-124 82,50 166,89 270,89 56,0 113,-27 113,-83 0,-65 -75,-102 -270,-175 -170,-63 -274,-151 -274,-252 z"
       style="fill:currentColor" />
    <path
       inkscape:connector-curvature="0"
       id="path7682"
       d="m 6000,-409 c 0,-138 188,-222 410,-222 140,0 257,33 375,93 -29,23 -83,73 -107,101 -95,-50 -189,-92 -328,-93 -63,0 -148,30 -148,96 0,49 68,102 219,158 200,75 336,144 336,275 0,151 -219,222 -386,222 -131,0 -278,-43 -345,-80 27,-33 77,-80 118,-108 78,47 172,87 275,87 68,0 138,-33 138,-96 0,-70 -82,-110 -282,-184 -172,-64 -275,-151 -275,-249 z"
       style="fill:#d45500" />
    <path
       inkscape:connector-curvature="0"
       id="path7680"
       d="m 5000,-414 c 0,-136 185,-216 397,-216 137,0 253,32 373,93 -25,20 -71,62 -91,86 -100,-52 -197,-91 -332,-92 -75,0 -175,33 -175,108 0,52 72,110 228,167 204,76 340,144 340,272 0,146 -210,216 -373,216 -127,0 -275,-43 -341,-79 23,-28 66,-68 101,-92 75,44 178,84 280,84 79,0 162,-38 162,-108 0,-76 -88,-119 -292,-194 -174,-64 -277,-150 -277,-245 z"
       style="fill:currentColor" />
    <path
       inkscape:connector-curvature="0"
       id="path7678"
       d="m 4000,-420 c 0,-133 181,-209 384,-209 134,0 249,31 371,92 -20,16 -59,53 -76,73 -105,-55 -204,-92 -336,-92 -88,0 -201,36 -201,119 0,56 77,118 237,177 208,77 343,145 343,270 0,142 -200,209 -360,209 -122,0 -271,-41 -336,-77 18,-23 56,-57 84,-77 71,42 183,81 285,81 91,0 186,-43 186,-119 0,-81 -94,-127 -302,-204 -175,-64 -279,-151 -279,-243 z"
       style="fill:currentColor" />
    <path
       inkscape:connector-curvature="0"
       id="path7676"
       d="m 3000,-425 c 0,-131 178,-203 371,-203 131,0 245,30 369,92 -16,13 -47,42 -60,58 -110,-57 -212,-91 -340,-91 -100,0 -228,39 -228,131 0,59 81,126 246,186 212,78 347,145 347,267 0,137 -191,203 -347,203 -118,0 -268,-41 -332,-76 14,-18 45,-45 67,-61 68,39 189,78 290,78 102,0 210,-48 210,-131 0,-87 -100,-136 -312,-214 -177,-64 -281,-150 -281,-239 z"
       style="fill:#d45500" />
    <path
       inkscape:connector-curvature="0"
       id="path7674"
       d="m 2000,-430 c 0,-129 175,-197 358,-197 129,0 242,30 367,92 -12,10 -34,31 -44,43 -116,-59 -219,-91 -344,-91 -112,0 -256,44 -256,144 0,62 86,133 256,195 215,79 350,144 350,264 0,132 -181,197 -334,197 -114,0 -262,-41 -326,-75 10,-13 33,-34 49,-45 64,36 195,76 295,76 114,0 235,-54 235,-144 0,-92 -107,-144 -324,-223 -179,-65 -282,-150 -282,-236 z"
       style="fill:currentColor" />
    <path
       inkscape:connector-curvature="0"
       id="path7672"
       d="m 1000,-435 c 0,-126 171,-191 345,-191 126,0 238,28 365,91 -7,7 -22,21 -28,29 -121,-61 -228,-90 -349,-90 -125,0 -282,46 -282,155 0,65 90,142 265,205 219,80 354,144 354,261 0,128 -172,191 -321,191 -110,0 -259,-39 -322,-73 6,-8 22,-23 32,-30 61,34 200,73 300,73 125,0 259,-58 259,-155 0,-98 -113,-154 -334,-234 -180,-65 -284,-149 -284,-232 z"
       style="fill:currentColor" />
    <path
       inkscape:connector-curvature="0"
       id="path7670"
       d="m 9000,-394 c 0,-145 198,-240 449,-240 148,0 268,35 381,94 -42,32 -121,105 -155,145 -79,-44 -166,-94 -315,-95 -26,0 -67,19 -67,60 0,40 55,79 191,130 189,72 326,145 326,284 0,165 -248,240 -425,240 -143,0 -291,-45 -360,-84 39,-48 111,-114 170,-155 89,55 155,95 260,95 33,0 65,-18 65,-60 0,-54 -63,-84 -250,-155 -167,-63 -270,-152 -270,-259 z"
       style="fill:currentColor" />
    <path
       inkscape:connector-curvature="0"
       id="path7657"
       d="m 0,-440 c 0,-124 168,-185 332,-185 123,0 234,28 363,91 -3,4 -9,10 -12,14 -126,-63 -235,-89 -353,-89 -137,0 -309,50 -309,167 0,68 94,149 274,214 223,81 357,144 357,258 0,123 -162,185 -308,185 -106,0 -255,-39 -317,-72 2,-3 11,-11 15,-14 57,31 206,70 305,70 C 484,199 630,136 630,32 630,-71 511,-130 286,-211 104,-276 0,-360 0,-440 Z"
       style="fill:currentColor" />
  </g>
  <g
     style="display:none"
     inkscape:label="ftl"
     id="layer4"
     inkscape:groupmode="layer">
    <path
       inkscape:connector-curvature="0"
       id="path21732"
       d="m 0,626 c 0,-3 2,-12 3,-15 103,4 251,9 432,13 -1,3 -3,12 -3,15 C 242,632 99,628 0,626 Z"
       style="display:inline;fill:currentColor" />
    <path
       inkscape:connector-curvature="0"
       id="path21730"
       d="m 9000,730 c 7,-38 18,-93 30,-130 158,8 377,10 539.9997,10 -8,29 -25,107 -30,130 C 9420,736 9156,730 9000,730 Z"
       style="display:inline;fill:currentColor" />
    <path
       inkscape:connector-curvature="0"
       id="path21728"
       d="M 999.99999,638 C 1001,631 1004,617 1006,610 c 109,4 265,8 444,12 -2,6 -5,23 -6,28 -182,-7 -339,-10 -444.00001,-12 z"
       style="display:inline;fill:currentColor" />
    <path
       inkscape:connector-curvature="0"
       id="path21726"
       d="m 2000,649 c 2,-11 6,-29 9,-40 115,5 279,9 456,12 -3,9 -8,33 -9,40 -174,-6 -344,-10 -456,-12 z"
       style="display:inline;fill:currentColor" />
    <path
       inkscape:connector-curvature="0"
       id="path21724"
       d="m 3000,661 c 2,-15 7,-40 12,-54 121,5 293,9 468,12 -3,12 -10,44 -12,54 -167,-6 -350,-11 -468,-12 z"
       style="display:inline;fill:#d45500" />
    <path
       inkscape:connector-curvature="0"
       id="path21722"
       d="m 4000,672 c 3,-19 9,-48 15,-66 127,6 307,10 480,12 -4,15 -13,54 -15,66 -159,-6 -356,-11 -480,-12 z"
       style="display:inline;fill:currentColor" />
    <path
       inkscape:connector-curvature="0"
       id="path21720"
       d="m 5000,684 c 4,-22 11,-57 18,-79 134,6 321,9 492,11 -5,17 -15,65 -18,79 -151,-5 -361,-10 -492,-11 z"
       style="display:inline;fill:currentColor" />
    <path
       inkscape:connector-curvature="0"
       id="path21718"
       d="m 6000,695 c 5,-26 13,-65 21,-91 140,7 335,10 504,11 -6,20 -18,75 -21,91 -143,-5 -367,-10 -504,-11 z"
       style="display:inline;fill:#d45500" />
    <path
       inkscape:connector-curvature="0"
       id="path21716"
       d="m 7000,707 c 5,-30 14,-76 24,-105 146,7 349,10 516,11 -6,23 -20,86 -24,105 -136,-5 -373,-11 -516,-11 z"
       style="display:inline;fill:currentColor" />
    <path
       inkscape:connector-curvature="0"
       id="path21703"
       d="m 8000,718 c 6,-34 16,-84 27,-117 152,8 363,11 528,11 -7,26 -23,96 -27,117 -128,-4 -378,-11 -528,-11 z"
       style="display:inline;fill:currentColor" />
    <path
       inkscape:connector-curvature="0"
       style="display:inline;fill:currentColor"
       d="m 70,1202 c 22,-177 52,-420 52,-632 0,-110 69,-195 211,-195 82,0 138,22 171.99999,46 -2,2 -11,9 -13,11 C 461,411 411,390 331,390 c -126,0 -189,79 -189,180 0,213 -30,455 -50,632 -1,0 -7,1 -11,1 -4,0 -9,-1 -11,-1 z"
       id="path24959" />
    <path
       inkscape:connector-curvature="0"
       style="display:inline;fill:currentColor"
       d="m 9070,1200 c 25,-165 51,-356 52,-612 1,-168 184,-222 320,-222 110.9997,0 167.9997,30 197.9997,52 -25,22 -96,102 -118,131 -21,-10 -86.9997,-38 -119.9997,-40 -13,2 -15,32 -15,57 0,286 -12,454 -37,640 -15,3 -100,6 -148,6 -44,0 -114,-6 -132,-12 z"
       id="path24957" />
    <path
       inkscape:connector-curvature="0"
       style="display:inline;fill:currentColor"
       d="m 1070,1202 c 22,-176 52,-413 52,-630 0,-116 82,-198 223,-198 85,0 141,23 175,47 -5,4 -21,19 -25,24 -30,-20 -81,-42 -156,-42 -113,0 -170,74 -170,167 0,221 -27,454 -48,632 -3,0 -18,2 -27,2 -8,0 -20,-1 -24,-2 z"
       id="path24955" />
    <path
       inkscape:connector-curvature="0"
       style="display:inline;fill:currentColor"
       d="m 2070,1202 c 23,-174 52,-406 52,-628 0,-123 94,-201 235,-201 88,0 145,23 178,47 -7,6 -30,30 -36,38 -29,-19 -82,-42 -152,-42 -101,0 -151,69 -151,153 0,229 -26,455 -47,634 -4,1 -27,2 -41,2 -13,0 -32,-2 -38,-3 z"
       id="path24953" />
    <path
       inkscape:connector-curvature="0"
       style="display:inline;fill:#d45500"
       d="m 3070,1201 c 23,-173 52,-398 52,-625 0,-129 107,-204 247,-204 92,0 148,25 181,48 -10,9 -39,40 -48,51 -28,-17 -83,-40 -147,-41 -88,1 -131,63 -131,139 0,237 -24,454 -46,634 -6,1 -38,3 -57,3 -17,0 -44,-3 -51,-5 z"
       id="path24951" />
    <path
       inkscape:connector-curvature="0"
       style="display:inline;fill:currentColor"
       d="m 4070,1201 c 23,-172 52,-391 52,-623 0,-136 120,-207 259,-207 95,0 152,26 184,49 -12,11 -49,50 -60,64 -27,-16 -83,-40 -142,-41 -76,1 -112,58 -112,125 0,245 -22,455 -44,636 -7,1 -48,3 -72,3 -22,0 -56,-3 -65,-6 z"
       id="path24949" />
    <path
       inkscape:connector-curvature="0"
       style="display:inline;fill:currentColor"
       d="m 5070,1201 c 24,-170 51,-385 52,-621 1,-142 133,-210 272,-210 98,0 154,26 186,49 -15,13 -58,61 -71,78 -25,-15 -85,-40 -139,-41 -63,1 -92,53 -92,112 0,254 -20,454 -43,636 -9,2 -59,4 -87,4 -26,0 -67,-4 -78,-7 z"
       id="path24947" />
    <path
       inkscape:connector-curvature="0"
       style="display:inline;fill:#d45500"
       d="m 6070,1201 c 24,-169 51,-378 52,-619 1,-149 146,-213 284,-213 101,0 158,27 189,50 -17,15 -68,71 -83,91 -24,-14 -85,-40 -134,-41 -51,1 -73,48 -73,98 0,262 -18,455 -41,638 -10,2 -69,4 -102,4 -31,0 -79,-4 -92,-8 z"
       id="path24945" />
    <path
       inkscape:connector-curvature="0"
       style="display:inline;fill:currentColor"
       d="m 7070,1200 c 24,-168 51,-370 52,-616 1,-155 159,-216 296,-216 105,0 161,29 192,51 -20,18 -77,81 -95,104 -23,-12 -86,-38 -129,-40 -38,2 -53,42 -53,84 0,270 -16,454 -40,638 -12,2 -80,5 -118,5 -35,0 -91,-5 -105,-10 z"
       id="path24943" />
    <path
       inkscape:connector-curvature="0"
       style="display:inline;fill:currentColor"
       d="m 8070,1200 c 25,-166 51,-363 52,-614 1,-162 171,-219 308,-219 108,0 165,29 195,51 -22,20 -86,92 -106,118 -22,-11 -87,-38 -125,-40 -26,2 -34,37 -34,70 0,278 -15,455 -39,640 -13,3 -89,5 -132,5 -40,0 -103,-6 -119,-11 z"
       id="path24930" />
    <path
       style="display:inline;fill:currentColor"
       d="m 9000,-270 c 7,-38 18,-93 30,-130.00001 158,8 377,10 539.9997,10 -8,29.00001 -25,107.00001 -30,130.00001 C 9420,-264 9156,-270 9000,-270 Z"
       id="path25077"
       inkscape:connector-curvature="0" />
    <path
       style="display:inline;fill:currentColor"
       d="m 0,-374.00001 c 0,-3 2,-12 3,-15 103,4 251,9 432,13 -1,3 -3,12.00001 -3,15.00001 -190,-7.00001 -333,-11.00001 -432,-13.00001 z"
       id="path25102"
       inkscape:connector-curvature="0" />
    <path
       style="display:inline;fill:currentColor"
       d="M 999.99999,-362 C 1001,-369.00001 1004,-383.00001 1006,-390.00001 c 109,4 265,8 444,12 -2,6 -5,23.00001 -6,28.00001 -182,-7 -339,-10 -444.00001,-12 z"
       id="path25133"
       inkscape:connector-curvature="0" />
    <path
       style="display:inline;fill:currentColor"
       d="m 2000,-351 c 2,-11 6,-29.00001 9,-40.00001 115,5 279,9 456,12 -3,9 -8,33.00001 -9,40.00001 -174,-6 -344,-10 -456,-12 z"
       id="path25135"
       inkscape:connector-curvature="0" />
    <path
       style="display:inline;fill:#d45500"
       d="m 3000,-339 c 2,-15 7,-40.00001 12,-54.00001 121,5 293,9 468,12 -3,12 -10,44.00001 -12,54.00001 -167,-6 -350,-11 -468,-12 z"
       id="path25137"
       inkscape:connector-curvature="0" />
    <path
       style="display:inline;fill:currentColor"
       d="m 4000,-328 c 3,-19 9,-48.00001 15,-66.00001 127,6 307,10 480,12 C 4491,-367 4482,-328 4480,-316 c -159,-6 -356,-11 -480,-12 z"
       id="path25139"
       inkscape:connector-curvature="0" />
    <path
       style="display:inline;fill:currentColor"
       d="m 5000,-316 c 4,-22 11,-57.00001 18,-79.00001 134,6 321,9 492,11 C 5505,-367 5495,-319 5492,-305 c -151,-5 -361,-10 -492,-11 z"
       id="path25141"
       inkscape:connector-curvature="0" />
    <path
       style="display:inline;fill:#d45500"
       d="m 6000,-305 c 5,-26 13,-65.00001 21,-91.00001 140,7 335,10 504,11 C 6519,-365 6507,-310 6504,-294 c -143,-5 -367,-10 -504,-11 z"
       id="path25143"
       inkscape:connector-curvature="0" />
    <path
       style="display:inline;fill:currentColor"
       d="m 7000,-293 c 5,-30 14,-76.00001 24,-105.00001 146,7 349,10 516,11 C 7534,-364 7520,-301 7516,-282 c -136,-5 -373,-11 -516,-11 z"
       id="path25145"
       inkscape:connector-curvature="0" />
    <path
       style="display:inline;fill:currentColor"
       d="m 8000,-282 c 6,-34 16,-84 27,-117.00001 152,8 363,11 528,11 C 8548,-362 8532,-292 8528,-271 c -128,-4 -378,-11 -528,-11 z"
       id="path25147"
       inkscape:connector-curvature="0" />
    <path
       inkscape:connector-curvature="0"
       id="path28447"
       d="m 9070,70 c 0,-182 59,-370 70,-578.00001 75,-13 206,-24 278,-24 C 9381,-301 9345,-103 9345,20 c 0,32 9,48 22,53 32,0 90,-26 122.9997,-48 16,28 68,87 90,105 -48,42 -156.9997,94 -294.9997,94 -182,0 -215,-88 -215,-154 z"
       style="display:inline;fill:currentColor" />
    <path
       inkscape:connector-curvature="0"
       id="path28445"
       d="m 70,76 c 0,-186 70,-371 95,-596.00001 5,-1 17,-3 21,-3 C 158,-301 91,-111 91,74 c 0,74 66,126 167,126 82,0 135,-20 177,-41 l 10,14 C 400,196 342,215 254,215 144,215 70,157 70,76 Z"
       style="display:inline;fill:currentColor" />
    <path
       inkscape:connector-curvature="0"
       id="path28443"
       d="m 8070,71 c 0,-182 60,-370 73,-580.00001 67,-12 185,-22 249,-22 C 8356,-301 8317,-104 8317,26 c 0,37 15,57 38,61 38,0 95,-25 129,-47 14,25 61,79 81,95 -48,40 -151,88 -283,88 -174,0 -212,-84 -212,-152 z"
       style="display:inline;fill:currentColor" />
    <path
       inkscape:connector-curvature="0"
       id="path28441"
       d="m 7070,71 c 0,-183 62,-370 76,-582.00001 59,-10 163,-19 220,-19 C 7331,-301 7289,-105 7289,32 c 0,41 21,65 54,69 43,0 100,-24 135,-46 12,22 55,71 72,85 -47,38 -145,82 -272,82 -166,0 -208,-82 -208,-151 z"
       style="display:inline;fill:currentColor" />
    <path
       inkscape:connector-curvature="0"
       id="path28439"
       d="m 6070,72 c 0,-183 62,-370 78,-584.00001 52,-9 144,-17 193,-17 C 6307,-301 6260,-106 6260,38 c 0,46 29,74 71,77 49,0 105,-23 141,-45 11,19 48,62 63,74 -47,36 -139,77 -260,77 -158,0 -205,-78 -205,-149 z"
       style="display:inline;fill:#d45500" />
    <path
       inkscape:connector-curvature="0"
       id="path28437"
       d="m 5070,73 c 0,-184 64,-370 81,-586.00001 44,-8 122,-15 164,-15 C 5282,-301 5232,-107 5232,44 c 0,51 35,82 87,85 54,0 110,-22 147,-44 9,16 42,54 54,64 -47,34 -133,71 -249,71 -150,0 -201,-74 -201,-147 z"
       style="display:inline;fill:currentColor" />
    <path
       inkscape:connector-curvature="0"
       id="path28435"
       d="m 4070,73 c 0,-184 65,-371 84,-588.00001 36,-6 101,-12 135,-12 C 4257,-301 4204,-107 4204,50 c 0,55 40,92 102,94 60,0 115,-24 153,-45 7,12 36,47 46,55 -46,31 -127,65 -237,65 -142,0 -198,-72 -198,-146 z"
       style="display:inline;fill:currentColor" />
    <path
       inkscape:connector-curvature="0"
       id="path28433"
       d="m 3070,74 c 0,-185 67,-371 87,-590.00001 28,-5 79,-10 106,-10 C 3232,-301 3176,-108 3176,56 c 0,60 46,100 118,102 65,0 120,-23 159,-44 5,9 30,39 37,45 -46,29 -121,59 -226,59 -134,0 -194,-68 -194,-144 z"
       style="display:inline;fill:#d45500" />
    <path
       inkscape:connector-curvature="0"
       id="path28431"
       d="m 2070,75 c 0,-185 67,-371 89,-592.00001 21,-4 60,-8 79,-8 C 2208,-301 2147,-109 2147,62 c 0,65 54,109 135,110 71,0 125,-22 165,-43 4,6 23,30 28,34 -46,27 -115,54 -214,54 -126,0 -191,-64 -191,-142 z"
       style="display:inline;fill:currentColor" />
    <path
       inkscape:connector-curvature="0"
       id="path28418"
       d="m 1070,75 c 0,-186 69,-371 92,-594.00001 13,-2 38,-5 50,-5 C 1183,-301 1119,-110 1119,68 c 0,69 60,117 151,118 76,0 130,-21 171,-42 2,3 17,22 19,24 -45,25 -109,48 -203,48 -118,0 -187,-62 -187,-141 z"
       style="display:inline;fill:currentColor" />
    <g
       transform="matrix(1,0,0,-1,9639.7441,200)"
       id="g3610" />
    <g
       transform="matrix(1.4713936,0,0,-1.4713936,7590.5435,-785.94279)"
       id="g3686" />
    <path
       style="fill:currentColor"
       d="m 8000,-927 c 0,-180 52,-450 60,-672 14,-11 78,-22 142,-22 52,0 98,3 108,5 -8,227 -61,482 -61,654 0,27 8,45 25,49 27,-5 65,-24 81,-36 8,23 50,92 65,108 -41,27 -128,64 -235,64 -174,0 -185,-90 -185,-150 z"
       id="path4276"
       inkscape:connector-curvature="0" />
    <path
       style="fill:currentColor"
       d="m 7000,-924 c 0,-180 55,-454 64,-677 13,-10 68,-19 125,-19 46,0 86,3 95,5 -9,228 -63,486 -63,660 0,31 13,53 37,56 32,-5 71,-23 89,-36 7,21 45,82 58,97 -40,26 -123,60 -226,60 -163,0 -179,-85 -179,-146 z"
       id="path4274"
       inkscape:connector-curvature="0" />
    <path
       style="fill:#d45500"
       d="m 6000,-921 c 0,-181 58,-456 67,-681 11,-8 61,-17 110,-17 40,0 74,2 82,4 -9,229 -67,492 -67,667 0,36 19,60 49,63 37,-4 78,-22 98,-35 7,18 39,71 51,84 -40,25 -118,57 -216,57 -153,0 -174,-80 -174,-142 z"
       id="path4272"
       inkscape:connector-curvature="0" />
    <path
       style="fill:currentColor"
       d="m 5000,-918 c 0,-182 60,-460 70,-686 10,-7 52,-14 94,-14 34,0 63,2 70,4 -10,230 -71,496 -71,673 0,41 25,68 62,70 42,-3 84,-21 106,-35 6,16 34,61 44,72 -39,24 -112,54 -206,54 -142,0 -169,-75 -169,-138 z"
       id="path4270"
       inkscape:connector-curvature="0" />
    <path
       style="fill:currentColor"
       d="m 4000,-916 c 0,-182 64,-461 74,-689 8,-6 42,-12 77,-12 27,0 52,2 57,3 -10,231 -73,502 -73,680 0,45 30,76 74,78 47,-3 91,-21 115,-36 5,13 27,51 36,61 -38,24 -108,50 -197,50 -131,0 -163,-71 -163,-135 z"
       id="path4268"
       inkscape:connector-curvature="0" />
    <path
       style="fill:#d45500"
       d="m 3000,-913 c 0,-183 66,-465 77,-694 7,-5 33,-9 61,-9 21,0 41,2 45,3 -11,232 -77,506 -77,686 0,50 36,84 87,85 52,-2 97,-20 123,-36 4,11 22,41 29,49 -37,23 -102,47 -187,47 -120,0 -158,-66 -158,-131 z"
       id="path4266"
       inkscape:connector-curvature="0" />
    <path
       style="fill:currentColor"
       d="m 2000,-910 c 0,-184 69,-467 80,-698 5,-3 26,-7 46,-7 15,0 29,1 32,2 -11,233 -81,512 -81,693 0,55 42,91 99,92 57,-1 104,-19 132,-35 4,8 16,30 22,36 -37,22 -97,44 -177,44 -110,0 -153,-61 -153,-127 z"
       id="path4264"
       inkscape:connector-curvature="0" />
    <path
       style="fill:currentColor"
       d="m 1000,-907 c 0,-184 72,-471 84,-703 4,-2 16,-4 29,-4 9,0 17,1 19,2 -12,234 -83,516 -83,699 0,59 47,99 111,99 62,-1 110,-18 140,-35 3,6 11,20 15,25 -36,21 -92,40 -168,40 -99,0 -147,-56 -147,-123 z"
       id="path4262"
       inkscape:connector-curvature="0" />
    <path
       style="fill:currentColor"
       d="m 9000,-930 c 0,-179 49,-448 57,-668 16,-12 87,-24 158,-24 58,0 109,4 120,6 -8,226 -57,476 -57,647 0,22 2,38 12,42 22,-6 59,-25 73,-36 9,26 56,102 72,120 -42,28 -133,67 -245,67 -185,0 -190,-95 -190,-154 z"
       id="path4260"
       inkscape:connector-curvature="0" />
    <path
       style="fill:currentColor"
       d="m 0,-904 c 0,-185 75,-473 87,-707 2,-1 7,-2 13,-2 3,0 6,0 7,1 -12,235 -87,522 -87,706 0,64 53,106 124,106 67,0 116,-17 148,-35 2,3 5,10 8,13 -35,20 -87,37 -158,37 C 54,-785 0,-836 0,-904 Z"
       id="path4247"
       inkscape:connector-curvature="0" />
  </g>
  <g
     style="display:none"
     inkscape:label="B"
     id="layer2"
     inkscape:groupmode="layer">
    <path
       inkscape:connector-curvature="0"
       style="display:inline;fill:currentColor"
       d="m 10850,1136 c 13,-131 51,-270 53,-456 0,-10 -1,-35 -1,-55 64,-10 215,-35 277,-45 0,9 1,44 1,54 0,134 -45,440 -55,526 z"
       id="path12136" />
    <path
       inkscape:connector-curvature="0"
       style="display:inline;fill:currentColor"
       d="m 50,1167 c 19,-130 59,-356 61,-531 0,-11 -1,-27 -2,-35 5,0 18,-3 22,-4 1,8 2,26 2,37 0,154 -43,436 -61,539 z"
       id="path12134" />
    <path
       inkscape:connector-curvature="0"
       style="display:inline;fill:currentColor"
       d="m 1250,1164 c 18,-130 58,-347 60,-523 0,-11 -1,-28 -2,-37 12,-1 41,-7 51,-9 1,8 1,28 1,39 0,152 -43,437 -60,538 z"
       id="path12132" />
    <path
       inkscape:connector-curvature="0"
       style="display:inline;fill:currentColor"
       d="m 2450,1160 c 18,-130 57,-337 59,-514 0,-11 -1,-29 -2,-40 18,-2 62,-10 79,-13 1,8 2,30 2,41 0,150 -44,437 -60,536 z"
       id="path12130" />
    <path
       inkscape:connector-curvature="0"
       style="display:inline;fill:#d45500"
       d="m 3650,1157 c 17,-130 56,-327 58,-506 0,-11 0,-30 -1,-42 25,-3 84,-14 107,-18 1,8 1,32 1,43 0,147 -44,438 -59,535 z"
       id="path12128" />
    <path
       inkscape:connector-curvature="0"
       style="display:inline;fill:currentColor"
       d="m 4850,1153 c 16,-130 55,-317 57,-497 0,-11 0,-31 -1,-44 31,-4 105,-18 135,-23 1,8 2,34 2,45 0,145 -45,438 -59,533 z"
       id="path12126" />
    <path
       inkscape:connector-curvature="0"
       style="display:inline;fill:currentColor"
       d="m 6050,1150 c 16,-131 55,-309 57,-490 0,-10 -2,-31 -2,-46 38,-6 128,-20 164,-26 0,9 1,36 1,46 0,143 -43,438 -57,532 z"
       id="path12124" />
    <path
       inkscape:connector-curvature="0"
       style="display:inline;fill:#d45500"
       d="m 7250,1146 c 15,-131 54,-299 56,-481 0,-10 -2,-32 -2,-48 44,-7 149,-24 192,-31 0,9 2,38 2,48 0,141 -44,438 -57,530 z"
       id="path12122" />
    <path
       inkscape:connector-curvature="0"
       style="display:inline;fill:currentColor"
       d="m 8450,1143 c 14,-131 53,-289 55,-473 0,-10 -1,-33 -1,-50 51,-8 171,-28 220,-36 0,9 1,40 1,50 0,138 -44,439 -56,529 z"
       id="path12120" />
    <path
       inkscape:connector-curvature="0"
       style="display:inline;fill:currentColor"
       d="m 9650,1139 c 14,-131 52,-279 54,-464 0,-10 -1,-34 -1,-53 57,-9 192,-31 248,-40 0,9 2,42 2,52 0,136 -45,439 -56,527 z"
       id="path12107" />
    <path
       inkscape:connector-curvature="0"
       id="path17961"
       d="m 10800,480 c 124,-55 336,-114 571,-114 166,0 329,52 329,184 0,195 -404,288 -600,320 -35,-7 -66,-64 -70,-100 130,-26 378,-54 378,-193 0,-66 -64,-87 -127,-87 -158,0 -298,50 -406,99 -22,-18 -60,-75 -75,-109 z"
       style="display:inline;fill:currentColor" />
    <path
       inkscape:connector-curvature="0"
       id="path17959"
       d="m 0,467 c 190,-65 342,-92 459,-92 135,0 286,34 286,158 0,190 -327,250 -518,285 -5,-1 -10,-8 -12,-13 C 366,773 722,717 722,535 722,423 578,392 456,392 344,392 196,418 7,483 3,481 1,472 0,467 Z"
       style="display:inline;fill:currentColor" />
    <path
       inkscape:connector-curvature="0"
       id="path17957"
       d="m 1200,468 c 183,-64 341,-94 471,-94 138,0 291,36 291,161 0,191 -335,254 -527,289 -8,-2 -16,-15 -18,-23 149,-31 492,-84 492,-261 0,-107 -135,-137 -250,-137 -117,0 -264,29 -444,92 -6,-4 -12,-19 -15,-27 z"
       style="display:inline;fill:currentColor" />
    <path
       inkscape:connector-curvature="0"
       id="path17955"
       d="m 2400,470 c 175,-63 341,-97 484,-97 142,0 295,38 295,164 0,191 -344,259 -536,293 -12,-2 -23,-21 -25,-33 146,-31 479,-81 479,-253 0,-102 -126,-130 -235,-130 -122,0 -269,32 -440,93 -8,-6 -18,-26 -22,-37 z"
       style="display:inline;fill:currentColor" />
    <path
       inkscape:connector-curvature="0"
       id="path17953"
       d="m 3600,471 c 168,-62 340,-99 496,-99 145,0 301,40 301,167 0,192 -353,262 -546,296 -15,-3 -28,-27 -31,-42 144,-30 464,-76 464,-244 0,-97 -118,-124 -220,-124 -127,0 -272,33 -434,93 -10,-7 -24,-32 -30,-47 z"
       style="display:inline;fill:#d45500" />
    <path
       inkscape:connector-curvature="0"
       id="path17951"
       d="m 4800,473 c 161,-61 340,-102 509,-102 149,0 305,42 305,170 0,192 -362,266 -555,300 -18,-4 -34,-33 -37,-52 142,-29 449,-72 449,-235 0,-92 -108,-118 -204,-118 -132,0 -277,36 -430,94 -12,-9 -30,-39 -37,-57 z"
       style="display:inline;fill:currentColor" />
    <path
       inkscape:connector-curvature="0"
       id="path17949"
       d="m 6000,474 c 153,-59 338,-104 521,-104 152,0 310,44 310,172 0,193 -369,272 -563,305 -22,-4 -42,-39 -45,-61 139,-29 436,-70 436,-228 0,-86 -100,-112 -189,-112 -138,0 -281,40 -425,96 -14,-11 -36,-47 -45,-68 z"
       style="display:inline;fill:currentColor" />
    <path
       inkscape:connector-curvature="0"
       id="path17947"
       d="m 7200,476 c 146,-58 338,-107 534,-107 156,0 314,46 314,175 0,193 -378,276 -572,309 -25,-5 -48,-45 -51,-71 137,-28 421,-66 421,-219 0,-81 -90,-106 -173,-106 -143,0 -286,43 -421,97 -16,-13 -42,-54 -52,-78 z"
       style="display:inline;fill:#d45500" />
    <path
       inkscape:connector-curvature="0"
       id="path17945"
       d="m 8400,477 c 139,-57 337,-109 546,-109 159,0 320,48 320,178 0,194 -387,279 -582,312 -28,-6 -53,-51 -57,-80 135,-27 406,-61 406,-210 0,-76 -82,-100 -158,-100 -148,0 -289,44 -415,97 -18,-14 -48,-60 -60,-88 z"
       style="display:inline;fill:currentColor" />
    <path
       inkscape:connector-curvature="0"
       id="path17932-8"
       d="m 9600,479 c 131,-56 337,-112 559,-112 163,0 324,50 324,181 0,194 -396,284 -591,316 -32,-6 -60,-57 -64,-90 132,-27 393,-58 393,-202 0,-71 -73,-93 -143,-93 -153,0 -294,47 -411,98 -20,-16 -54,-67 -67,-98 z"
       style="display:inline;fill:currentColor" />
    <path
       inkscape:connector-curvature="0"
       style="display:inline;fill:currentColor"
       d="m 10850,1136 205,-56 c 0,0 82,16 161,16 190,0 268,-67 268,-185 0,-68 -56,-83 -118,-83 -88,0 -192,25 -266,42 l -70,-100 c 134,-38 286,-72 413,-72 180,0 337,54 337,183 0,248 -375,343 -640,343 -104,0 -290,-20 -290,-88 z"
       id="path23803" />
    <path
       inkscape:connector-curvature="0"
       style="display:inline;fill:currentColor"
       d="m 50,1167 16,-13 c 41,31 138,44 222,44 282,0 532,-96 532,-287 0,-113 -136,-139 -263,-139 -100,0 -245,19 -330,46 l -7,-12 c 89,-28 222,-51 341,-51 140,0 284,30 284,156 0,234 -320,304 -559,304 -145,0 -212,-25 -236,-48 z"
       id="path23801" />
    <path
       inkscape:connector-curvature="0"
       style="display:inline;fill:currentColor"
       d="m 1250,1164 37,-18 c 36,28 132,41 215,41 272,0 503,-93 503,-276 0,-108 -127,-133 -247,-133 -99,0 -239,20 -323,46 l -14,-22 c 94,-29 229,-53 349,-53 144,0 290,33 290,159 0,236 -326,308 -568,308 -140,0 -221,-24 -242,-52 z"
       id="path23799" />
    <path
       inkscape:connector-curvature="0"
       style="display:inline;fill:currentColor"
       d="m 2450,1160 58,-22 c 32,24 125,37 208,37 262,0 474,-89 474,-264 0,-103 -118,-127 -231,-127 -97,0 -233,21 -316,46 l -21,-32 c 99,-30 236,-56 357,-56 149,0 296,35 296,162 0,237 -332,313 -577,313 -136,0 -229,-24 -248,-57 z"
       id="path23797" />
    <path
       inkscape:connector-curvature="0"
       style="display:inline;fill:#d45500"
       d="m 3650,1157 79,-28 c 27,21 120,35 202,35 251,0 444,-86 444,-253 0,-98 -110,-120 -215,-120 -96,0 -228,20 -309,44 l -28,-41 c 104,-31 243,-58 365,-58 153,0 302,38 302,165 0,239 -338,317 -586,317 -131,0 -238,-23 -254,-61 z"
       id="path23795" />
    <path
       inkscape:connector-curvature="0"
       style="display:inline;fill:currentColor"
       d="m 4850,1153 100,-32 c 23,17 113,32 195,32 241,0 415,-83 415,-242 0,-93 -101,-114 -199,-114 -95,0 -222,21 -302,44 l -35,-51 c 109,-32 250,-60 373,-60 158,0 308,41 308,168 0,240 -344,321 -595,321 -127,0 -247,-23 -260,-66 z"
       id="path23793" />
    <path
       inkscape:connector-curvature="0"
       style="display:inline;fill:currentColor"
       d="m 6050,1150 121,-37 c 18,14 107,28 188,28 231,0 385,-80 385,-230 0,-88 -91,-108 -182,-108 -93,0 -215,23 -294,44 l -42,-61 c 114,-34 258,-63 381,-63 162,0 313,43 313,171 0,242 -351,326 -604,326 -122,0 -255,-22 -266,-70 z"
       id="path23791" />
    <path
       inkscape:connector-curvature="0"
       style="display:inline;fill:#d45500"
       d="m 7250,1146 142,-41 c 14,10 100,25 181,25 221,0 356,-77 356,-219 0,-83 -82,-102 -166,-102 -92,0 -209,24 -287,44 l -49,-71 c 119,-35 265,-65 389,-65 167,0 319,46 319,174 0,243 -357,330 -613,330 -118,0 -264,-22 -272,-75 z"
       id="path23789" />
    <path
       inkscape:connector-curvature="0"
       style="display:inline;fill:currentColor"
       d="m 8450,1143 163,-47 c 9,7 95,23 175,23 210,0 326,-74 326,-208 0,-78 -74,-95 -150,-95 -91,0 -204,23 -280,42 l -56,-80 c 124,-36 272,-67 397,-67 171,0 325,49 325,177 0,245 -363,334 -622,334 -113,0 -273,-21 -278,-79 z"
       id="path23786" />
    <path
       inkscape:connector-curvature="0"
       style="display:inline;fill:currentColor"
       d="m 9650,1139 184,-51 c 5,3 88,19 168,19 200,0 297,-70 297,-196 0,-73 -65,-89 -134,-89 -89,0 -198,24 -273,42 l -63,-90 c 129,-37 279,-70 405,-70 176,0 331,51 331,180 0,246 -369,339 -631,339 -109,0 -281,-21 -284,-84 z"
       id="path23773" />
  </g>
  <g
     style="display:none"
     inkscape:groupmode="layer"
     id="layer5"
     inkscape:label="u">
    <g
       id="g4471"
       transform="matrix(1,0,0,-1,9006,1200)" />
    <path
       inkscape:connector-curvature="0"
       id="path5221"
       d="M 0,1064 C 0,923 31,686 43,598 c 6,-1 15,-1 21,-1 -12,88 -43,327 -43,466 0,88 67,137 158,137 132,0 234,-112 306,-245 71,-132 108,-280 130,-360 l 13,12 C 613,685 567,845 505,959 433,1091 327,1215 177,1215 72,1215 0,1157 0,1064 Z"
       style="fill:currentColor" />
    <path
       inkscape:connector-curvature="0"
       id="path5219"
       d="m 9000,1041 c 0,-137 29,-348 39,-432 46,-11 219,-22 275,-21 -10,84 -51,281 -51,412 0,30 3,53 12,60 45,-22 104,-85 153,-168 43,-72 78,-159 92,-247 l 100,60 c -15,77 -49,184 -100,281 -67,128 -165,238 -295,238 -168,0 -225,-94 -225,-183 z"
       style="fill:currentColor" />
    <path
       inkscape:connector-curvature="0"
       id="path5217"
       d="m 1000,1062 c 0,-141 31,-375 43,-463 10,-2 37,-3 49,-3 -12,88 -44,322 -44,460 0,82 60,128 142,129 122,-2 220,-110 289,-237 68,-125 104,-266 125,-347 l 23,17 c -15,78 -59,232 -120,344 -71,132 -177,254 -325,254 -112,0 -182,-61 -182,-154 z"
       style="fill:currentColor" />
    <path
       inkscape:connector-curvature="0"
       id="path5215"
       d="m 2000,1059 c 0,-140 30,-371 42,-458 15,-3 61,-6 78,-6 -12,87 -45,317 -45,454 0,75 52,118 125,120 113,-5 205,-106 272,-228 65,-119 102,-253 122,-335 l 32,23 c -15,78 -58,226 -118,336 -71,131 -174,252 -320,252 -119,0 -188,-66 -188,-158 z"
       style="fill:currentColor" />
    <path
       inkscape:connector-curvature="0"
       id="path5213"
       d="m 3000,1056 c 0,-140 31,-367 42,-454 19,-4 82,-8 105,-8 -11,87 -45,312 -45,448 0,69 45,109 109,111 103,-7 191,-103 255,-219 62,-112 98,-239 117,-322 l 42,28 c -15,78 -57,220 -115,328 -70,131 -174,250 -317,250 -126,0 -193,-70 -193,-162 z"
       style="fill:#d45500" />
    <path
       inkscape:connector-curvature="0"
       id="path5211"
       d="m 4000,1054 c 0,-139 30,-365 41,-451 24,-5 106,-10 134,-10 -11,86 -46,307 -46,442 0,62 38,100 93,103 93,-10 176,-100 238,-211 59,-105 95,-226 113,-310 l 51,34 c -15,78 -55,214 -112,320 -70,130 -173,248 -314,248 -133,0 -198,-74 -198,-165 z"
       style="fill:currentColor" />
    <path
       inkscape:connector-curvature="0"
       id="path5209"
       d="m 5000,1051 c 0,-139 30,-361 41,-447 28,-7 128,-13 162,-12 -11,86 -48,301 -48,436 0,56 32,90 77,94 84,-12 162,-97 221,-202 55,-99 91,-213 109,-297 l 62,39 c -15,77 -55,207 -111,312 -69,130 -170,246 -309,246 -140,0 -204,-78 -204,-169 z"
       style="fill:currentColor" />
    <path
       inkscape:connector-curvature="0"
       id="path5207"
       d="m 6000,1049 c 0,-138 29,-359 40,-444 33,-8 152,-15 191,-14 -11,85 -49,296 -49,430 0,49 25,81 61,86 74,-15 147,-94 204,-194 52,-92 88,-200 105,-285 l 71,44 c -15,77 -53,202 -108,305 -69,129 -169,244 -306,244 -147,0 -209,-82 -209,-172 z"
       style="fill:#d45500" />
    <path
       inkscape:connector-curvature="0"
       id="path5205"
       d="m 7000,1046 c 0,-138 30,-354 40,-439 37,-9 173,-18 218,-17 -10,85 -49,291 -49,424 0,43 18,72 45,77 64,-17 133,-91 187,-185 49,-85 84,-186 100,-272 l 81,49 c -15,77 -52,196 -105,297 -68,129 -169,242 -303,242 -154,0 -214,-86 -214,-176 z"
       style="fill:currentColor" />
    <path
       inkscape:connector-curvature="0"
       id="path5192"
       d="m 8000,1044 c 0,-137 29,-352 39,-436 42,-10 197,-20 247,-19 -10,84 -50,286 -50,418 0,36 10,63 28,69 55,-20 118,-88 170,-177 46,-79 82,-172 97,-259 l 90,54 c -15,77 -51,190 -103,289 -68,128 -166,240 -298,240 -161,0 -220,-90 -220,-179 z"
       style="fill:currentColor" />
    <path
       sodipodi:nodetypes="scscscscs"
       inkscape:connector-curvature="0"
       id="path6418"
       d="m 8501,1020 c 0,-156 30,-294 30,-380 23,-15 73,-57 148,-57 46,0 73,14 73,43 -6,67 -14,202 -14,314 0,131 10,176 22,204 0,45 -68,73 -150,73 -58,0 -82,-11 -93,-29 -12,-25 -16,-95 -16,-168 z"
       style="fill:currentColor" />
    <path
       inkscape:connector-curvature="0"
       id="path6416"
       d="m 7512,1016 c 0,-164 29,-301 29,-382 20,-14 65,-50 132,-50 41,0 65,13 65,39 -6,65 -16,205 -16,322 0,136 12,182 23,207 0,40 -60,64 -133,64 -51,0 -72,-10 -82,-26 -13,-26 -18,-98 -18,-174 z"
       style="fill:currentColor" />
    <path
       inkscape:connector-curvature="0"
       id="path6414"
       d="m 6523,1012 c 0,-171 29,-309 29,-384 18,-12 56,-43 114,-43 36,0 57,11 57,34 -7,62 -17,211 -17,332 0,141 15,186 24,208 0,34 -53,56 -116,56 -45,0 -64,-9 -72,-23 -13,-27 -19,-102 -19,-180 z"
       style="fill:#d45500" />
    <path
       inkscape:connector-curvature="0"
       id="path6412"
       d="m 5534,1008 c 0,-179 28,-315 28,-385 15,-10 49,-37 98,-37 31,0 49,10 49,30 -7,59 -19,215 -19,340 0,146 17,191 25,210 0,29 -45,48 -99,48 -38,0 -54,-8 -61,-20 -14,-28 -21,-105 -21,-186 z"
       style="fill:currentColor" />
    <path
       inkscape:connector-curvature="0"
       id="path6410"
       d="m 4546,1003 c 0,-186 27,-321 27,-386 13,-9 40,-30 81,-30 25,0 40,9 40,25 -7,57 -19,219 -19,349 0,152 19,197 25,213 -1,24 -37,39 -81,39 -31,0 -46,-5 -52,-16 -14,-30 -21,-110 -21,-194 z"
       style="fill:currentColor" />
    <path
       inkscape:connector-curvature="0"
       id="path6408"
       d="m 3557,999 c 0,-194 26,-327 26,-387 10,-7 33,-24 65,-24 20,0 32,8 32,21 -7,54 -21,223 -21,357 0,157 21,202 26,215 -1,19 -29,31 -64,31 -24,0 -36,-4 -41,-13 -15,-31 -23,-113 -23,-200 z"
       style="fill:#d45500" />
    <path
       inkscape:connector-curvature="0"
       id="path6406"
       d="m 2568,995 c 0,-201 26,-335 26,-389 8,-5 24,-17 47,-17 15,0 24,6 24,16 -8,51 -22,229 -22,367 0,162 24,206 27,216 -1,13 -22,23 -47,23 -18,0 -28,-3 -31,-10 -15,-32 -24,-117 -24,-206 z"
       style="fill:currentColor" />
    <path
       inkscape:connector-curvature="0"
       id="path6404"
       d="m 1579,991 c 0,-209 25,-341 25,-390 5,-4 16,-11 31,-11 10,0 16,5 16,12 -8,49 -24,232 -24,375 0,167 26,212 28,219 -1,8 -14,14 -30,14 -11,0 -18,-2 -20,-7 -16,-33 -26,-120 -26,-212 z"
       style="fill:currentColor" />
    <path
       inkscape:connector-curvature="0"
       id="path6402"
       d="m 9490,1024 c 0,-149 30,-288 30,-379 25,-17 81,-63 165,-63 51,0 82,16 82,48 -6,70 -13,197 -13,305 0,126 7,171 21,202 0,50 -75,81 -167,81 -65,0 -91,-12 -103,-32 -12,-24 -15,-92 -15,-162 z"
       style="fill:currentColor" />
    <path
       inkscape:connector-curvature="0"
       id="path6389"
       d="m 590,987 c 0,-216 25,-348 25,-392 3,-2 8,-4 14,-4 5,0 7,3 7,7 -8,46 -25,237 -25,384 0,172 29,217 29,221 -1,3 -7,6 -13,6 -4,0 -9,-1 -10,-4 -16,-34 -27,-123 -27,-218 z"
       style="fill:currentColor" />
  </g>
</svg>
