<?xml version="1.0" encoding="UTF-8" standalone="no"?>
<!-- Created with Inkscape (http://www.inkscape.org/) -->

<svg
   xmlns:dc="http://purl.org/dc/elements/1.1/"
   xmlns:cc="http://creativecommons.org/ns#"
   xmlns:rdf="http://www.w3.org/1999/02/22-rdf-syntax-ns#"
   xmlns:svg="http://www.w3.org/2000/svg"
   xmlns="http://www.w3.org/2000/svg"
   xmlns:sodipodi="http://sodipodi.sourceforge.net/DTD/sodipodi-0.dtd"
   xmlns:inkscape="http://www.inkscape.org/namespaces/inkscape"
   width="1200"
   height="630"
   viewBox="0 0 1200 630"
   id="svg2"
   version="1.1"
   inkscape:version="0.91 r13725"
   inkscape:export-filename="/home/i/repos/fontuni/fontuni.github.io/_fonts/f0nt/images/f0nt-cover-1.png"
   inkscape:export-xdpi="90"
   inkscape:export-ydpi="90"
   sodipodi:docname="f0nt-cover.svg">
  <defs
     id="defs4">
    <filter
       style="color-interpolation-filters:sRGB"
       inkscape:label="Drop Shadow"
       id="filter5024">
      <feFlood
         flood-opacity="1"
         flood-color="rgb(221,221,221)"
         result="flood"
         id="feFlood5026" />
      <feComposite
         in="flood"
         in2="SourceGraphic"
         operator="in"
         result="composite1"
         id="feComposite5028" />
      <feGaussianBlur
         in="composite1"
         stdDeviation="3"
         result="blur"
         id="feGaussianBlur5030" />
      <feOffset
         dx="2"
         dy="2"
         result="offset"
         id="feOffset5032" />
      <feComposite
         in="SourceGraphic"
         in2="offset"
         operator="over"
         result="composite2"
         id="feComposite5034" />
    </filter>
    <filter
       style="color-interpolation-filters:sRGB"
       inkscape:label="Drop Shadow"
       id="filter5937">
      <feFlood
         flood-opacity="1"
         flood-color="rgb(221,221,221)"
         result="flood"
         id="feFlood5939" />
      <feComposite
         in="flood"
         in2="SourceGraphic"
         operator="in"
         result="composite1"
         id="feComposite5941" />
      <feGaussianBlur
         in="composite1"
         stdDeviation="2"
         result="blur"
         id="feGaussianBlur5943" />
      <feOffset
         dx="2"
         dy="2"
         result="offset"
         id="feOffset5945" />
      <feComposite
         in="SourceGraphic"
         in2="offset"
         operator="over"
         result="composite2"
         id="feComposite5947" />
    </filter>
    <filter
       style="color-interpolation-filters:sRGB"
       inkscape:label="Drop Shadow"
       id="filter5949">
      <feFlood
         flood-opacity="1"
         flood-color="rgb(221,221,221)"
         result="flood"
         id="feFlood5951" />
      <feComposite
         in="flood"
         in2="SourceGraphic"
         operator="in"
         result="composite1"
         id="feComposite5953" />
      <feGaussianBlur
         in="composite1"
         stdDeviation="2"
         result="blur"
         id="feGaussianBlur5955" />
      <feOffset
         dx="2"
         dy="2"
         result="offset"
         id="feOffset5957" />
      <feComposite
         in="SourceGraphic"
         in2="offset"
         operator="over"
         result="composite2"
         id="feComposite5959" />
    </filter>
    <filter
       style="color-interpolation-filters:sRGB"
       inkscape:label="Drop Shadow"
       id="filter5961">
      <feFlood
         flood-opacity="1"
         flood-color="rgb(221,221,221)"
         result="flood"
         id="feFlood5963" />
      <feComposite
         in="flood"
         in2="SourceGraphic"
         operator="in"
         result="composite1"
         id="feComposite5965" />
      <feGaussianBlur
         in="composite1"
         stdDeviation="2"
         result="blur"
         id="feGaussianBlur5967" />
      <feOffset
         dx="2"
         dy="2"
         result="offset"
         id="feOffset5969" />
      <feComposite
         in="SourceGraphic"
         in2="offset"
         operator="over"
         result="composite2"
         id="feComposite5971" />
    </filter>
  </defs>
  <sodipodi:namedview
     id="base"
     pagecolor="#ffffff"
     bordercolor="#666666"
     borderopacity="1.0"
     inkscape:pageopacity="0.0"
     inkscape:pageshadow="2"
     inkscape:zoom="0.3107219"
     inkscape:cx="493.7957"
     inkscape:cy="424.42103"
     inkscape:document-units="px"
     inkscape:current-layer="layer2"
     showgrid="false"
     inkscape:window-width="1366"
     inkscape:window-height="718"
     inkscape:window-x="0"
     inkscape:window-y="24"
     inkscape:window-maximized="1"
     inkscape:showpageshadow="false"
     showborder="true"
     borderlayer="true" />
  <metadata
     id="metadata7">
    <rdf:RDF>
      <cc:Work
         rdf:about="">
        <dc:format>image/svg+xml</dc:format>
        <dc:type
           rdf:resource="http://purl.org/dc/dcmitype/StillImage" />
        <dc:title></dc:title>
      </cc:Work>
    </rdf:RDF>
  </metadata>
  <g
     inkscape:groupmode="layer"
     id="layer5"
     inkscape:label="back"
     transform="translate(0,450)"
     style="display:inline"
     sodipodi:insensitive="true">
    <path
       style="fill:#ee0044;fill-opacity:1;stroke:none;stroke-width:0;stroke-miterlimit:4;stroke-dasharray:none;stroke-opacity:1"
       d="M 3.0021132e-6,-450 1200,-450 1200,180 3.0021132e-6,180 Z"
       id="rect5037"
       inkscape:connector-curvature="0" />
  </g>
  <g
     inkscape:groupmode="layer"
     id="layer2"
     inkscape:label="fore"
     transform="translate(0,280)">
    <g
       id="g4301"
       style="fill:#ffffff;fill-opacity:0.94999999">
      <g
         transform="translate(0,5)"
         id="g4293"
         style="fill:#ffffff;fill-opacity:0.94999999">
        <g
           id="g4287"
           style="fill:#ffffff;fill-opacity:0.94999999">
          <path
             d="m 171.54575,-118.77991 0.6337,-4.43589 q 11.08971,-0.95055 14.09978,-0.95055 10.77287,0 16.95142,5.22801 6.17856,5.06959 6.17856,15.20876 0,14.733485 -3.48534,39.764565 24.08053,8.71335 41.66567,31.843335 7.92122,-62.894548 9.98074,-89.50987 6.97068,-0.6337 7.12911,-0.6337 -1.74268,22.496285 -10.13918,90.301995 31.20964,-23.922107 53.23065,-32.160185 2.5348,-30.892788 11.56499,-57.66654 3.80219,-0.47527 7.92123,-0.47527 -9.50548,28.833268 -11.88183,55.923867 7.92122,-1.584246 14.57505,-1.584246 11.72341,0 19.64464,6.336982 7.92124,6.178558 7.92124,17.268277 0,9.822322 -7.28754,15.208757 -7.28753,5.386436 -18.53567,5.386436 -9.82233,0 -17.26827,-5.86171 -7.28754,-6.020132 -7.28754,-18.377248 0,-3.960614 0.31685,-11.564993 -20.91204,8.396503 -53.70592,33.586007 -2.5348,0 -6.97069,0.316849 -6.4954,-9.980747 -17.4267,-19.486221 -10.77286,-9.663898 -24.08053,-14.733484 -0.31685,2.059519 -0.95055,5.861709 -0.47527,3.802189 -0.63369,5.386435 -1.9011,12.673964 -10.93129,18.852522 -9.03021,6.020134 -20.11992,6.020134 -9.0302,0 -15.84246,-5.54486 Q 150,-34.814896 150,-43.211398 q 0,-12.357116 9.34705,-18.694098 9.34705,-6.336982 22.81314,-6.336982 8.71335,0 17.10986,2.217944 3.16848,-25.981627 3.16848,-36.437646 0,-9.18862 -4.59431,-13.14924 -4.59431,-4.11904 -13.78294,-4.11904 l -12.51553,0.95055 z m 143.53265,56.715989 q -1.10898,9.980748 -1.10898,13.941361 0,10.931294 5.54487,15.684031 5.70327,4.752737 12.83238,4.752737 8.55493,0 13.94136,-4.277463 5.38643,-4.435887 5.38643,-11.881842 0,-9.505473 -6.65383,-14.733483 -6.4954,-5.386435 -15.84245,-5.386435 -7.44596,0 -14.09978,1.901094 z m -116.28363,0 q -8.23808,-2.376368 -17.58513,-2.376368 -10.93129,0 -18.0604,5.228011 -7.12911,5.069586 -7.12911,15.367181 0,7.129105 5.38644,11.564993 5.38644,4.435887 12.04027,4.435887 8.3965,0 15.36718,-4.91116 7.12911,-4.911161 8.71336,-15.842456 0.63369,-8.238077 1.26739,-13.466088 z"
             style="font-style:normal;font-variant:normal;font-weight:200;font-stretch:normal;font-size:medium;line-height:125%;font-family:F0nt;-inkscape-font-specification:'F0nt Ultra-Light';letter-spacing:0px;word-spacing:0px;fill:#ffffff;fill-opacity:0.94999999;stroke:none;stroke-width:1px;stroke-linecap:butt;stroke-linejoin:miter;stroke-opacity:1"
             id="path4198"
             inkscape:connector-curvature="0" />
          <path
             d="m 299.66171,-12.635459 q 8.71335,-2.851642 16.31773,-2.851642 12.19868,0 12.19868,11.0897196 0,4.27746199 -2.21794,12.9908131 -2.37636,8.8717753 -2.69321,11.0897193 Q 321.04903,20 317.24683,20 q 0.6337,-3.010067 2.05952,-8.238077 1.2674,-5.0695859 2.05952,-8.7133507 0.79213,-3.64376436 0.79213,-6.4954073 0,-8.396501 -7.44596,-8.396501 -7.12911,0 -13.62452,2.3763687 -0.47526,-1.9010957 -1.42581,-3.1684917 z"
             style="font-style:normal;font-variant:normal;font-weight:200;font-stretch:normal;font-size:medium;line-height:125%;font-family:F0nt;-inkscape-font-specification:'F0nt Ultra-Light';letter-spacing:0px;word-spacing:0px;fill:#ffffff;fill-opacity:0.94999999;stroke:none;stroke-width:1px;stroke-linecap:butt;stroke-linejoin:miter;stroke-opacity:1"
             id="path4200"
             inkscape:connector-curvature="0" />
          <path
             d="m 448.73921,-99.135267 q 0,-24.714233 33.90286,-24.714233 10.77287,0 19.16937,3.16849 -0.47527,0.95055 -1.90109,4.75274 -7.76281,-3.64376 -18.6941,-3.64376 -25.66478,0 -25.66478,19.803065 0,13.307663 9.18862,21.070466 17.10986,-0.950547 30.57594,-3.960614 0,2.851643 -0.47527,4.277463 -15.20876,3.326916 -30.10067,4.119038 -0.47526,4.277464 -1.42581,13.941361 -0.95055,9.663898 -1.2674,12.198691 0.95055,9.347049 10.77286,14.733484 9.98076,5.228011 26.77376,5.228011 20.27834,0 29.46697,-4.594312 9.18861,-4.752737 11.56498,-15.208758 1.74267,-7.604379 3.48535,-33.902855 1.90109,-26.45691 1.90109,-40.23984 3.48534,-0.6337 7.92123,-0.6337 0,13.94137 -1.74267,40.398267 -1.74267,26.298476 -3.48534,34.219703 -3.01007,13.149239 -14.8919,18.852523 -11.88185,5.54486 -35.64554,5.54486 -14.41663,0 -25.03108,-3.80219 -10.61445,-3.802189 -14.8919,-10.77287 -10.2976,14.57506 -45.62627,14.57506 -25.03108,0 -36.12081,-5.069586 -11.08971,-5.069586 -11.08971,-18.852523 0,-7.287529 1.42582,-20.119918 1.42582,-12.990814 3.64377,-29.783817 2.21793,-16.792999 3.01006,-24.238959 5.22801,0 7.92123,-0.47527 -0.79213,7.44595 -3.01007,24.238956 -2.21795,16.793002 -3.64377,29.783816 -1.42582,12.832389 -1.42582,19.803069 0,12.198691 8.71336,16.317729 8.71335,3.960615 32.16018,3.960615 37.54662,0 40.71511,-19.80307 0.15843,-1.267396 3.01007,-26.140052 l -3.01007,0 q -15.36719,0 -26.14005,-7.28753 2.21794,-4.277462 2.21794,-4.594312 11.24814,7.604379 24.71424,7.604379 l 1.90109,0 q -8.87178,-8.554925 -8.87178,-20.753617 z"
             style="font-style:normal;font-variant:normal;font-weight:200;font-stretch:normal;font-size:medium;line-height:125%;font-family:F0nt;-inkscape-font-specification:'F0nt Ultra-Light';letter-spacing:0px;word-spacing:0px;fill:#ffffff;fill-opacity:0.94999999;stroke:none;stroke-width:1px;stroke-linecap:butt;stroke-linejoin:miter;stroke-opacity:1"
             id="path4202"
             inkscape:connector-curvature="0" />
          <path
             d="m 497.71717,-133.19654 q 0,-13.46609 13.46609,-21.38733 13.14924,-7.92122 43.72517,-7.92122 5.22802,0 6.97069,0.15843 -0.6337,3.16849 -1.2674,4.43589 -1.9011,-0.15843 -6.33698,-0.15843 -26.61533,0 -38.18032,6.65383 -11.08972,6.33698 -11.08972,17.74355 -5.38643,0 -7.28753,0.47528 z"
             style="font-style:normal;font-variant:normal;font-weight:200;font-stretch:normal;font-size:medium;line-height:125%;font-family:F0nt;-inkscape-font-specification:'F0nt Ultra-Light';letter-spacing:0px;word-spacing:0px;fill:#ffffff;fill-opacity:0.94999999;stroke:none;stroke-width:1px;stroke-linecap:butt;stroke-linejoin:miter;stroke-opacity:1"
             id="path4204"
             inkscape:connector-curvature="0" />
        </g>
        <path
           inkscape:connector-curvature="0"
           style="font-style:normal;font-variant:normal;font-weight:900;font-stretch:normal;font-size:medium;line-height:125%;font-family:'F0nt Ultra';-inkscape-font-specification:'F0nt Ultra Heavy';letter-spacing:0px;word-spacing:0px;fill:#ffffff;fill-opacity:0.94999999;stroke:none;stroke-width:1px;stroke-linecap:butt;stroke-linejoin:miter;stroke-opacity:1"
           d="m 1037.3262,111.1582 c -24.1862,0 -42.14185,3.6967 -53.86526,11.08985 -5.59766,3.48533 -9.7696,7.44496 -12.51563,11.88086 -2.74603,4.33027 -4.11914,8.55478 -4.11914,12.67382 13.20205,-1.58424 26.3002,-2.375 39.29103,-2.375 0,-4.33027 2.2165,-7.76403 6.6523,-10.29882 4.6472,-2.64042 11.2498,-3.96094 19.8047,-3.96094 0.6337,0 2.1646,0.0545 4.5938,0.16015 l 4.9101,0 c 1.0562,-1.79548 2.4819,-4.80659 4.2774,-9.03124 1.7954,-4.33028 3.0108,-7.65691 3.6445,-9.98047 -2.4292,-0.10562 -6.6537,-0.15821 -12.6738,-0.15821 z m -313.06253,23.76368 c -18.16602,0 -32.95085,0.7927 -44.35742,2.37695 -8.23808,41.296 -14.20578,68.06881 -17.90234,80.32031 -3.59096,-12.46273 -7.39283,-25.77123 -11.40625,-39.92383 -9.82232,2.5348 -18.00842,4.12021 -24.55664,4.75391 -1.68986,3.16849 -8.66061,14.25858 -20.91211,33.26953 1.79548,-22.07382 2.69336,-41.08513 2.69336,-57.0332 -13.5189,1.37301 -28.30569,2.16572 -44.35938,2.37695 1.05617,17.63794 1.58399,32.68766 1.58399,45.15039 0,11.51219 -0.79076,27.35462 -2.375,47.52734 4.85835,1.2674 11.98686,1.90039 21.38671,1.90039 11.30096,10e-6 17.90164,-0.31552 19.80274,-0.94921 10.35041,-12.8852 19.59215,-25.87623 27.72461,-38.97266 2.21794,8.34369 6.17758,21.33472 11.88086,38.97266 6.33698,0.63369 14.2582,0.94921 23.76367,0.94921 8.76617,10e-6 15.89662,-0.63299 21.38867,-1.90039 4.33193,-4.47633 9.16339,-15.21063 14.48242,-32.05859 0.52433,2.52426 1.2595,4.97445 2.22656,7.34375 2.00672,5.1752 5.12106,9.98208 9.34571,14.41797 4.33027,4.33027 10.19278,7.76208 17.58594,10.29687 7.49876,2.5348 16.1601,3.80274 25.98242,3.80274 9.61109,0 19.11577,-1.21536 28.51562,-3.64453 9.50548,-2.42918 18.27198,-5.91358 26.29883,-10.45508 8.02685,-4.5415 14.52237,-10.5092 19.48633,-17.90234 0.96655,-1.43954 1.83493,-2.91241 2.61328,-4.41602 -0.94549,14.3399 -1.42969,25.27194 -1.42969,32.61523 6.54821,1.2674 13.67672,1.90039 21.38672,1.90039 11.72342,10e-6 18.85193,-0.31552 21.38672,-0.94921 5.91451,-10.24479 12.78008,-18.95872 20.5957,-26.14063 l 0,1.42578 c 0,8.13246 3.27406,14.78574 9.82227,19.96094 6.65384,5.06959 16.05334,7.60547 28.19922,7.60547 5.1752,0 10.5099,-0.58236 16.00195,-1.74414 5.59767,-1.05617 11.03559,-2.69221 16.31641,-4.91016 5.38644,-2.21794 9.77067,-5.33423 13.15039,-9.34765 3.48534,-4.11904 5.22656,-8.76621 5.22656,-13.94141 0,-8.66054 -3.64216,-15.47158 -10.92969,-20.43555 -7.28753,-5.06958 -18.53733,-7.76323 -33.74609,-8.08008 0.6337,-3.48533 1.42641,-7.12945 2.37695,-10.93164 6.97069,3.06288 14.46926,4.59375 22.4961,4.59375 12.04026,0 22.76029,-2.05869 32.16015,-6.17773 -4.22466,31.26245 -7.81422,54.28597 -10.77148,69.07226 4.22466,10e-6 11.77579,-0.47523 22.65426,-1.42578 10.8785,-0.84493 18.1122,-1.63568 21.7032,-2.375 5.1752,-32.84669 8.8718,-64.53155 11.0898,-95.05468 -13.9414,0 -27.6706,0.84334 -41.1895,2.5332 -6.86503,12.14589 -14.62847,18.21875 -23.28901,18.21875 -4.43588,0 -9.08305,-1.68864 -13.94141,-5.06836 -4.75274,-3.37973 -8.97726,-8.29177 -12.67383,-14.73437 -16.37053,-10e-6 -31.15732,0.5804 -44.35937,1.74218 -4.43589,18.37725 -7.44505,34.80204 -9.0293,49.27149 -7.0763,3.48534 -13.78412,7.81503 -20.12109,12.99023 1.90109,-24.71423 4.22468,-46.04912 6.9707,-64.0039 -6.86506,0.73931 -21.6499,1.5846 -44.35742,2.53515 -0.94712,6.56219 -1.94278,15.65537 -2.97656,26.76758 -0.3627,-1.12335 -0.76004,-2.2328 -1.2168,-3.32031 -2.11233,-5.38644 -5.38639,-10.24591 -9.82227,-14.57618 -4.33027,-4.43588 -10.29796,-7.92028 -17.90234,-10.45507 -7.60438,-2.5348 -16.42347,-3.80274 -26.45703,-3.80274 -9.92793,0 -19.64492,1.26794 -29.15039,3.80274 -9.39986,2.53479 -17.95407,6.1789 -25.66406,10.93164 -5.25786,3.21313 -9.79264,7.1228 -13.63672,11.69922 3.26313,-13.60992 6.67507,-29.07261 10.23437,-46.39453 z m 45.85938,40.24023 c 5.91452,0 11.61733,2.69169 17.10937,8.07812 5.59768,5.38644 8.39649,13.1499 8.39649,23.28907 0,7.70999 -2.42875,14.78591 -7.28711,21.22851 -4.75273,6.33699 -10.66784,9.50586 -17.74414,9.50586 -5.59768,0 -11.0356,-2.64105 -16.31641,-7.92187 -5.17521,-5.28082 -7.76367,-12.83198 -7.76367,-22.6543 0,-8.55493 2.27099,-15.94832 6.8125,-22.17969 4.5415,-6.23136 10.13913,-9.3457 16.79297,-9.3457 z m 167.8457,40.08008 c 9.71671,1.05616 14.57617,5.70333 14.57617,13.9414 0,3.1685 -0.95046,5.91473 -2.85156,8.23829 -1.90109,2.32356 -4.1195,3.48632 -6.6543,3.48632 -2.53479,0 -4.38314,-0.7927 -5.54492,-2.37695 -1.05617,-1.68986 -1.58398,-4.54126 -1.58398,-8.55469 0,-3.69657 0.68558,-8.60862 2.05859,-14.73437 z"
           transform="translate(0,-280)"
           id="path4206" />
      </g>
      <g
         transform="matrix(0.89860144,0,0,0.89860144,56.330206,47.747073)"
         style="fill:#ffffff;fill-opacity:0.94999999"
         id="g4255">
        <path
           inkscape:connector-curvature="0"
           id="path4214"
           style="font-style:normal;font-variant:normal;font-weight:500;font-stretch:normal;font-size:162.73754883px;line-height:125%;font-family:F0nt;-inkscape-font-specification:'F0nt Medium';letter-spacing:0px;word-spacing:0px;fill:#ffffff;fill-opacity:0.94999999;stroke:none;stroke-width:1px;stroke-linecap:butt;stroke-linejoin:miter;stroke-opacity:1"
           d="m 104.23954,166.99215 q 0,-14.782 1.76299,-40.14193 1.8986,-25.49555 4.06844,-41.091232 16.54498,-0.813687 18.71482,-1.084917 -4.47529,34.581729 -6.23828,69.570299 17.35867,-12.88339 39.32824,-20.74903 1.89861,-23.73256 9.08618,-48.007581 8.13688,-0.813688 18.57921,-0.813688 -8.40811,26.309239 -10.71356,44.345979 2.84791,-0.40684 6.23827,-0.40684 12.47655,0 19.66412,5.5602 7.32319,5.42458 7.32319,15.32445 0,9.76425 -7.73003,14.91761 -7.59442,5.01774 -18.5792,5.01774 -10.98479,0 -17.76552,-5.5602 -6.78073,-5.69581 -6.78073,-16.27375 0,-4.33967 0.13561,-6.50951 -21.83395,9.49303 -39.19262,26.30924 -1.35615,0.40685 -8.95057,0.40685 -4.06844,0 -8.95056,-0.81369 z m 83.13176,-5.01774 q 5.5602,0 8.95057,-3.11914 3.39036,-3.11914 3.39036,-8.54372 0,-7.05196 -4.61089,-10.71356 -4.47529,-3.79721 -11.93409,-3.79721 -2.98352,0 -5.69581,0.40685 -1.76299,7.05196 -1.76299,11.25601 0,7.73004 3.39036,11.1204 3.39037,3.39037 8.27249,3.39037 z" />
        <path
           inkscape:connector-curvature="0"
           id="path4216"
           style="font-style:normal;font-variant:normal;font-weight:500;font-stretch:normal;font-size:162.73754883px;line-height:125%;font-family:F0nt;-inkscape-font-specification:'F0nt Medium';letter-spacing:0px;word-spacing:0px;fill:#ffffff;fill-opacity:0.94999999;stroke:none;stroke-width:1px;stroke-linecap:butt;stroke-linejoin:miter;stroke-opacity:1"
           d="m 150.42055,45.888289 q 10.57794,-3.79721 17.08744,-3.79721 13.15462,0 13.15462,11.1204 0,3.52598 -0.27123,10.306711 20.07097,-17.358672 26.98731,-22.783257 1.89861,0.678073 5.69582,2.983522 3.79721,2.305448 4.47528,2.983522 -22.37641,13.968306 -39.59947,27.258539 -6.5095,-0.271229 -9.08618,-2.034219 0.54246,-9.221795 0.54246,-14.781994 0,-3.390366 -1.08492,-5.153356 -1.22053,-1.898605 -4.74651,-2.305449 -4.6109,0.27123 -9.62864,2.441064 -3.11913,-5.695815 -3.52598,-6.238273 z" />
        <path
           inkscape:connector-curvature="0"
           id="path4218"
           style="font-style:normal;font-variant:normal;font-weight:500;font-stretch:normal;font-size:162.73754883px;line-height:125%;font-family:F0nt;-inkscape-font-specification:'F0nt Medium';letter-spacing:0px;word-spacing:0px;fill:#ffffff;fill-opacity:0.94999999;stroke:none;stroke-width:1px;stroke-linecap:butt;stroke-linejoin:miter;stroke-opacity:1"
           d="m 204.53079,137.56377 q 0,-11.52724 18.44359,-11.52724 12.0697,0 24.54624,2.57668 l -3.11913,8.00126 q -11.52725,-1.8986 -17.22306,-2.03422 -5.5602,0 -6.23827,3.11914 1.35614,9.89987 10.30671,16.40937 8.95056,6.37389 21.83395,6.37389 16.40937,0 27.801,-10.44233 11.52724,-10.44233 11.52724,-25.22432 0,-15.05322 -9.76425,-24.00379 -9.76425,-8.950564 -23.05449,-8.950564 -11.66285,0 -20.61342,5.017742 -8.95056,5.017742 -13.56146,12.205312 -2.57668,-0.13561 -8.27249,-1.22053 -5.69582,-1.08491 -7.59442,-2.03422 6.10266,-9.221792 20.47781,-16.002523 14.51076,-6.916346 34.3105,-6.916346 21.69834,0 34.17488,11.256014 12.47655,11.256015 12.47655,28.479075 0,10.57794 -5.42459,19.66412 -5.28897,8.95056 -14.10392,14.78199 -8.81495,5.83143 -20.07096,9.08618 -11.1204,3.25475 -23.05449,3.25475 -10.44233,0 -19.12166,-2.98352 -8.67934,-2.98352 -13.96831,-7.73003 -5.15335,-4.88213 -8.00126,-10.30672 -2.71229,-5.42458 -2.71229,-10.84917 z" />
        <path
           inkscape:connector-curvature="0"
           id="path4220"
           style="font-style:normal;font-variant:normal;font-weight:500;font-stretch:normal;font-size:162.73754883px;line-height:125%;font-family:F0nt;-inkscape-font-specification:'F0nt Medium';letter-spacing:0px;word-spacing:0px;fill:#ffffff;fill-opacity:0.94999999;stroke:none;stroke-width:1px;stroke-linecap:butt;stroke-linejoin:miter;stroke-opacity:1"
           d="m 316.28571,104.33819 q 0,-7.594417 5.69582,-12.612158 5.83143,-5.017741 13.56146,-6.916346 7.73003,-1.898605 16.81621,-1.898605 8.2725,0 16.6806,2.441063 -1.8986,3.661595 -3.52598,9.08618 -6.78073,-3.390365 -16.6806,-3.390365 -15.86691,0 -15.86691,11.391631 0,3.52598 1.49176,6.5095 1.49176,2.84791 4.33967,4.88213 2.98352,1.8986 5.83143,3.39036 2.84791,1.35615 7.05196,2.44106 4.33967,0.94931 6.64512,1.49177 2.44106,0.40684 6.23827,0.9493 -1.8986,5.69581 -2.44106,7.18757 -2.98352,0 -7.18758,0.67808 -4.20405,0.67807 -9.62864,2.16983 -5.28897,1.49176 -8.95056,5.01774 -3.6616,3.39037 -3.6616,8.13688 0,8.00126 7.05196,11.66286 7.18758,3.66159 22.51203,3.66159 14.51077,0 21.02027,-2.98352 6.5095,-3.11914 8.00126,-10.1711 1.22053,-6.10266 2.71229,-28.20784 1.49176,-22.105183 1.49176,-33.632426 6.23828,-0.949303 18.44359,-1.356147 0,11.391629 -1.49176,33.225583 -1.49176,21.69834 -2.8479,28.61469 -4.6109,23.32571 -51.53356,23.32571 -43.80352,0 -43.80352,-21.96957 0,-7.73003 7.59441,-13.15462 7.73004,-5.5602 18.57921,-8.54372 -10.71356,-2.98352 -17.49429,-8.27249 -6.64512,-5.28897 -6.64512,-13.15462 z" />
        <path
           inkscape:connector-curvature="0"
           id="path4222"
           style="font-style:normal;font-variant:normal;font-weight:500;font-stretch:normal;font-size:162.73754883px;line-height:125%;font-family:F0nt;-inkscape-font-specification:'F0nt Medium';letter-spacing:0px;word-spacing:0px;fill:#ffffff;fill-opacity:0.94999999;stroke:none;stroke-width:1px;stroke-linecap:butt;stroke-linejoin:miter;stroke-opacity:1"
           d="m 423.3577,166.99215 q 0,-14.782 1.76299,-40.14193 1.89861,-25.49555 4.06844,-41.091232 16.54499,-0.813687 18.71482,-1.084917 -4.47528,34.717349 -6.23827,69.299069 18.98604,-15.59568 36.61595,-22.78325 0.81368,-8.54372 3.25475,-18.57921 3.93282,-16.002522 18.71481,-22.783253 14.782,-6.916346 39.05702,-6.916346 24.81747,0 37.42963,6.645117 12.74778,6.645116 12.74778,21.427112 0,16.54498 -7.18758,55.19515 -13.83269,1.62738 -18.71482,1.62738 0.54246,-2.84791 1.89861,-10.71356 1.35614,-8.00126 2.03422,-12.47654 0.81369,-4.47529 1.76299,-10.84917 0.9493,-6.50951 1.35614,-11.52725 0.40685,-5.15335 0.40685,-9.22179 0,-12.34093 -8.67934,-16.816216 -8.54372,-4.475282 -27.93661,-4.475282 -16.40937,0 -24.81748,4.746512 -8.4081,4.746516 -10.71355,15.053226 -1.89861,7.73003 -3.11914,14.51076 7.59442,-1.35614 12.88339,-1.35614 16.81621,0 25.76678,5.69581 8.95056,5.69581 8.95056,16.00253 0,7.59441 -5.96704,13.15461 -5.83143,5.42459 -13.69708,7.59442 -7.86564,2.30545 -16.54498,2.30545 -13.29023,0 -21.42711,-5.83143 -8.13688,-5.96704 -8.13688,-17.90113 0,-4.47528 0.13562,-6.64511 -17.6299,9.3574 -36.48034,28.34345 -1.35614,0.40685 -8.95056,0.40685 -4.06844,0 -8.95057,-0.81369 z m 71.33329,-33.90366 q -0.67807,6.5095 -0.67807,12.47655 0,16.40937 16.95183,16.40937 7.05196,0 12.61216,-4.06844 5.5602,-4.20406 5.5602,-10.57794 0,-15.46007 -23.32572,-15.46007 -4.74651,0 -11.1204,1.22053 z" />
        <path
           inkscape:connector-curvature="0"
           id="path4224"
           style="font-style:normal;font-variant:normal;font-weight:500;font-stretch:normal;font-size:162.73754883px;line-height:125%;font-family:F0nt;-inkscape-font-specification:'F0nt Medium';letter-spacing:0px;word-spacing:0px;fill:#ffffff;fill-opacity:0.94999999;stroke:none;stroke-width:1px;stroke-linecap:butt;stroke-linejoin:miter;stroke-opacity:1"
           d="m 432.98608,56.330615 q 10.84917,-3.390366 25.9024,-3.390366 28.61468,0 49.36372,11.798473 -2.44106,3.932824 -4.20405,9.221794 -16.6806,-10.306711 -43.39668,-10.306711 -13.42585,0 -24.68186,3.254751 -2.03422,-4.610898 -2.98353,-10.577941 z" />
        <path
           inkscape:connector-curvature="0"
           id="path4226"
           style="font-style:normal;font-variant:normal;font-weight:500;font-stretch:normal;font-size:162.73754883px;line-height:125%;font-family:F0nt;-inkscape-font-specification:'F0nt Medium';letter-spacing:0px;word-spacing:0px;fill:#ffffff;fill-opacity:0.94999999;stroke:none;stroke-width:1px;stroke-linecap:butt;stroke-linejoin:miter;stroke-opacity:1"
           d="m 588.95586,151.80331 q 0,-8.13688 5.15336,-13.69708 5.15335,-5.5602 11.79847,-7.59442 6.64512,-2.16983 14.10392,-2.16983 4.47528,0 7.86565,0.54246 2.03422,-18.85043 2.03422,-24.41063 0,-7.051964 -3.25475,-9.764256 -3.11914,-2.847908 -10.03548,-2.847908 l -9.08618,0.813688 1.35614,-8.679336 q 11.25602,-0.949302 14.51077,-0.949302 10.30671,0 16.27375,4.475282 6.10266,4.339668 6.10266,13.290232 0,12.88339 -2.98352,32.00505 16.95183,6.64512 29.6996,20.47781 5.42459,-45.83774 6.91635,-67.536082 6.78073,-0.949302 16.13814,-1.084917 -1.76299,23.732559 -7.73004,71.197679 23.05449,-11.79847 37.29402,-20.88465 -10.17109,-17.22306 -10.17109,-30.24206 0,-10.577945 8.13688,-16.138145 8.27249,-5.695814 19.39289,-5.695814 11.39162,0 17.08744,5.967044 5.69581,5.967043 5.69581,14.375145 0,14.51077 -22.37641,30.92014 11.25601,15.46007 24.41063,30.37767 -1.8986,0.67808 -8.27249,2.03422 -6.37389,1.22054 -9.49302,1.22054 -9.76426,-10.98479 -19.52851,-25.22432 -13.83269,8.4081 -43.39668,23.32571 -4.6109,2.16984 -9.76425,2.16984 -4.20405,0 -5.69582,-3.11914 -4.61089,-6.91635 -12.34093,-13.42585 -7.73003,-6.5095 -17.22305,-10.71355 -0.13562,1.08491 -0.54246,2.98352 -0.27123,1.8986 -0.40685,2.71229 -1.62737,10.84917 -10.30671,16.95183 -8.67933,5.96704 -19.93535,5.96704 -9.22179,0 -15.32445,-5.01774 -6.10266,-5.15336 -6.10266,-12.61216 z m 38.51456,-15.32445 q -5.69582,-0.9493 -10.03549,-0.9493 -7.05196,0 -11.66285,3.93282 -4.6109,3.79721 -4.6109,10.98478 0,5.28897 3.39036,8.40811 3.39037,2.98352 7.86565,2.98352 5.42459,0 9.62864,-3.66159 4.20405,-3.6616 5.01774,-11.1204 0.40685,-6.23827 0.40685,-10.57794 z m 109.84784,-10.03548 q 14.23954,-11.39163 14.23954,-22.37642 0,-5.831426 -2.84791,-9.493021 -2.84791,-3.79721 -7.86565,-3.932824 -5.15335,0 -8.95056,3.797209 -3.79721,3.661595 -3.79721,9.628636 0,9.62864 9.22179,22.37642 z" />
        <path
           inkscape:connector-curvature="0"
           id="path4228"
           style="font-style:normal;font-variant:normal;font-weight:500;font-stretch:normal;font-size:162.73754883px;line-height:125%;font-family:F0nt;-inkscape-font-specification:'F0nt Medium';letter-spacing:0px;word-spacing:0px;fill:#ffffff;fill-opacity:0.94999999;stroke:none;stroke-width:1px;stroke-linecap:butt;stroke-linejoin:miter;stroke-opacity:1"
           d="m 755.85509,89.556198 q 14.64638,-5.831429 28.47907,-5.831429 18.03674,0 26.30924,6.780731 8.27249,6.645117 8.27249,21.15588 0,18.85043 -6.5095,54.92392 -5.96705,0.94931 -18.30798,1.22054 6.5095,-36.07349 6.5095,-53.83901 0,-12.61216 -5.28897,-17.087442 -5.28897,-4.475283 -15.86691,-4.475283 -7.59442,0 -20.20658,4.610897 -0.54246,-1.220531 -3.39036,-7.458804 z" />
        <path
           inkscape:connector-curvature="0"
           id="path4230"
           style="font-style:normal;font-variant:normal;font-weight:500;font-stretch:normal;font-size:162.73754883px;line-height:125%;font-family:F0nt;-inkscape-font-specification:'F0nt Medium';letter-spacing:0px;word-spacing:0px;fill:#ffffff;fill-opacity:0.94999999;stroke:none;stroke-width:1px;stroke-linecap:butt;stroke-linejoin:miter;stroke-opacity:1"
           d="m 831.79081,118.71334 q 0,-9.76425 4.74651,-16.95183 4.74651,-7.187571 13.019,-11.120395 8.40811,-4.068439 18.44359,-5.831429 10.03548,-1.898605 22.10519,-1.898605 11.25601,0 20.88465,1.491761 2.57668,-2.169834 7.18757,-5.967043 4.6109,-3.79721 5.5602,-4.610898 3.39037,0.135615 8.27249,1.762991 5.01775,1.49176 6.50951,2.712292 -4.6109,2.983522 -14.10392,9.764253 15.86691,6.645117 15.86691,22.918873 0,16.54498 -7.18758,55.19515 -13.83269,1.62738 -18.71482,1.62738 0.54246,-2.84791 1.89861,-10.71356 1.35614,-8.00126 2.03422,-12.47654 0.81369,-4.47529 1.76299,-10.84917 0.9493,-6.50951 1.35614,-11.52725 0.40685,-5.15335 0.40685,-9.22179 0,-11.79847 -8.67934,-16.816216 -25.76678,19.121666 -27.12292,23.732556 0.54246,1.22054 6.23827,2.7123 5.69581,1.49176 10.84917,1.8986 -1.35615,7.59442 -3.66159,11.39163 -0.81369,-0.27123 -2.7123,-0.67807 -1.76299,-0.54246 -2.44106,-0.81369 -2.98352,-0.54246 -4.74651,-0.54246 -3.52598,0.40684 -7.59442,2.71229 -4.06844,2.30545 -7.45881,5.28897 -3.25475,2.98352 -7.59441,8.00127 -4.20406,4.88212 -6.78074,8.27249 -2.57667,3.25475 -6.5095,8.67933 -7.86565,2.57668 -11.93408,2.57668 -2.30545,0 -3.11914,-2.71229 -2.44106,-8.54372 -4.6109,-23.05449 -2.16983,-14.51076 -2.16983,-24.95309 z M 901.2255,92.675334 q -6.50951,-0.949302 -16.00253,-0.949302 -6.64512,0 -12.74777,1.220531 -5.96705,1.084917 -11.66286,3.661595 -5.5602,2.441063 -8.95057,7.187572 -3.39036,4.74652 -3.39036,11.1204 0,17.6299 2.98352,39.05701 6.64511,-10.03548 12.34093,-16.54498 5.83143,-6.64512 12.61216,-10.30671 -2.71229,-2.03422 -2.71229,-4.06844 0,-6.64512 27.52977,-30.377676 z" />
        <path
           inkscape:connector-curvature="0"
           id="path4232"
           style="font-style:normal;font-variant:normal;font-weight:500;font-stretch:normal;font-size:162.73754883px;line-height:125%;font-family:F0nt;-inkscape-font-specification:'F0nt Medium';letter-spacing:0px;word-spacing:0px;fill:#ffffff;fill-opacity:0.94999999;stroke:none;stroke-width:1px;stroke-linecap:butt;stroke-linejoin:miter;stroke-opacity:1"
           d="m 932.89574,89.556198 q 14.64638,-5.831429 28.47907,-5.831429 18.03674,0 26.30924,6.780731 8.27249,6.645117 8.27249,21.15588 0,18.85043 -6.5095,54.92392 -5.96705,0.94931 -18.30798,1.22054 6.5095,-36.07349 6.5095,-53.83901 0,-12.61216 -5.28897,-17.087442 -5.28897,-4.475283 -15.86691,-4.475283 -7.59442,0 -20.20658,4.610897 -0.54246,-1.220531 -3.39036,-7.458804 z" />
        <path
           inkscape:connector-curvature="0"
           id="path4234"
           style="font-style:normal;font-variant:normal;font-weight:500;font-stretch:normal;font-size:162.73754883px;line-height:125%;font-family:F0nt;-inkscape-font-specification:'F0nt Medium';letter-spacing:0px;word-spacing:0px;fill:#ffffff;fill-opacity:0.94999999;stroke:none;stroke-width:1px;stroke-linecap:butt;stroke-linejoin:miter;stroke-opacity:1"
           d="m 1009.5095,149.76909 q 0,-23.05449 21.2915,-23.05449 6.1027,0 12.0697,2.16984 6.1027,2.03422 10.578,4.88213 4.4753,2.8479 9.3574,7.4588 4.8821,4.47528 7.5944,7.59442 2.7123,3.11913 6.2383,7.59442 10.8491,-13.01901 10.8491,-33.76804 0,-8.81495 -2.7123,-15.05323 -2.7122,-6.37388 -7.4588,-9.628636 -4.7465,-3.25475 -9.7642,-4.610897 -5.0178,-1.491761 -10.8492,-1.491761 -11.6628,0 -20.8846,5.153356 -9.2218,5.017738 -13.8327,12.069698 -2.7123,-0.13561 -8.4081,-1.22053 -5.5602,-1.08491 -7.4588,-2.03422 6.1026,-9.086177 20.749,-16.002523 14.782,-6.916346 34.7173,-6.916346 20.4779,0 32.2763,9.357409 11.9341,9.35741 11.9341,28.07223 0,15.18884 -6.1026,28.34345 -6.1027,13.15462 -13.9684,18.98605 -3.5259,0.9493 -9.7642,0.9493 -1.6274,0 -3.2548,-1.35614 -0.5424,-0.54246 -3.2547,-3.79721 -2.7123,-3.25475 -3.9328,-4.6109 -1.2206,-1.49176 -4.2041,-4.6109 -2.9835,-3.11913 -4.8821,-4.74651 -1.8986,-1.62737 -5.1534,-3.93282 -3.1191,-2.44107 -5.6958,-3.52598 -2.5767,-1.22053 -5.8314,-2.16984 -3.2548,-0.9493 -6.3739,-0.9493 -5.5602,0.9493 -5.5602,11.93409 0,9.62864 1.763,16.6806 -8.4081,0 -18.1724,1.08491 -1.8986,-10.17109 -1.8986,-18.85043 z" />
      </g>
    </g>
  </g>
</svg>
