<?xml version="1.0" encoding="UTF-8" standalone="no"?>
<!-- Created with Inkscape (http://www.inkscape.org/) -->

<svg
   xmlns:dc="http://purl.org/dc/elements/1.1/"
   xmlns:cc="http://creativecommons.org/ns#"
   xmlns:rdf="http://www.w3.org/1999/02/22-rdf-syntax-ns#"
   xmlns:svg="http://www.w3.org/2000/svg"
   xmlns="http://www.w3.org/2000/svg"
   xmlns:sodipodi="http://sodipodi.sourceforge.net/DTD/sodipodi-0.dtd"
   xmlns:inkscape="http://www.inkscape.org/namespaces/inkscape"
   width="720"
   height="900"
   viewBox="0 0 720.00001 900.00001"
   id="svg2"
   version="1.1"
   inkscape:version="0.91 r13725"
   sodipodi:docname="samples.svg"
   inkscape:export-filename="/home/i/repos/fontuni/fontuni.github.io/_f0nt/images/f0nt-font.png"
   inkscape:export-xdpi="90"
   inkscape:export-ydpi="90">
  <defs
     id="defs4" />
  <sodipodi:namedview
     id="base"
     pagecolor="#ffffff"
     bordercolor="#666666"
     borderopacity="1.0"
     inkscape:pageopacity="0.0"
     inkscape:pageshadow="2"
     inkscape:zoom="0.38165477"
     inkscape:cx="475.37524"
     inkscape:cy="385.56867"
     inkscape:document-units="px"
     inkscape:current-layer="g4284"
     showgrid="false"
     units="px"
     inkscape:window-width="1366"
     inkscape:window-height="732"
     inkscape:window-x="0"
     inkscape:window-y="18"
     inkscape:window-maximized="1"
     inkscape:showpageshadow="false" />
  <metadata
     id="metadata7">
    <rdf:RDF>
      <cc:Work
         rdf:about="">
        <dc:format>image/svg+xml</dc:format>
        <dc:type
           rdf:resource="http://purl.org/dc/dcmitype/StillImage" />
        <dc:title />
      </cc:Work>
    </rdf:RDF>
  </metadata>
  <g
     inkscape:groupmode="layer"
     id="layer2"
     inkscape:label="bg"
     sodipodi:insensitive="true"
     style="display:none">
    <path
       style="fill:#ffffff;fill-opacity:1;stroke:none;stroke-width:0;stroke-miterlimit:4;stroke-dasharray:none;stroke-opacity:1"
       d="m 0,0 720,0 0,900 -720,0 z"
       id="rect4700"
       inkscape:connector-curvature="0" />
  </g>
  <g
     style="display:none"
     transform="translate(0,-152.36216)"
     id="g3458"
     inkscape:groupmode="layer"
     inkscape:label="text">
    <text
       sodipodi:linespacing="94.999999%"
       id="text3460"
       y="244.76268"
       x="16.875"
       style="font-style:normal;font-variant:normal;font-weight:900;font-stretch:normal;font-size:90px;line-height:94.99999881%;font-family:'F0nt Ultra';-inkscape-font-specification:'F0nt Ultra, Heavy';text-align:start;letter-spacing:0px;word-spacing:0px;writing-mode:lr-tb;text-anchor:start;fill:#000000;fill-opacity:1;stroke:none;stroke-width:1px;stroke-linecap:butt;stroke-linejoin:miter;stroke-opacity:1"
       xml:space="preserve"><tspan
         style="font-style:normal;font-variant:normal;font-weight:100;font-stretch:normal;font-size:90px;line-height:94.99999881%;font-family:F0nt;-inkscape-font-specification:'F0nt Thin';text-align:start;writing-mode:lr-tb;text-anchor:start"
         y="244.76268"
         x="16.875"
         id="tspan3462"
         sodipodi:role="line">แฟน ฟอนต์ ฟ๐นต์</tspan><tspan
         id="tspan3464"
         style="font-style:normal;font-variant:normal;font-weight:200;font-stretch:normal;font-size:90px;line-height:94.99999881%;font-family:F0nt;-inkscape-font-specification:'F0nt Ultra-Light';text-align:start;writing-mode:lr-tb;text-anchor:start"
         y="330.21732"
         x="16.875"
         sodipodi:role="line">แฟน ฟอนต์ ฟ๐นต์</tspan><tspan
         id="tspan3466"
         style="font-style:normal;font-variant:normal;font-weight:300;font-stretch:normal;font-size:90px;line-height:94.99999881%;font-family:F0nt;-inkscape-font-specification:'F0nt Light';text-align:start;writing-mode:lr-tb;text-anchor:start"
         y="415.672"
         x="16.875"
         sodipodi:role="line">แฟน ฟอนต์ ฟ๐นต์</tspan><tspan
         id="tspan3468"
         style="font-style:normal;font-variant:normal;font-weight:normal;font-stretch:normal;font-size:90px;line-height:94.99999881%;font-family:F0nt;-inkscape-font-specification:F0nt;text-align:start;writing-mode:lr-tb;text-anchor:start"
         y="501.12677"
         x="16.875"
         sodipodi:role="line">แฟน ฟอนต์ ฟ๐นต์</tspan><tspan
         id="tspan3470"
         style="font-style:normal;font-variant:normal;font-weight:500;font-stretch:normal;font-size:90px;line-height:94.99999881%;font-family:F0nt;-inkscape-font-specification:'F0nt Medium';text-align:start;writing-mode:lr-tb;text-anchor:start"
         y="586.5816"
         x="16.875"
         sodipodi:role="line">แฟน ฟอนต์ ฟ๐นต์</tspan><tspan
         id="tspan3472"
         style="font-style:normal;font-variant:normal;font-weight:600;font-stretch:normal;font-size:90px;line-height:94.99999881%;font-family:F0nt;-inkscape-font-specification:'F0nt Semi-Bold';text-align:start;writing-mode:lr-tb;text-anchor:start"
         y="672.0365"
         x="16.875"
         sodipodi:role="line">แฟน ฟอนต์ ฟ๐นต์</tspan><tspan
         id="tspan3474"
         style="font-style:normal;font-variant:normal;font-weight:bold;font-stretch:normal;font-size:90px;line-height:94.99999881%;font-family:F0nt;-inkscape-font-specification:'F0nt Bold';text-align:start;writing-mode:lr-tb;text-anchor:start"
         y="757.49146"
         x="16.875"
         sodipodi:role="line">แฟน ฟอนต์ ฟ๐นต์</tspan><tspan
         id="tspan3476"
         style="font-style:normal;font-variant:normal;font-weight:800;font-stretch:normal;font-size:90px;line-height:94.99999881%;font-family:F0nt;-inkscape-font-specification:'F0nt Ultra-Bold';text-align:start;writing-mode:lr-tb;text-anchor:start"
         y="842.94653"
         x="16.875"
         sodipodi:role="line">แฟน ฟอนต์ ฟ๐นต์</tspan><tspan
         id="tspan3478"
         style="font-style:normal;font-variant:normal;font-weight:900;font-stretch:normal;font-size:90px;line-height:94.99999881%;font-family:F0nt;-inkscape-font-specification:'F0nt, Heavy';text-align:start;writing-mode:lr-tb;text-anchor:start"
         y="928.40161"
         x="16.875"
         sodipodi:role="line">แฟน ฟอนต์ ฟ๐นต์</tspan><tspan
         id="tspan3480"
         style="font-style:normal;font-variant:normal;font-weight:900;font-stretch:normal;font-size:90px;line-height:94.99999881%;font-family:'F0nt Ultra';-inkscape-font-specification:'F0nt Ultra, Heavy';text-align:start;writing-mode:lr-tb;text-anchor:start"
         y="1014.5621"
         x="16.875"
         sodipodi:role="line">แฟน ฟอนต์ <tspan
   style="line-height:94.99999881%;fill:#ee0033;fill-opacity:1"
   id="tspan4282">ฟ๐นต์</tspan></tspan></text>
  </g>
  <g
     inkscape:label="path"
     inkscape:groupmode="layer"
     id="g4284"
     transform="translate(0,-152.36216)"
     style="display:inline">
    <g
       style="font-style:normal;font-variant:normal;font-weight:900;font-stretch:normal;font-size:90px;line-height:94.99999881%;font-family:'F0nt Ultra';-inkscape-font-specification:'F0nt Ultra, Heavy';text-align:start;letter-spacing:0px;word-spacing:0px;writing-mode:lr-tb;text-anchor:start;fill:#000000;fill-opacity:1;stroke:none;stroke-width:1px;stroke-linecap:butt;stroke-linejoin:miter;stroke-opacity:1"
       id="text4286">
      <path
         d="m 28.125,244.91268 q 0,-9.45 0.9,-22.575 0.9,-13.2 2.25,-22.875 l 1.725,-0.15 q -1.275,9.975 -2.25,23.7 -0.975,13.65 -0.975,21.9 -0.3,0.075 -0.825,0.075 l -0.825,-0.075 z m 24,0 q 0,-9.45 0.9,-22.575 0.9,-13.2 2.25,-22.875 l 1.725,-0.15 q -1.275,9.975 -2.25,23.7 -0.975,13.65 -0.975,21.9 -0.3,0.075 -0.825,0.075 l -0.825,-0.075 z"
         style="font-style:normal;font-variant:normal;font-weight:100;font-stretch:normal;font-size:90px;line-height:94.99999881%;font-family:F0nt;-inkscape-font-specification:'F0nt Thin';text-align:start;writing-mode:lr-tb;text-anchor:start"
         id="path4311" />
      <path
         d="m 72.9,244.83768 q 1.125,-10.65 1.125,-20.325 0,-16.65 -0.75,-24.6 l 1.65,-0.15 q 0.75,9.525 0.75,27 0,4.95 -0.9,15.75 7.05,-7.875 15.3,-17.85 8.25,-9.975 12.3,-15.6 l 1.275,-0.3 q 3.975,10.275 14.475,34.875 1.575,-2.1 4.125,-7.425 2.55,-5.325 7.05,-18.45 4.575,-13.125 8.25,-29.1 l 1.725,-0.15 q -2.85,12.15 -6,22.425 -3.075,10.275 -5.55,16.275 -2.4,6 -4.5,10.275 -2.025,4.2 -3.075,5.775 l -1.125,1.65 q -0.45,0.075 -1.05,0.075 l -1.05,-0.15 q -8.85,-20.55 -14.1,-33.825 -12.525,16.2 -28.275,33.9 -0.375,0.075 -0.825,0.075 l -0.825,-0.15 z"
         style="font-style:normal;font-variant:normal;font-weight:100;font-stretch:normal;font-size:90px;line-height:94.99999881%;font-family:F0nt;-inkscape-font-specification:'F0nt Thin';text-align:start;writing-mode:lr-tb;text-anchor:start"
         id="path4313" />
      <path
         d="m 142.68516,244.91268 q 0,-9.45 0.9,-22.575 0.9,-13.2 2.25,-22.875 l 1.725,-0.15 q -2.925,23.475 -3.225,44.1 13.35,-9.975 31.35,-16.35 1.05,-15 5.55,-27.6 l 1.65,-0.15 q -4.35,13.125 -5.55,27.225 4.35,-0.975 8.025,-0.975 5.1,0 8.775,2.925 3.675,2.85 3.675,8.025 0,4.35 -3.225,6.9 -3.225,2.475 -8.25,2.475 -4.2,0 -7.575,-2.7 -3.375,-2.7 -3.375,-8.55 0,-3.075 0.225,-6.15 -16.95,6.075 -31.275,16.425 -0.3,0.075 -0.825,0.075 l -0.825,-0.075 z m 43.8,-0.15 q 4.425,0 7.125,-2.175 2.775,-2.175 2.775,-5.85 0,-4.725 -3.375,-7.35 -3.3,-2.7 -7.8,-2.7 -3.75,0 -8.025,1.275 -0.225,3.15 -0.225,6.525 0,5.55 2.925,7.95 2.925,2.325 6.6,2.325 z"
         style="font-style:normal;font-variant:normal;font-weight:100;font-stretch:normal;font-size:90px;line-height:94.99999881%;font-family:F0nt;-inkscape-font-specification:'F0nt Thin';text-align:start;writing-mode:lr-tb;text-anchor:start"
         id="path4315" />
      <path
         d="m 227.06016,244.83768 q 1.125,-10.65 1.125,-20.325 0,-16.65 -0.75,-24.6 l 1.65,-0.15 q 0.75,9.525 0.75,27 0,4.95 -0.9,15.75 7.05,-7.875 15.3,-17.85 8.25,-9.975 12.3,-15.6 l 1.275,-0.3 q 3.975,10.275 14.475,34.875 1.575,-2.1 4.125,-7.425 2.55,-5.325 7.05,-18.45 4.575,-13.125 8.25,-29.1 l 1.725,-0.15 q -2.85,12.15 -6,22.425 -3.075,10.275 -5.55,16.275 -2.4,6 -4.5,10.275 -2.025,4.2 -3.075,5.775 l -1.125,1.65 q -0.45,0.075 -1.05,0.075 l -1.05,-0.15 q -8.85,-20.55 -14.1,-33.825 -12.525,16.2 -28.275,33.9 -0.375,0.075 -0.825,0.075 l -0.825,-0.15 z"
         style="font-style:normal;font-variant:normal;font-weight:100;font-stretch:normal;font-size:90px;line-height:94.99999881%;font-family:F0nt;-inkscape-font-specification:'F0nt Thin';text-align:start;writing-mode:lr-tb;text-anchor:start"
         id="path4317" />
      <path
         d="m 292.79531,227.58768 q 0,-4.65 6.3,-4.65 6.525,0 12.45,0.9 l -0.375,1.125 q -5.4,-0.9 -12.075,-0.9 -4.8,0 -4.8,3.525 0,6.825 5.925,12 6,5.1 15.525,5.1 12.45,0 21.075,-6.675 8.7,-6.75 8.7,-17.175 0,-9.3 -6.6,-15.15 -6.6,-5.85 -16.425,-5.85 -8.7,0 -15.375,3.075 -6.675,3.075 -10.05,7.725 l -1.425,-0.525 q 3.6,-4.95 10.65,-8.175 7.125,-3.3 16.2,-3.3 10.5,0 17.55,6.225 7.125,6.225 7.125,15.975 0,10.875 -9.15,18 -9.15,7.05 -22.275,7.05 -10.2,0 -16.575,-5.475 -6.375,-5.55 -6.375,-12.825 z"
         style="font-style:normal;font-variant:normal;font-weight:100;font-stretch:normal;font-size:90px;line-height:94.99999881%;font-family:F0nt;-inkscape-font-specification:'F0nt Thin';text-align:start;writing-mode:lr-tb;text-anchor:start"
         id="path4319" />
      <path
         d="m 354.15,244.91268 q 0,-9.45 0.9,-22.575 0.9,-13.2 2.25,-22.875 l 1.725,-0.15 q -2.925,23.325 -3.225,44.1 7.8,-6.075 14.4,-9.975 6.6,-3.9 14.25,-7.05 1.05,-14.025 5.55,-26.925 l 1.65,-0.15 q 3.3,5.475 9.375,9 6.075,3.45 14.25,3.45 16.2,0 26.925,-12.75 l 1.575,-0.15 q 0,16.425 -5.625,45.9 l -1.8,0.225 q 4.8,-26.85 5.775,-43.95 -10.425,11.775 -27.6,11.775 -7.875,0 -14.025,-3.3 -6.075,-3.3 -9.45,-8.325 -3.975,12.45 -4.95,24.6 6.75,-2.25 13.425,-2.25 7.575,0 12,2.775 4.5,2.7 4.5,7.95 0,5.625 -4.95,8.625 -4.875,3 -11.925,3 -2.7,0 -5.175,-0.6 -2.475,-0.6 -4.8,-1.875 -2.325,-1.35 -3.675,-3.9 -1.35,-2.55 -1.35,-6 0,-3.9 0.15,-5.775 -15.375,6.75 -28.5,17.175 -0.3,0.075 -0.825,0.075 l -0.825,-0.075 z m 31.8,-17.85 q -0.225,3.15 -0.225,6.45 0,3.225 1.275,5.55 1.35,2.325 3.6,3.525 2.25,1.125 4.5,1.65 2.325,0.525 4.8,0.525 5.625,0 10.05,-2.775 4.5,-2.85 4.5,-7.35 0,-9.975 -16.05,-9.975 -5.85,0 -12.45,2.4 z"
         style="font-style:normal;font-variant:normal;font-weight:100;font-stretch:normal;font-size:90px;line-height:94.99999881%;font-family:F0nt;-inkscape-font-specification:'F0nt Thin';text-align:start;writing-mode:lr-tb;text-anchor:start"
         id="path4321" />
      <path
         d="m 418.29141,195.26268 q 0,-6.825 6.3,-10.95 5.85,-3.675 20.025,-3.675 2.175,0 2.925,0.075 0,0.75 -0.225,1.2 -0.825,-0.075 -2.775,-0.075 -13.5,0 -19.05,3.375 -5.7,3.525 -5.7,9.9 -1.05,0 -1.5,0.15 z"
         style="font-style:normal;font-variant:normal;font-weight:100;font-stretch:normal;font-size:90px;line-height:94.99999881%;font-family:F0nt;-inkscape-font-specification:'F0nt Thin';text-align:start;writing-mode:lr-tb;text-anchor:start"
         id="path4323" />
      <path
         d="m 478.25156,244.83768 q 1.125,-10.65 1.125,-20.325 0,-16.65 -0.75,-24.6 l 1.65,-0.15 q 0.75,9.525 0.75,27 0,4.95 -0.9,15.75 7.05,-7.875 15.3,-17.85 8.25,-9.975 12.3,-15.6 l 1.275,-0.3 q 3.975,10.275 14.475,34.875 1.575,-2.1 4.125,-7.425 2.55,-5.325 7.05,-18.45 4.575,-13.125 8.25,-29.1 l 1.725,-0.15 q -2.85,12.15 -6,22.425 -3.075,10.275 -5.55,16.275 -2.4,6 -4.5,10.275 -2.025,4.2 -3.075,5.775 l -1.125,1.65 q -0.45,0.075 -1.05,0.075 l -1.05,-0.15 q -8.85,-20.55 -14.1,-33.825 -12.525,16.2 -28.275,33.9 -0.375,0.075 -0.825,0.075 l -0.825,-0.15 z"
         style="font-style:normal;font-variant:normal;font-weight:100;font-stretch:normal;font-size:90px;line-height:94.99999881%;font-family:F0nt;-inkscape-font-specification:'F0nt Thin';text-align:start;writing-mode:lr-tb;text-anchor:start"
         id="path4325" />
      <path
         d="m 567.98672,245.88768 q -9.975,0 -16.875,-6.225 -6.825,-6.225 -6.825,-15.525 0,-11.175 8.925,-18.3 8.925,-7.2 21.75,-7.2 10.425,0 17.4,6.3 7.05,6.225 7.05,15.9 0,5.925 -2.775,10.8 -2.775,4.875 -7.275,7.95 -4.5,3 -10.05,4.65 -5.55,1.65 -11.325,1.65 z m 0.15,-1.425 q 7.65,0 14.325,-2.7 6.675,-2.7 10.95,-8.175 4.35,-5.55 4.35,-12.75 0,-9.225 -6.6,-15 -6.6,-5.775 -16.425,-5.775 -12.075,0 -20.475,6.75 -8.325,6.675 -8.325,17.325 0,8.85 6.375,14.625 6.45,5.7 15.825,5.7 z"
         style="font-style:normal;font-variant:normal;font-weight:100;font-stretch:normal;font-size:90px;line-height:94.99999881%;font-family:F0nt;-inkscape-font-specification:'F0nt Thin';text-align:start;writing-mode:lr-tb;text-anchor:start"
         id="path4327" />
      <path
         d="m 606.57187,244.91268 q 0,-9.45 0.9,-22.575 0.90001,-13.2 2.25,-22.875 l 1.725,-0.15 q -2.92499,23.325 -3.225,44.1 7.80001,-6.075 14.40001,-9.975 6.59999,-3.9 14.25,-7.05 1.04999,-14.025 5.54999,-26.925 l 1.65,-0.15 q 3.30001,5.475 9.375,9 6.07501,3.45 14.25,3.45 16.20001,0 26.92501,-12.75 l 1.57499,-0.15 q 0,16.425 -5.625,45.9 l -1.79999,0.225 q 4.79999,-26.85 5.77499,-43.95 -10.42499,11.775 -27.6,11.775 -7.875,0 -14.025,-3.3 -6.075,-3.3 -9.45,-8.325 -3.97499,12.45 -4.94999,24.6 6.75,-2.25 13.42499,-2.25 7.57501,0 12,2.775 4.5,2.7 4.5,7.95 0,5.625 -4.94999,8.625 -4.875,3 -11.92501,3 -2.69999,0 -5.17499,-0.6 -2.47501,-0.6 -4.80001,-1.875 -2.32499,-1.35 -3.675,-3.9 -1.35,-2.55 -1.35,-6 0,-3.9 0.15,-5.775 -15.375,6.75 -28.5,17.175 -0.3,0.075 -0.82499,0.075 l -0.82501,-0.075 z m 31.80001,-17.85 q -0.225,3.15 -0.225,6.45 0,3.225 1.27499,5.55 1.35001,2.325 3.60001,3.525 2.25,1.125 4.5,1.65 2.32499,0.525 4.79999,0.525 5.625,0 10.05001,-2.775 4.5,-2.85 4.5,-7.35 0,-9.975 -16.05001,-9.975 -5.85,0 -12.44999,2.4 z"
         style="font-style:normal;font-variant:normal;font-weight:100;font-stretch:normal;font-size:90px;line-height:94.99999881%;font-family:F0nt;-inkscape-font-specification:'F0nt Thin';text-align:start;writing-mode:lr-tb;text-anchor:start"
         id="path4329" />
      <path
         d="m 670.71328,195.26268 q 0,-6.825 6.3,-10.95 5.85,-3.675 20.025,-3.675 2.175,0 2.925,0.075 0,0.75 -0.225,1.2 -0.825,-0.075 -2.775,-0.075 -13.5,0 -19.05,3.375 -5.7,3.525 -5.7,9.9 -1.05,0 -1.5,0.15 z"
         style="font-style:normal;font-variant:normal;font-weight:100;font-stretch:normal;font-size:90px;line-height:94.99999881%;font-family:F0nt;-inkscape-font-specification:'F0nt Thin';text-align:start;writing-mode:lr-tb;text-anchor:start"
         id="path4331" />
      <path
         d="m 27,330.36731 q 0,-9.15 0.9,-22.5 0.975,-13.35 2.25,-22.8 0.225,0 1.95,-0.15 1.8,-0.15 1.95,-0.15 -1.275,9.675 -2.325,23.55 -0.975,13.8 -0.975,22.05 -0.075,0 -0.375,0 -0.3,0.075 -0.75,0.075 -0.375,0.075 -0.75,0.075 -1.425,0 -1.875,-0.15 z m 24.075,0 q 0,-9.15 0.9,-22.5 0.975,-13.35 2.25,-22.8 0.225,0 1.95,-0.15 1.8,-0.15 1.95,-0.15 -1.275,9.675 -2.325,23.55 -0.975,13.8 -0.975,22.05 -0.075,0 -0.375,0 -0.3,0.075 -0.75,0.075 -0.375,0.075 -0.75,0.075 -1.425,0 -1.875,-0.15 z"
         style="font-style:normal;font-variant:normal;font-weight:200;font-stretch:normal;font-size:90px;line-height:94.99999881%;font-family:F0nt;-inkscape-font-specification:'F0nt Ultra-Light';text-align:start;writing-mode:lr-tb;text-anchor:start"
         id="path4333" />
      <path
         d="m 72.375,330.29231 q 1.125,-11.25 1.125,-20.55 0,-15.975 -0.75,-24.3 2.025,0 3.825,-0.225 0.45,7.575 0.45,16.875 0,0 0,11.1 0,4.725 -0.675,13.2 6.45,-7.425 14.175,-16.95 7.725,-9.6 11.325,-14.7 0.3,-0.075 1.2,-0.3 0.975,-0.225 1.2,-0.225 4.275,11.4 13.425,33.45 1.95,-3.075 4.35,-8.4 2.4,-5.4 6.45,-17.775 4.125,-12.375 7.5,-27.3 2.025,-0.225 3.9,-0.225 -2.85,12.225 -5.925,22.5 -3.075,10.275 -5.4,16.2 -2.25,5.85 -4.35,10.2 -2.1,4.35 -3,5.775 -0.9,1.425 -1.2,1.725 -0.45,0.15 -2.025,0.15 -0.525,0 -1.425,-0.075 l -0.825,-0.075 q -8.7,-20.55 -13.2,-32.175 -11.625,15.225 -26.55,32.175 -0.3,0.15 -1.725,0.15 -1.425,0 -1.875,-0.225 z"
         style="font-style:normal;font-variant:normal;font-weight:200;font-stretch:normal;font-size:90px;line-height:94.99999881%;font-family:F0nt;-inkscape-font-specification:'F0nt Ultra-Light';text-align:start;writing-mode:lr-tb;text-anchor:start"
         id="path4335" />
      <path
         d="m 142.16016,330.36731 q 0,-9.15 0.9,-22.5 0.975,-13.35 2.25,-22.8 0.225,0 1.95,-0.15 1.8,-0.15 1.95,-0.15 -2.925,22.575 -3.3,42.675 12.45,-9.3 28.95,-15.15 1.2,-14.625 5.475,-27.3 1.8,-0.225 3.75,-0.225 -4.5,13.65 -5.625,26.475 3.75,-0.75 6.9,-0.75 5.55,0 9.3,3 3.75,2.925 3.75,8.175 0,4.65 -3.45,7.2 -3.45,2.55 -8.775,2.55 -4.65,0 -8.175,-2.775 -3.45,-2.85 -3.45,-8.7 0,-1.725 0.15,-5.475 -15.9,5.925 -28.8,15.9 -0.075,0 -0.375,0 -0.3,0.075 -0.75,0.075 -0.375,0.075 -0.75,0.075 -1.425,0 -1.875,-0.15 z m 44.325,-0.825 q 4.05,0 6.6,-2.025 2.55,-2.1 2.55,-5.625 0,-4.5 -3.15,-6.975 -3.075,-2.55 -7.5,-2.55 -3.525,0 -6.675,0.9 -0.525,4.725 -0.525,6.6 0,5.175 2.625,7.425 2.7,2.25 6.075,2.25 z"
         style="font-style:normal;font-variant:normal;font-weight:200;font-stretch:normal;font-size:90px;line-height:94.99999881%;font-family:F0nt;-inkscape-font-specification:'F0nt Ultra-Light';text-align:start;writing-mode:lr-tb;text-anchor:start"
         id="path4337" />
      <path
         d="m 226.53516,330.29231 q 1.125,-11.25 1.125,-20.55 0,-15.975 -0.75,-24.3 2.025,0 3.825,-0.225 0.45,7.575 0.45,16.875 0,0 0,11.1 0,4.725 -0.675,13.2 6.45,-7.425 14.175,-16.95 7.725,-9.6 11.325,-14.7 0.3,-0.075 1.2,-0.3 0.975,-0.225 1.2,-0.225 4.275,11.4 13.425,33.45 1.95,-3.075 4.35,-8.4 2.4,-5.4 6.45,-17.775 4.125,-12.375 7.5,-27.3 2.025,-0.225 3.9,-0.225 -2.85,12.225 -5.925,22.5 -3.075,10.275 -5.4,16.2 -2.25,5.85 -4.35,10.2 -2.1,4.35 -3,5.775 -0.9,1.425 -1.2,1.725 -0.45,0.15 -2.025,0.15 -0.525,0 -1.425,-0.075 l -0.825,-0.075 q -8.7,-20.55 -13.2,-32.175 -11.625,15.225 -26.55,32.175 -0.3,0.15 -1.725,0.15 -1.425,0 -1.875,-0.225 z"
         style="font-style:normal;font-variant:normal;font-weight:200;font-stretch:normal;font-size:90px;line-height:94.99999881%;font-family:F0nt;-inkscape-font-specification:'F0nt Ultra-Light';text-align:start;writing-mode:lr-tb;text-anchor:start"
         id="path4339" />
      <path
         d="m 295.64531,311.76731 q -0.075,0.3 -0.075,1.05 0.15,6.75 5.85,11.625 5.7,4.875 14.7,4.875 11.55,0 19.65,-6.525 8.1,-6.525 8.1,-16.35 0,-9.075 -6.3,-14.7 -6.3,-5.625 -15.45,-5.625 -8.175,0 -14.475,3 -6.225,3 -9.375,7.5 -1.125,0 -3.225,-0.825 3.6,-4.95 10.8,-8.325 7.275,-3.45 16.875,-3.45 10.95,0 17.925,6.225 7.05,6.225 7.05,15.9 0,7.35 -4.5,13.2 -4.425,5.85 -11.775,9 -7.35,3.075 -15.975,3.075 -10.5,0 -16.875,-5.55 -6.375,-5.55 -6.375,-12.825 0,-5.175 7.275,-5.175 6.525,0 12.75,0.975 -0.075,0.15 -0.45,0.975 -0.3,0.825 -0.3,0.975 -5.25,-0.9 -11.55,-0.9 -3.375,0 -4.275,1.875 z"
         style="font-style:normal;font-variant:normal;font-weight:200;font-stretch:normal;font-size:90px;line-height:94.99999881%;font-family:F0nt;-inkscape-font-specification:'F0nt Ultra-Light';text-align:start;writing-mode:lr-tb;text-anchor:start"
         id="path4341" />
      <path
         d="m 353.625,330.36731 q 0,-9.15 0.9,-22.5 0.975,-13.35 2.25,-22.8 0.225,0 1.95,-0.15 1.8,-0.15 1.95,-0.15 -2.925,22.425 -3.3,42.675 13.65,-10.65 26.55,-15.9 1.125,-13.725 5.475,-26.55 1.8,-0.225 3.75,-0.225 3.225,5.325 9,8.7 5.775,3.375 13.425,3.375 15.3,0 25.2,-12.225 1.8,-0.3 3.6,-0.3 -0.225,17.475 -5.55,45.825 -1.5,0.375 -3.975,0.375 4.275,-23.775 5.7,-42.3 -10.425,10.425 -26.25,10.425 -7.2,0 -12.975,-2.85 -5.775,-2.925 -9.375,-7.35 -3.45,11.625 -4.35,21.75 5.85,-1.725 11.85,-1.725 8.025,0 12.6,2.85 4.575,2.85 4.575,8.175 0,5.775 -5.25,8.85 -5.25,3.075 -12.45,3.075 -6.375,0 -10.875,-2.925 -4.425,-3 -4.425,-9.525 0,-1.8 0.15,-5.4 -13.575,6.075 -26.4,16.8 -0.075,0 -0.375,0 -0.3,0.075 -0.75,0.075 -0.375,0.075 -0.75,0.075 -1.425,0 -1.875,-0.15 z m 33.825,-18.225 q -0.375,5.4 -0.375,6.825 0,3 1.2,5.175 1.2,2.175 3.225,3.3 2.025,1.125 4.125,1.65 2.1,0.45 4.425,0.45 5.175,0 9.3,-2.625 4.125,-2.7 4.125,-6.975 0,-9.6 -15.3,-9.6 -4.425,0 -10.725,1.8 z"
         style="font-style:normal;font-variant:normal;font-weight:200;font-stretch:normal;font-size:90px;line-height:94.99999881%;font-family:F0nt;-inkscape-font-specification:'F0nt Ultra-Light';text-align:start;writing-mode:lr-tb;text-anchor:start"
         id="path4343" />
      <path
         d="m 417.69141,280.71731 q 0,-6.9 6.45,-11.1 6.225,-3.9 20.625,-3.9 2.475,0 3.3,0.075 -0.3,1.5 -0.6,2.1 -0.9,-0.075 -3,-0.075 -12.675,0 -17.925,3.15 -5.475,3.375 -5.475,9.525 -2.475,0 -3.375,0.225 z"
         style="font-style:normal;font-variant:normal;font-weight:200;font-stretch:normal;font-size:90px;line-height:94.99999881%;font-family:F0nt;-inkscape-font-specification:'F0nt Ultra-Light';text-align:start;writing-mode:lr-tb;text-anchor:start"
         id="path4345" />
      <path
         d="m 477.72656,330.29231 q 1.125,-11.25 1.125,-20.55 0,-15.975 -0.75,-24.3 2.025,0 3.825,-0.225 0.45,7.575 0.45,16.875 0,0 0,11.1 0,4.725 -0.675,13.2 6.45,-7.425 14.175,-16.95 7.725,-9.6 11.325,-14.7 0.3,-0.075 1.2,-0.3 0.975,-0.225 1.2,-0.225 4.275,11.4 13.425,33.45 1.95,-3.075 4.35,-8.4 2.4,-5.4 6.45,-17.775 4.125,-12.375 7.5,-27.3 2.025,-0.225 3.9,-0.225 -2.85,12.225 -5.925,22.5 -3.075,10.275 -5.4,16.2 -2.25,5.85 -4.35,10.2 -2.1,4.35 -3,5.775 -0.9,1.425 -1.2,1.725 -0.45,0.15 -2.025,0.15 -0.525,0 -1.425,-0.075 l -0.825,-0.075 q -8.7,-20.55 -13.2,-32.175 -11.625,15.225 -26.55,32.175 -0.3,0.15 -1.725,0.15 -1.425,0 -1.875,-0.225 z"
         style="font-style:normal;font-variant:normal;font-weight:200;font-stretch:normal;font-size:90px;line-height:94.99999881%;font-family:F0nt;-inkscape-font-specification:'F0nt Ultra-Light';text-align:start;writing-mode:lr-tb;text-anchor:start"
         id="path4347" />
      <path
         d="m 567.76172,331.41731 q -10.35,0 -17.175,-6.15 -6.825,-6.225 -6.825,-15.525 0,-11.325 9.225,-18.525 9.225,-7.2 22.275,-7.2 10.8,0 17.775,6.225 6.975,6.225 6.975,15.9 0,7.875 -4.95,13.8 -4.875,5.925 -12.075,8.7 -7.2,2.775 -15.225,2.775 z m 0.825,-2.325 q 5.325,0 10.275,-1.575 4.95,-1.575 8.775,-4.425 3.9,-2.85 6.225,-7.125 2.325,-4.35 2.325,-9.525 0,-9 -6.3,-14.55 -6.225,-5.55 -15.45,-5.55 -11.25,0 -19.05,6.525 -7.8,6.45 -7.8,16.575 0,8.625 6.075,14.175 6.15,5.475 14.925,5.475 z"
         style="font-style:normal;font-variant:normal;font-weight:200;font-stretch:normal;font-size:90px;line-height:94.99999881%;font-family:F0nt;-inkscape-font-specification:'F0nt Ultra-Light';text-align:start;writing-mode:lr-tb;text-anchor:start"
         id="path4349" />
      <path
         d="m 606.04687,330.36731 q 0,-9.15 0.9,-22.5 0.975,-13.35 2.25,-22.8 0.225,0 1.95001,-0.15 1.79999,-0.15 1.94999,-0.15 -2.925,22.425 -3.3,42.675 13.65,-10.65 26.55,-15.9 1.125,-13.725 5.475,-26.55 1.80001,-0.225 3.75,-0.225 3.225,5.325 9,8.7 5.775,3.375 13.42501,3.375 15.29999,0 25.19999,-12.225 1.80001,-0.3 3.6,-0.3 -0.225,17.475 -5.54999,45.825 -1.5,0.375 -3.975,0.375 4.27499,-23.775 5.69999,-42.3 -10.425,10.425 -26.25,10.425 -7.19999,0 -12.97499,-2.85 -5.77501,-2.925 -9.375,-7.35 -3.45001,11.625 -4.35,21.75 5.85,-1.725 11.85,-1.725 8.025,0 12.59999,2.85 4.575,2.85 4.575,8.175 0,5.775 -5.25,8.85 -5.25,3.075 -12.45,3.075 -6.375,0 -10.875,-2.925 -4.425,-3 -4.425,-9.525 0,-1.8 0.15,-5.4 -13.57499,6.075 -26.4,16.8 -0.075,0 -0.375,0 -0.29999,0.075 -0.75,0.075 -0.375,0.075 -0.75,0.075 -1.42499,0 -1.875,-0.15 z m 33.82501,-18.225 q -0.375,5.4 -0.375,6.825 0,3 1.19999,5.175 1.20001,2.175 3.225,3.3 2.025,1.125 4.125,1.65 2.10001,0.45 4.425,0.45 5.17501,0 9.30001,-2.625 4.125,-2.7 4.125,-6.975 0,-9.6 -15.30001,-9.6 -4.425,0 -10.72499,1.8 z"
         style="font-style:normal;font-variant:normal;font-weight:200;font-stretch:normal;font-size:90px;line-height:94.99999881%;font-family:F0nt;-inkscape-font-specification:'F0nt Ultra-Light';text-align:start;writing-mode:lr-tb;text-anchor:start"
         id="path4351" />
      <path
         d="m 670.11328,280.71731 q 0,-6.9 6.45,-11.1 6.225,-3.9 20.625,-3.9 2.475,0 3.3,0.075 -0.3,1.5 -0.6,2.1 -0.9,-0.075 -3,-0.075 -12.675,0 -17.925,3.15 -5.475,3.375 -5.475,9.525 -2.475,0 -3.375,0.225 z"
         style="font-style:normal;font-variant:normal;font-weight:200;font-stretch:normal;font-size:90px;line-height:94.99999881%;font-family:F0nt;-inkscape-font-specification:'F0nt Ultra-Light';text-align:start;writing-mode:lr-tb;text-anchor:start"
         id="path4353" />
      <path
         d="m 25.875,415.822 q 0,-8.85 0.975,-22.425 0.975,-13.65 2.25,-22.8 2.625,0 6,-0.375 -1.275,9.75 -2.4,23.775 -1.05,13.95 -1.05,21.9 -0.6,0.15 -2.85,0.15 -1.575,0 -2.925,-0.225 z m 24.15,0 q 0,-8.85 0.975,-22.425 0.975,-13.65 2.25,-22.8 2.625,0 6,-0.375 -1.275,9.75 -2.4,23.775 -1.05,13.95 -1.05,21.9 -0.6,0.15 -2.85,0.15 -1.575,0 -2.925,-0.225 z"
         style="font-style:normal;font-variant:normal;font-weight:300;font-stretch:normal;font-size:90px;line-height:94.99999881%;font-family:F0nt;-inkscape-font-specification:'F0nt Light';text-align:start;writing-mode:lr-tb;text-anchor:start"
         id="path4355" />
      <path
         d="m 71.775,415.747 q 1.125,-11.25 1.125,-20.85 0,-15.075 -0.75,-23.85 2.925,0 5.925,-0.375 0.375,6.375 0.375,13.725 0,2.625 -0.075,7.65 -0.075,5.025 -0.075,7.65 0,2.775 -0.525,10.8 13.65,-16.125 23.625,-30.075 1.05,-0.075 3.525,-0.75 0.75,1.875 3.375,8.85 2.7,6.9 5.1,13.125 2.475,6.225 3.975,10.05 3.225,-5.4 7.8,-18.375 4.65,-13.05 9.225,-33.525 3.375,-0.375 6,-0.375 -2.775,12.3 -5.775,22.575 -3,10.275 -5.25,16.125 -2.175,5.775 -4.275,10.2 -2.1,4.35 -3,5.7 -0.825,1.35 -1.2,1.8 -1.35,0.225 -3.075,0.225 -1.725,0 -3.3,-0.225 -8.325,-19.95 -12.225,-30.375 -11.025,14.7 -24.9,30.45 -0.45,0.15 -2.7,0.15 -1.725,0 -2.925,-0.3 z"
         style="font-style:normal;font-variant:normal;font-weight:300;font-stretch:normal;font-size:90px;line-height:94.99999881%;font-family:F0nt;-inkscape-font-specification:'F0nt Light';text-align:start;writing-mode:lr-tb;text-anchor:start"
         id="path4357" />
      <path
         d="m 141.56016,415.822 q 0,-8.85 0.975,-22.425 0.975,-13.65 2.25,-22.8 2.625,0 6,-0.375 -2.7,20.475 -3.375,41.4 12,-8.925 26.55,-14.025 1.05,-13.725 5.325,-27.075 4.5,-0.3 5.925,-0.3 -4.5,14.1 -5.7,25.8 2.475,-0.525 5.775,-0.525 6,0 9.825,3 3.825,2.925 3.825,8.25 0,4.875 -3.75,7.575 -3.675,2.625 -9.225,2.625 -5.175,0 -8.775,-2.85 -3.525,-2.925 -3.525,-8.775 0,-1.65 0.15,-4.95 -14.775,5.85 -26.475,15.525 -0.6,0.15 -2.85,0.15 -1.575,0 -2.925,-0.225 z m 44.925,-1.5 q 3.75,0 6,-1.875 2.325,-1.95 2.325,-5.325 0,-4.275 -3,-6.675 -2.925,-2.4 -7.2,-2.4 -2.25,0 -5.475,0.675 -0.675,4.425 -0.675,6.45 0,4.95 2.4,7.05 2.475,2.1 5.625,2.1 z"
         style="font-style:normal;font-variant:normal;font-weight:300;font-stretch:normal;font-size:90px;line-height:94.99999881%;font-family:F0nt;-inkscape-font-specification:'F0nt Light';text-align:start;writing-mode:lr-tb;text-anchor:start"
         id="path4359" />
      <path
         d="m 225.93516,415.747 q 1.125,-11.25 1.125,-20.85 0,-15.075 -0.75,-23.85 2.925,0 5.925,-0.375 0.375,6.375 0.375,13.725 0,2.625 -0.075,7.65 -0.075,5.025 -0.075,7.65 0,2.775 -0.525,10.8 13.65,-16.125 23.625,-30.075 1.05,-0.075 3.525,-0.75 0.75,1.875 3.375,8.85 2.7,6.9 5.1,13.125 2.475,6.225 3.975,10.05 3.225,-5.4 7.8,-18.375 4.65,-13.05 9.225,-33.525 3.375,-0.375 6,-0.375 -2.775,12.3 -5.775,22.575 -3,10.275 -5.25,16.125 -2.175,5.775 -4.275,10.2 -2.1,4.35 -3,5.7 -0.825,1.35 -1.2,1.8 -1.35,0.225 -3.075,0.225 -1.725,0 -3.3,-0.225 -8.325,-19.95 -12.225,-30.375 -11.025,14.7 -24.9,30.45 -0.45,0.15 -2.7,0.15 -1.725,0 -2.925,-0.3 z"
         style="font-style:normal;font-variant:normal;font-weight:300;font-stretch:normal;font-size:90px;line-height:94.99999881%;font-family:F0nt;-inkscape-font-specification:'F0nt Light';text-align:start;writing-mode:lr-tb;text-anchor:start"
         id="path4361" />
      <path
         d="m 296.84531,397.372 q 0,0 0,0.675 0.225,6.675 5.7,11.25 5.55,4.575 14.025,4.575 10.8,0 18.3,-6.225 7.5,-6.3 7.5,-15.525 0,-8.85 -6.075,-14.25 -6,-5.4 -14.55,-5.4 -7.575,0 -13.425,2.925 -5.775,2.925 -8.7,7.2 -0.525,0 -2.55,-0.45 -2.025,-0.45 -2.55,-0.675 3.45,-5.025 10.95,-8.55 7.575,-3.525 17.625,-3.525 11.25,0 18.225,6.3 6.975,6.225 6.975,15.825 0,7.5 -4.65,13.425 -4.65,5.85 -12.15,8.925 -7.5,3.075 -16.2,3.075 -10.8,0 -17.25,-5.625 -6.375,-5.625 -6.375,-12.75 0,-2.925 2.25,-4.275 2.325,-1.35 6,-1.35 6.525,0 13.05,1.05 -0.075,0.15 -0.525,1.35 -0.45,1.2 -0.525,1.425 -5.25,-0.9 -11.1,-0.9 -3.15,0 -3.975,1.5 z"
         style="font-style:normal;font-variant:normal;font-weight:300;font-stretch:normal;font-size:90px;line-height:94.99999881%;font-family:F0nt;-inkscape-font-specification:'F0nt Light';text-align:start;writing-mode:lr-tb;text-anchor:start"
         id="path4363" />
      <path
         d="m 353.025,415.822 q 0,-8.85 0.975,-22.425 0.975,-13.65 2.25,-22.8 2.625,0 6,-0.375 -2.7,20.475 -3.375,41.325 13.05,-10.35 24.45,-14.925 0.975,-12.6 5.325,-26.1 4.5,-0.3 5.925,-0.3 3.15,5.25 8.625,8.55 5.55,3.225 12.675,3.225 14.25,0 23.475,-11.85 2.25,-0.375 5.55,-0.375 -0.45,18.6 -5.55,45.675 -5.4,0.6 -6.075,0.6 3.75,-20.25 5.7,-40.875 -10.05,9.225 -24.975,9.225 -12.825,0 -21.075,-8.925 -2.85,9.825 -3.825,19.275 5.7,-1.35 10.2,-1.35 8.475,0 13.125,2.925 4.725,2.925 4.725,8.4 0,5.925 -5.625,9.075 -5.55,3.15 -12.825,3.15 -3.075,0 -5.775,-0.675 -2.7,-0.675 -5.025,-2.1 -2.25,-1.425 -3.6,-3.9 -1.275,-2.55 -1.275,-5.85 0,-1.725 0.15,-5.025 -11.925,5.475 -24.375,16.5 -0.6,0.15 -2.85,0.15 -1.575,0 -2.925,-0.225 z m 35.85,-18.525 q -0.525,5.25 -0.525,7.125 0,5.325 3.525,7.65 3.525,2.25 8.25,2.25 4.725,0 8.475,-2.55 3.825,-2.55 3.825,-6.525 0,-9.3 -14.475,-9.3 -3.975,0 -9.075,1.35 z"
         style="font-style:normal;font-variant:normal;font-weight:300;font-stretch:normal;font-size:90px;line-height:94.99999881%;font-family:F0nt;-inkscape-font-specification:'F0nt Light';text-align:start;writing-mode:lr-tb;text-anchor:start"
         id="path4365" />
      <path
         d="m 417.16641,366.172 q 0,-6.975 6.675,-11.25 6.6,-4.125 21.225,-4.125 2.625,0 3.6,0.075 -0.525,2.175 -0.975,2.925 -0.9,-0.075 -3.225,-0.075 -11.775,0 -16.875,3.075 -5.1,3.15 -5.1,9 -2.925,0 -5.325,0.375 z"
         style="font-style:normal;font-variant:normal;font-weight:300;font-stretch:normal;font-size:90px;line-height:94.99999881%;font-family:F0nt;-inkscape-font-specification:'F0nt Light';text-align:start;writing-mode:lr-tb;text-anchor:start"
         id="path4367" />
      <path
         d="m 477.12656,415.747 q 1.125,-11.25 1.125,-20.85 0,-15.075 -0.75,-23.85 2.925,0 5.925,-0.375 0.375,6.375 0.375,13.725 0,2.625 -0.075,7.65 -0.075,5.025 -0.075,7.65 0,2.775 -0.525,10.8 13.65,-16.125 23.625,-30.075 1.05,-0.075 3.525,-0.75 0.75,1.875 3.375,8.85 2.7,6.9 5.1,13.125 2.475,6.225 3.975,10.05 3.225,-5.4 7.8,-18.375 4.65,-13.05 9.225,-33.525 3.375,-0.375 6,-0.375 -2.775,12.3 -5.775,22.575 -3,10.275 -5.25,16.125 -2.175,5.775 -4.275,10.2 -2.1,4.35 -3,5.7 -0.825,1.35 -1.2,1.8 -1.35,0.225 -3.075,0.225 -1.725,0 -3.3,-0.225 -8.325,-19.95 -12.225,-30.375 -11.025,14.7 -24.9,30.45 -0.45,0.15 -2.7,0.15 -1.725,0 -2.925,-0.3 z"
         style="font-style:normal;font-variant:normal;font-weight:300;font-stretch:normal;font-size:90px;line-height:94.99999881%;font-family:F0nt;-inkscape-font-specification:'F0nt Light';text-align:start;writing-mode:lr-tb;text-anchor:start"
         id="path4369" />
      <path
         d="m 567.53672,416.947 q -10.725,0 -17.55,-6.225 -6.825,-6.225 -6.825,-15.45 0,-7.65 4.5,-13.65 4.575,-6 11.85,-9.075 7.35,-3.15 15.975,-3.15 11.175,0 18.075,6.3 6.975,6.225 6.975,15.825 0,4.875 -1.95,9.075 -1.875,4.125 -5.175,7.125 -3.225,2.925 -7.5,5.1 -4.2,2.1 -8.925,3.075 -4.65,1.05 -9.45,1.05 z m 1.425,-3.225 q 10.35,0 18,-6 7.65,-6 7.65,-15.6 0,-8.775 -6.075,-14.1 -6,-5.4 -14.55,-5.4 -10.425,0 -17.625,6.225 -7.2,6.225 -7.2,15.825 0,8.475 5.775,13.8 5.85,5.25 14.025,5.25 z"
         style="font-style:normal;font-variant:normal;font-weight:300;font-stretch:normal;font-size:90px;line-height:94.99999881%;font-family:F0nt;-inkscape-font-specification:'F0nt Light';text-align:start;writing-mode:lr-tb;text-anchor:start"
         id="path4371" />
      <path
         d="m 605.44687,415.822 q 0,-8.85 0.975,-22.425 0.97501,-13.65 2.25,-22.8 2.625,0 6,-0.375 -2.7,20.475 -3.375,41.325 13.05,-10.35 24.45001,-14.925 0.97499,-12.6 5.32499,-26.1 4.5,-0.3 5.92501,-0.3 3.15,5.25 8.625,8.55 5.54999,3.225 12.67499,3.225 14.25,0 23.47501,-11.85 2.25,-0.375 5.54999,-0.375 -0.44999,18.6 -5.54999,45.675 -5.4,0.6 -6.07501,0.6 3.75,-20.25 5.70001,-40.875 -10.05001,9.225 -24.97501,9.225 -12.825,0 -21.075,-8.925 -2.84999,9.825 -3.82499,19.275 5.69999,-1.35 10.19999,-1.35 8.475,0 13.125,2.925 4.725,2.925 4.725,8.4 0,5.925 -5.625,9.075 -5.54999,3.15 -12.82499,3.15 -3.07501,0 -5.77501,-0.675 -2.69999,-0.675 -5.025,-2.1 -2.25,-1.425 -3.6,-3.9 -1.275,-2.55 -1.275,-5.85 0,-1.725 0.15,-5.025 -11.925,5.475 -24.375,16.5 -0.59999,0.15 -2.84999,0.15 -1.57501,0 -2.92501,-0.225 z m 35.85,-18.525 q -0.52499,5.25 -0.52499,7.125 0,5.325 3.52499,7.65 3.525,2.25 8.25,2.25 4.72501,0 8.47501,-2.55 3.82499,-2.55 3.82499,-6.525 0,-9.3 -14.47499,-9.3 -3.975,0 -9.07501,1.35 z"
         style="font-style:normal;font-variant:normal;font-weight:300;font-stretch:normal;font-size:90px;line-height:94.99999881%;font-family:F0nt;-inkscape-font-specification:'F0nt Light';text-align:start;writing-mode:lr-tb;text-anchor:start"
         id="path4373" />
      <path
         d="m 669.58828,366.172 q 0,-6.975 6.675,-11.25 6.6,-4.125 21.225,-4.125 2.625,0 3.6,0.075 -0.525,2.175 -0.975,2.925 -0.9,-0.075 -3.225,-0.075 -11.775,0 -16.875,3.075 -5.1,3.15 -5.1,9 -2.925,0 -5.325,0.375 z"
         style="font-style:normal;font-variant:normal;font-weight:300;font-stretch:normal;font-size:90px;line-height:94.99999881%;font-family:F0nt;-inkscape-font-specification:'F0nt Light';text-align:start;writing-mode:lr-tb;text-anchor:start"
         id="path4375" />
      <path
         d="m 24.75,501.20177 q 0,-8.55 0.975,-22.35 0.975,-13.8 2.25,-22.65 0.225,0 3.9,-0.225 3.675,-0.225 4.275,-0.3 -1.275,9.45 -2.4,23.55 -1.125,14.1 -1.125,22.125 -1.125,0.225 -3.975,0.225 -2.175,0 -3.9,-0.375 z m 24.225,0 q 0,-8.55 0.975,-22.35 0.975,-13.8 2.25,-22.65 0.225,0 3.9,-0.225 3.675,-0.225 4.275,-0.3 -1.275,9.45 -2.4,23.55 -1.125,14.1 -1.125,22.125 -1.125,0.225 -3.9,0.225 -2.325,0 -3.975,-0.375 z"
         style="font-style:normal;font-variant:normal;font-weight:normal;font-stretch:normal;font-size:90px;line-height:94.99999881%;font-family:F0nt;-inkscape-font-specification:F0nt;text-align:start;writing-mode:lr-tb;text-anchor:start"
         id="path4377" />
      <path
         d="m 71.25,501.20177 q 0,-0.3 0.225,-2.925 0.225,-2.625 0.375,-5.025 0.225,-2.475 0.375,-6.225 0.15,-3.75 0.15,-6.9 0,-15.375 -0.75,-23.55 2.925,0 8.1,-0.45 0.225,5.25 0.225,9.675 0,3.975 -0.225,10.65 -0.15,6.6 -0.15,9.675 0,2.325 -0.3,8.175 12.15,-14.85 21.6,-28.2 0.975,-0.075 4.725,-0.975 11.25,30.15 11.4,30.525 7.65,-13.65 15.825,-50.325 2.925,-0.45 8.175,-0.45 -2.775,12.3 -5.7,22.575 -2.925,10.2 -5.1,16.05 -2.1,5.85 -4.125,10.125 -1.95,4.275 -2.85,5.7 -0.9,1.425 -1.35,1.875 -1.725,0.375 -4.05,0.375 -2.25,0 -4.5,-0.225 -7.8,-19.2 -11.325,-28.725 -10.725,14.475 -23.175,28.725 -0.525,0.225 -3.675,0.225 -2.775,0 -3.9,-0.375 z"
         style="font-style:normal;font-variant:normal;font-weight:normal;font-stretch:normal;font-size:90px;line-height:94.99999881%;font-family:F0nt;-inkscape-font-specification:F0nt;text-align:start;writing-mode:lr-tb;text-anchor:start"
         id="path4379" />
      <path
         d="m 141.03516,501.20177 q 0,-8.55 0.975,-22.35 0.975,-13.8 2.25,-22.65 0.225,0 3.9,-0.225 3.675,-0.225 4.275,-0.3 -2.625,19.275 -3.375,39.9 10.65,-7.95 24.15,-12.75 1.2,-13.5 5.175,-26.775 4.35,-0.375 8.1,-0.375 -4.65,14.4 -5.85,25.125 2.1,-0.375 4.575,-0.375 6.45,0 10.35,3.075 3.975,3 3.975,8.4 0,5.175 -4.05,7.875 -3.975,2.7 -9.75,2.7 -5.625,0 -9.3,-3 -3.6,-3 -3.6,-8.85 0,-2.925 0.075,-4.35 -13.2,5.475 -24,15.075 -1.125,0.225 -3.975,0.225 -2.25,0 -3.9,-0.375 z m 45.45,-2.1 q 3.375,0 5.475,-1.8 2.1,-1.8 2.1,-5.025 0,-4.125 -2.775,-6.3 -2.7,-2.25 -6.9,-2.25 -2.175,0 -4.2,0.375 -0.9,4.5 -0.9,6.45 0,4.575 2.1,6.6 2.175,1.95 5.1,1.95 z"
         style="font-style:normal;font-variant:normal;font-weight:normal;font-stretch:normal;font-size:90px;line-height:94.99999881%;font-family:F0nt;-inkscape-font-specification:F0nt;text-align:start;writing-mode:lr-tb;text-anchor:start"
         id="path4381" />
      <path
         d="m 225.41016,501.20177 q 0,-0.3 0.225,-2.925 0.225,-2.625 0.375,-5.025 0.225,-2.475 0.375,-6.225 0.15,-3.75 0.15,-6.9 0,-15.375 -0.75,-23.55 2.925,0 8.1,-0.45 0.225,5.25 0.225,9.675 0,3.975 -0.225,10.65 -0.15,6.6 -0.15,9.675 0,2.325 -0.3,8.175 12.15,-14.85 21.6,-28.2 0.975,-0.075 4.725,-0.975 11.25,30.15 11.4,30.525 7.65,-13.65 15.825,-50.325 2.925,-0.45 8.175,-0.45 -2.775,12.3 -5.7,22.575 -2.925,10.2 -5.1,16.05 -2.1,5.85 -4.125,10.125 -1.95,4.275 -2.85,5.7 -0.9,1.425 -1.35,1.875 -1.725,0.375 -4.05,0.375 -2.25,0 -4.5,-0.225 -7.8,-19.2 -11.325,-28.725 -10.725,14.475 -23.175,28.725 -0.525,0.225 -3.675,0.225 -2.775,0 -3.9,-0.375 z"
         style="font-style:normal;font-variant:normal;font-weight:normal;font-stretch:normal;font-size:90px;line-height:94.99999881%;font-family:F0nt;-inkscape-font-specification:F0nt;text-align:start;writing-mode:lr-tb;text-anchor:start"
         id="path4383" />
      <path
         d="m 298.19531,482.00177 -0.075,1.275 q 0.375,6.6 5.625,10.95 5.25,4.275 13.2,4.275 9.9,0 16.8,-6 6.975,-6 6.975,-14.775 0,-8.625 -5.7,-13.8 -5.7,-5.175 -13.65,-5.175 -7.05,0 -12.45,2.925 -5.325,2.85 -8.1,6.975 -0.9,0 -3.6,-0.525 -2.625,-0.6 -3.375,-0.975 3.45,-5.1 11.175,-8.7 7.8,-3.675 18.3,-3.675 11.625,0 18.525,6.225 6.975,6.225 6.975,15.825 0,7.65 -4.875,13.65 -4.875,5.925 -12.525,9 -7.65,3 -16.425,3 -5.7,0 -10.35,-1.65 -4.65,-1.65 -7.575,-4.35 -2.85,-2.7 -4.425,-5.925 -1.575,-3.225 -1.575,-6.525 0,-6.075 9.225,-6.075 6.975,0 13.275,1.05 -1.275,3.45 -1.35,3.675 -5.475,-0.975 -11.7,-0.975 -1.5,0 -2.325,0.3 z"
         style="font-style:normal;font-variant:normal;font-weight:normal;font-stretch:normal;font-size:90px;line-height:94.99999881%;font-family:F0nt;-inkscape-font-specification:F0nt;text-align:start;writing-mode:lr-tb;text-anchor:start"
         id="path4385" />
      <path
         d="m 352.5,501.20177 q 0,-8.55 0.975,-22.35 0.975,-13.8 2.25,-22.65 0.225,0 3.9,-0.225 3.675,-0.225 4.275,-0.3 -2.625,19.275 -3.375,39.75 11.775,-9.45 22.35,-13.65 1.125,-12.525 5.175,-25.725 4.35,-0.375 8.1,-0.375 3.075,5.1 8.25,8.25 5.25,3.15 11.775,3.15 13.275,0 21.75,-11.325 4.95,-0.525 7.575,-0.525 -0.525,18.825 -5.475,45.6 -4.875,0.75 -8.25,0.75 3.6,-18.975 5.625,-39.375 -9.75,8.025 -23.625,8.025 -11.55,0 -19.725,-7.65 -2.325,8.475 -3.3,16.725 4.425,-0.975 8.475,-0.975 8.925,0 13.725,3.075 4.8,3 4.8,8.625 0,4.125 -3.075,7.05 -3.075,2.925 -7.275,4.125 -4.2,1.275 -8.925,1.275 -6.9,0 -11.475,-3.075 -4.5,-3.15 -4.5,-9.525 0,-1.5 0.15,-4.65 -10.575,5.1 -22.275,16.125 -1.125,0.225 -3.975,0.225 -2.25,0 -3.9,-0.375 z m 37.875,-18.675 q -0.675,5.1 -0.675,7.35 0,5.025 3.075,7.125 3.15,2.1 7.5,2.1 4.35,0 7.725,-2.4 3.45,-2.475 3.45,-6.225 0,-8.85 -13.725,-8.85 -2.85,0 -7.35,0.9 z"
         style="font-style:normal;font-variant:normal;font-weight:normal;font-stretch:normal;font-size:90px;line-height:94.99999881%;font-family:F0nt;-inkscape-font-specification:F0nt;text-align:start;writing-mode:lr-tb;text-anchor:start"
         id="path4387" />
      <path
         d="m 416.56641,451.62677 q 0,-7.05 6.825,-11.4 6.9,-4.35 21.825,-4.35 2.925,0 3.975,0.075 -0.675,2.475 -1.425,3.825 -0.975,-0.075 -3.3,-0.075 -11.025,0 -15.825,2.85 -4.875,3.075 -4.875,8.625 -4.35,0 -7.2,0.45 z"
         style="font-style:normal;font-variant:normal;font-weight:normal;font-stretch:normal;font-size:90px;line-height:94.99999881%;font-family:F0nt;-inkscape-font-specification:F0nt;text-align:start;writing-mode:lr-tb;text-anchor:start"
         id="path4389" />
      <path
         d="m 476.60156,501.20177 q 0,-0.3 0.225,-2.925 0.225,-2.625 0.375,-5.025 0.225,-2.475 0.375,-6.225 0.15,-3.75 0.15,-6.9 0,-15.375 -0.75,-23.55 2.925,0 8.1,-0.45 0.225,5.25 0.225,9.675 0,3.975 -0.225,10.65 -0.15,6.6 -0.15,9.675 0,2.325 -0.3,8.175 12.15,-14.85 21.6,-28.2 0.975,-0.075 4.725,-0.975 11.25,30.15 11.4,30.525 7.65,-13.65 15.825,-50.325 2.925,-0.45 8.175,-0.45 -2.775,12.3 -5.7,22.575 -2.925,10.2 -5.1,16.05 -2.1,5.85 -4.125,10.125 -1.95,4.275 -2.85,5.7 -0.9,1.425 -1.35,1.875 -1.725,0.375 -4.05,0.375 -2.25,0 -4.5,-0.225 -7.8,-19.2 -11.325,-28.725 -10.725,14.475 -23.175,28.725 -0.525,0.225 -3.675,0.225 -2.775,0 -3.9,-0.375 z"
         style="font-style:normal;font-variant:normal;font-weight:normal;font-stretch:normal;font-size:90px;line-height:94.99999881%;font-family:F0nt;-inkscape-font-specification:F0nt;text-align:start;writing-mode:lr-tb;text-anchor:start"
         id="path4391" />
      <path
         d="m 567.31172,502.47677 q -11.175,0 -17.925,-6.15 -6.75,-6.225 -6.75,-15.45 0,-7.725 4.65,-13.8 4.725,-6.075 12.225,-9.15 7.5,-3.15 16.275,-3.15 11.55,0 18.45,6.225 6.9,6.225 6.9,15.825 0,4.95 -2.025,9.225 -1.95,4.2 -5.325,7.2 -3.3,2.925 -7.65,5.1 -4.35,2.1 -9.15,3.075 -4.8,1.05 -9.675,1.05 z m 2.025,-4.125 q 9.6,0 16.65,-5.775 7.05,-5.85 7.05,-14.85 0,-8.625 -5.7,-13.725 -5.7,-5.1 -13.65,-5.1 -9.6,0 -16.275,6 -6.675,5.925 -6.675,15.075 0,8.25 5.475,13.35 5.55,5.025 13.125,5.025 z"
         style="font-style:normal;font-variant:normal;font-weight:normal;font-stretch:normal;font-size:90px;line-height:94.99999881%;font-family:F0nt;-inkscape-font-specification:F0nt;text-align:start;writing-mode:lr-tb;text-anchor:start"
         id="path4393" />
      <path
         d="m 604.92187,501.20177 q 0,-8.55 0.97501,-22.35 0.975,-13.8 2.25,-22.65 0.225,0 3.89999,-0.225 3.675,-0.225 4.275,-0.3 -2.625,19.275 -3.375,39.75 11.775,-9.45 22.35,-13.65 1.125,-12.525 5.175,-25.725 4.35,-0.375 8.1,-0.375 3.07501,5.1 8.25,8.25 5.25,3.15 11.775,3.15 13.27501,0 21.75,-11.325 4.95,-0.525 7.575,-0.525 -0.52499,18.825 -5.475,45.6 -4.875,0.75 -8.25,0.75 3.6,-18.975 5.625,-39.375 -9.75,8.025 -23.625,8.025 -11.54999,0 -19.725,-7.65 -2.32499,8.475 -3.3,16.725 4.425,-0.975 8.47501,-0.975 8.92499,0 13.725,3.075 4.79999,3 4.79999,8.625 0,4.125 -3.075,7.05 -3.07499,2.925 -7.275,4.125 -4.19999,1.275 -8.92499,1.275 -6.9,0 -11.47501,-3.075 -4.5,-3.15 -4.5,-9.525 0,-1.5 0.15,-4.65 -10.57499,5.1 -22.275,16.125 -1.125,0.225 -3.975,0.225 -2.25,0 -3.9,-0.375 z m 37.875,-18.675 q -0.67499,5.1 -0.67499,7.35 0,5.025 3.07499,7.125 3.15,2.1 7.5,2.1 4.35,0 7.725,-2.4 3.45001,-2.475 3.45001,-6.225 0,-8.85 -13.725,-8.85 -2.85001,0 -7.35001,0.9 z"
         style="font-style:normal;font-variant:normal;font-weight:normal;font-stretch:normal;font-size:90px;line-height:94.99999881%;font-family:F0nt;-inkscape-font-specification:F0nt;text-align:start;writing-mode:lr-tb;text-anchor:start"
         id="path4395" />
      <path
         d="m 668.98828,451.62677 q 0,-7.05 6.825,-11.4 6.9,-4.35 21.825,-4.35 2.925,0 3.975,0.075 -0.675,2.475 -1.425,3.825 -0.975,-0.075 -3.3,-0.075 -11.025,0 -15.825,2.85 -4.875,3.075 -4.875,8.625 -4.35,0 -7.2,0.45 z"
         style="font-style:normal;font-variant:normal;font-weight:normal;font-stretch:normal;font-size:90px;line-height:94.99999881%;font-family:F0nt;-inkscape-font-specification:F0nt;text-align:start;writing-mode:lr-tb;text-anchor:start"
         id="path4397" />
      <path
         d="m 23.625,586.6566 q 0,-8.175 0.975,-22.2 1.05,-14.1 2.25,-22.725 9.15,-0.45 10.35,-0.6 -1.275,9.6 -2.475,23.775 -1.2,14.175 -1.2,21.975 -0.825,0.225 -4.95,0.225 -2.25,0 -4.95,-0.45 z m 24.3,0 q 0,-8.1 1.05,-22.125 1.05,-14.025 2.25,-22.8 9,-0.45 10.275,-0.6 -1.275,9.45 -2.475,23.7 -1.125,14.175 -1.125,22.05 -0.825,0.225 -4.95,0.225 -2.325,0 -5.025,-0.45 z"
         style="font-style:normal;font-variant:normal;font-weight:500;font-stretch:normal;font-size:90px;line-height:94.99999881%;font-family:F0nt;-inkscape-font-specification:'F0nt Medium';text-align:start;writing-mode:lr-tb;text-anchor:start"
         id="path4399" />
      <path
         d="m 70.65,586.6566 q 1.125,-15 1.125,-21.3 0,-14.475 -0.75,-23.175 4.05,0 10.275,-0.6 0.15,5.4 0.15,7.575 0,5.1 -0.3,12.75 -0.3,7.65 -0.3,10.65 0,1.275 -0.15,5.625 12.45,-15.825 19.725,-26.4 2.25,-0.225 5.85,-1.2 0.975,2.475 5.025,13.875 4.125,11.4 5.4,14.925 6.9,-13.35 14.55,-48.45 4.2,-0.6 10.275,-0.6 -2.775,12.375 -5.625,22.65 -2.85,10.2 -4.95,16.05 -2.025,5.775 -3.975,10.05 -1.875,4.2 -2.85,5.7 -0.9,1.425 -1.35,1.875 -1.8,0.45 -5.1,0.45 -1.65,0 -5.55,-0.3 -5.55,-13.65 -10.35,-27 -9.75,13.35 -21.525,27.075 -0.75,0.225 -4.65,0.225 -3.15,0 -4.95,-0.45 z"
         style="font-style:normal;font-variant:normal;font-weight:500;font-stretch:normal;font-size:90px;line-height:94.99999881%;font-family:F0nt;-inkscape-font-specification:'F0nt Medium';text-align:start;writing-mode:lr-tb;text-anchor:start"
         id="path4401" />
      <path
         d="m 140.43516,586.6566 q 0,-8.175 0.975,-22.2 1.05,-14.1 2.25,-22.725 9.15,-0.45 10.35,-0.6 -2.475,19.125 -3.45,38.475 9.6,-7.125 21.75,-11.475 1.05,-13.125 5.025,-26.55 4.5,-0.45 10.275,-0.45 -4.65,14.55 -5.925,24.525 1.575,-0.225 3.45,-0.225 6.9,0 10.875,3.075 4.05,3 4.05,8.475 0,5.4 -4.275,8.25 -4.2,2.775 -10.275,2.775 -6.075,0 -9.825,-3.075 -3.75,-3.15 -3.75,-9 0,-2.4 0.075,-3.6 -12.075,5.25 -21.675,14.55 -0.75,0.225 -4.95,0.225 -2.25,0 -4.95,-0.45 z m 45.975,-2.775 q 3.075,0 4.95,-1.725 1.875,-1.725 1.875,-4.725 0,-3.9 -2.55,-5.925 -2.475,-2.1 -6.6,-2.1 -1.65,0 -3.15,0.225 -0.975,3.9 -0.975,6.225 0,4.275 1.875,6.15 1.875,1.875 4.575,1.875 z"
         style="font-style:normal;font-variant:normal;font-weight:500;font-stretch:normal;font-size:90px;line-height:94.99999881%;font-family:F0nt;-inkscape-font-specification:'F0nt Medium';text-align:start;writing-mode:lr-tb;text-anchor:start"
         id="path4403" />
      <path
         d="m 224.81016,586.6566 q 1.125,-15 1.125,-21.3 0,-14.475 -0.75,-23.175 4.05,0 10.275,-0.6 0.15,5.4 0.15,7.575 0,5.1 -0.3,12.75 -0.3,7.65 -0.3,10.65 0,1.275 -0.15,5.625 12.45,-15.825 19.725,-26.4 2.25,-0.225 5.85,-1.2 0.975,2.475 5.025,13.875 4.125,11.4 5.4,14.925 6.9,-13.35 14.55,-48.45 4.2,-0.6 10.275,-0.6 -2.775,12.375 -5.625,22.65 -2.85,10.2 -4.95,16.05 -2.025,5.775 -3.975,10.05 -1.875,4.2 -2.85,5.7 -0.9,1.425 -1.35,1.875 -1.8,0.45 -5.1,0.45 -1.65,0 -5.55,-0.3 -5.55,-13.65 -10.35,-27 -9.75,13.35 -21.525,27.075 -0.75,0.225 -4.65,0.225 -3.15,0 -4.95,-0.45 z"
         style="font-style:normal;font-variant:normal;font-weight:500;font-stretch:normal;font-size:90px;line-height:94.99999881%;font-family:F0nt;-inkscape-font-specification:'F0nt Medium';text-align:start;writing-mode:lr-tb;text-anchor:start"
         id="path4405" />
      <path
         d="m 299.39531,567.7566 0,0.75 q 0.45,6.45 5.475,10.5 5.025,4.05 12.525,4.05 9.075,0 15.45,-5.775 6.375,-5.775 6.375,-13.95 0,-8.325 -5.4,-13.275 -5.4,-4.95 -12.75,-4.95 -6.45,0 -11.475,2.85 -4.95,2.775 -7.5,6.675 -1.2,0 -4.5,-0.675 -3.3,-0.675 -4.275,-1.125 3.375,-5.1 11.325,-8.85 8.025,-3.825 18.975,-3.825 12,0 18.9,6.225 6.9,6.225 6.9,15.75 0,5.85 -3,10.875 -2.925,4.95 -7.8,8.175 -4.875,3.225 -11.1,5.025 -6.15,1.8 -12.75,1.8 -11.325,0 -17.775,-5.7 -6.45,-5.7 -6.45,-12.75 0,-3.525 2.925,-5.025 3,-1.575 7.275,-1.575 7.05,0 13.575,1.125 -1.575,3.9 -1.725,4.5 -5.475,-0.975 -11.55,-0.975 -0.75,0 -1.65,0.15 z"
         style="font-style:normal;font-variant:normal;font-weight:500;font-stretch:normal;font-size:90px;line-height:94.99999881%;font-family:F0nt;-inkscape-font-specification:'F0nt Medium';text-align:start;writing-mode:lr-tb;text-anchor:start"
         id="path4407" />
      <path
         d="m 351.9,586.6566 q 0,-8.175 0.975,-22.2 1.05,-14.1 2.25,-22.725 9.15,-0.45 10.35,-0.6 -2.475,19.2 -3.45,38.325 10.5,-8.625 20.25,-12.6 1.125,-12.075 5.025,-25.275 4.5,-0.45 10.275,-0.45 3,5.025 7.95,8.1 5.025,3 10.95,3 12.15,0 20.025,-10.95 5.025,-0.6 9.525,-0.6 -0.75,19.2 -5.475,45.525 -7.65,0.9 -10.35,0.9 3.15,-16.35 5.55,-38.1 -9.375,6.975 -22.275,6.975 -10.575,0 -18.3,-6.525 -1.95,7.275 -2.925,14.475 3.75,-0.675 6.825,-0.675 9.3,0 14.25,3.15 4.95,3.15 4.95,8.85 0,4.2 -3.3,7.275 -3.225,3 -7.575,4.2 -4.35,1.275 -9.15,1.275 -7.2,0 -11.775,-3.225 -4.575,-3.225 -4.575,-9.45 0,-2.775 0.075,-4.2 -9.6,5.1 -20.175,15.75 -0.75,0.225 -4.95,0.225 -2.25,0 -4.95,-0.45 z m 39.825,-18.825 q -0.75,5.85 -0.75,7.5 0,4.575 2.7,6.6 2.775,1.95 6.675,1.95 3.9,0 6.975,-2.25 3.075,-2.325 3.075,-5.85 0,-8.55 -12.9,-8.55 -2.775,0 -5.775,0.6 z"
         style="font-style:normal;font-variant:normal;font-weight:500;font-stretch:normal;font-size:90px;line-height:94.99999881%;font-family:F0nt;-inkscape-font-specification:'F0nt Medium';text-align:start;writing-mode:lr-tb;text-anchor:start"
         id="path4409" />
      <path
         d="m 416.04141,537.0816 q 0,-7.125 6.975,-11.55 7.2,-4.575 22.5,-4.575 3.075,0 4.275,0.075 -0.975,3.3 -1.8,4.65 -0.975,-0.075 -3.525,-0.075 -10.2,0 -14.775,2.7 -4.575,2.85 -4.575,8.175 -4.275,0 -9.075,0.6 z"
         style="font-style:normal;font-variant:normal;font-weight:500;font-stretch:normal;font-size:90px;line-height:94.99999881%;font-family:F0nt;-inkscape-font-specification:'F0nt Medium';text-align:start;writing-mode:lr-tb;text-anchor:start"
         id="path4411" />
      <path
         d="m 476.00156,586.6566 q 1.125,-15 1.125,-21.3 0,-14.475 -0.75,-23.175 4.05,0 10.275,-0.6 0.15,5.4 0.15,7.575 0,5.1 -0.3,12.75 -0.3,7.65 -0.3,10.65 0,1.275 -0.15,5.625 12.45,-15.825 19.725,-26.4 2.25,-0.225 5.85,-1.2 0.975,2.475 5.025,13.875 4.125,11.4 5.4,14.925 6.9,-13.35 14.55,-48.45 4.2,-0.6 10.275,-0.6 -2.775,12.375 -5.625,22.65 -2.85,10.2 -4.95,16.05 -2.025,5.775 -3.975,10.05 -1.875,4.2 -2.85,5.7 -0.9,1.425 -1.35,1.875 -1.8,0.45 -5.1,0.45 -1.65,0 -5.55,-0.3 -5.55,-13.65 -10.35,-27 -9.75,13.35 -21.525,27.075 -0.75,0.225 -4.65,0.225 -3.15,0 -4.95,-0.45 z"
         style="font-style:normal;font-variant:normal;font-weight:500;font-stretch:normal;font-size:90px;line-height:94.99999881%;font-family:F0nt;-inkscape-font-specification:'F0nt Medium';text-align:start;writing-mode:lr-tb;text-anchor:start"
         id="path4413" />
      <path
         d="m 567.01172,588.0066 q -11.55,0 -18.3,-6.225 -6.675,-6.225 -6.675,-15.375 0,-7.875 4.875,-13.95 4.875,-6.15 12.525,-9.225 7.725,-3.075 16.575,-3.075 11.925,0 18.75,6.225 6.9,6.225 6.9,15.75 0,6.15 -3.15,11.25 -3.075,5.025 -8.1,8.175 -5.025,3.075 -11.1,4.8 -6.075,1.65 -12.3,1.65 z m 2.7,-5.025 q 8.775,0 15.225,-5.625 6.525,-5.625 6.525,-14.025 0,-8.325 -5.4,-13.2 -5.4,-4.95 -12.75,-4.95 -8.775,0 -14.925,5.7 -6.075,5.7 -6.075,14.325 0,8.025 5.175,12.9 5.25,4.875 12.225,4.875 z"
         style="font-style:normal;font-variant:normal;font-weight:500;font-stretch:normal;font-size:90px;line-height:94.99999881%;font-family:F0nt;-inkscape-font-specification:'F0nt Medium';text-align:start;writing-mode:lr-tb;text-anchor:start"
         id="path4415" />
      <path
         d="m 604.32187,586.6566 q 0,-8.175 0.975,-22.2 1.05,-14.1 2.25,-22.725 9.15,-0.45 10.35001,-0.6 -2.47501,19.2 -3.45001,38.325 10.5,-8.625 20.25,-12.6 1.125,-12.075 5.025,-25.275 4.5,-0.45 10.27501,-0.45 3,5.025 7.94999,8.1 5.025,3 10.95001,3 12.14999,0 20.02499,-10.95 5.025,-0.6 9.525,-0.6 -0.75,19.2 -5.475,45.525 -7.65,0.9 -10.34999,0.9 3.15,-16.35 5.54999,-38.1 -9.375,6.975 -22.27499,6.975 -10.57501,0 -18.30001,-6.525 -1.94999,7.275 -2.925,14.475 3.75,-0.675 6.82501,-0.675 9.29999,0 14.25,3.15 4.94999,3.15 4.94999,8.85 0,4.2 -3.29999,7.275 -3.22501,3 -7.57501,4.2 -4.35,1.275 -9.15,1.275 -7.2,0 -11.77499,-3.225 -4.57501,-3.225 -4.57501,-9.45 0,-2.775 0.075,-4.2 -9.60001,5.1 -20.17501,15.75 -0.75,0.225 -4.94999,0.225 -2.25,0 -4.95001,-0.45 z m 39.82501,-18.825 q -0.75,5.85 -0.75,7.5 0,4.575 2.69999,6.6 2.77501,1.95 6.67501,1.95 3.89999,0 6.975,-2.25 3.07499,-2.325 3.07499,-5.85 0,-8.55 -12.9,-8.55 -2.77499,0 -5.77499,0.6 z"
         style="font-style:normal;font-variant:normal;font-weight:500;font-stretch:normal;font-size:90px;line-height:94.99999881%;font-family:F0nt;-inkscape-font-specification:'F0nt Medium';text-align:start;writing-mode:lr-tb;text-anchor:start"
         id="path4417" />
      <path
         d="m 668.46328,537.0816 q 0,-7.125 6.975,-11.55 7.2,-4.575 22.5,-4.575 3.075,0 4.275,0.075 -0.975,3.3 -1.8,4.65 -0.975,-0.075 -3.525,-0.075 -10.2,0 -14.775,2.7 -4.575,2.85 -4.575,8.175 -4.275,0 -9.075,0.6 z"
         style="font-style:normal;font-variant:normal;font-weight:500;font-stretch:normal;font-size:90px;line-height:94.99999881%;font-family:F0nt;-inkscape-font-specification:'F0nt Medium';text-align:start;writing-mode:lr-tb;text-anchor:start"
         id="path4419" />
      <path
         d="m 22.5,672.1115 q 0,-7.95 1.05,-22.2 1.05,-14.25 2.25,-22.575 7.125,-0.3 12.375,-0.75 -1.275,9 -2.475,23.475 -1.2,14.4 -1.2,22.275 -1.35,0.3 -6,0.3 -3.525,0 -6,-0.525 z m 24.45,0 q 0,-8.1 0.975,-22.275 1.05,-14.25 2.25,-22.5 7.275,-0.3 12.45,-0.75 -1.275,9.15 -2.55,23.55 -1.2,14.325 -1.2,22.2 -1.35,0.3 -6,0.3 -3.45,0 -5.925,-0.525 z"
         style="font-style:normal;font-variant:normal;font-weight:600;font-stretch:normal;font-size:90px;line-height:94.99999881%;font-family:F0nt;-inkscape-font-specification:'F0nt Semi-Bold';text-align:start;writing-mode:lr-tb;text-anchor:start"
         id="path4421" />
      <path
         d="m 70.125,672.0365 q 1.125,-13.8 1.125,-21.525 0,-13.425 -0.75,-22.8 7.725,-0.225 12.375,-0.675 0.075,1.95 0.075,5.55 0,6.3 -0.375,15 -0.375,8.7 -0.375,11.475 0,1.8 -0.075,3 4.65,-6.15 17.7,-24.675 2.625,-0.225 7.05,-1.35 0.6,1.575 9.45,27.3 5.925,-12.225 13.35,-46.875 4.95,-0.675 12.45,-0.675 -2.7,12.45 -5.475,22.65 -2.775,10.2 -4.8,15.975 -2.025,5.775 -3.9,9.975 -1.875,4.2 -2.775,5.7 -0.9,1.425 -1.425,2.025 -2.475,0.525 -6.075,0.525 -4.2,0 -6.75,-0.3 -6.525,-17.025 -9.375,-25.275 -9.225,12.975 -19.875,25.275 -0.825,0.3 -5.55,0.3 -3.825,0 -6,-0.6 z"
         style="font-style:normal;font-variant:normal;font-weight:600;font-stretch:normal;font-size:90px;line-height:94.99999881%;font-family:F0nt;-inkscape-font-specification:'F0nt Semi-Bold';text-align:start;writing-mode:lr-tb;text-anchor:start"
         id="path4423" />
      <path
         d="m 139.91016,672.1115 q 0,-7.95 1.05,-22.2 1.05,-14.25 2.25,-22.575 7.125,-0.3 12.375,-0.75 -2.4,16.95 -3.375,37.05 8.925,-6.45 19.275,-10.275 1.05,-12.45 4.95,-26.25 6.675,-0.525 12.375,-0.525 -4.875,15.9 -6,23.85 0.75,-0.075 2.325,-0.075 7.35,0 11.4,3.15 4.125,3.075 4.125,8.625 0,5.7 -4.5,8.55 -4.5,2.85 -10.8,2.85 -6.525,0 -10.425,-3.15 -3.825,-3.15 -3.825,-9.075 0,-0.525 0,-1.5 0.075,-0.975 0.075,-1.425 -11.25,5.4 -19.275,13.95 -1.35,0.3 -6,0.3 -3.525,0 -6,-0.525 z m 46.575,-3.45 q 2.7,0 4.35,-1.575 1.725,-1.65 1.725,-4.425 0,-3.675 -2.4,-5.625 -2.4,-2.025 -6.375,-2.025 -1.35,0 -1.95,0.075 -1.05,3.45 -1.05,6.15 0,3.975 1.65,5.7 1.65,1.725 4.05,1.725 z"
         style="font-style:normal;font-variant:normal;font-weight:600;font-stretch:normal;font-size:90px;line-height:94.99999881%;font-family:F0nt;-inkscape-font-specification:'F0nt Semi-Bold';text-align:start;writing-mode:lr-tb;text-anchor:start"
         id="path4425" />
      <path
         d="m 224.28516,672.0365 q 1.125,-13.8 1.125,-21.525 0,-13.425 -0.75,-22.8 7.725,-0.225 12.375,-0.675 0.075,1.95 0.075,5.55 0,6.3 -0.375,15 -0.375,8.7 -0.375,11.475 0,1.8 -0.075,3 4.65,-6.15 17.7,-24.675 2.625,-0.225 7.05,-1.35 0.6,1.575 9.45,27.3 5.925,-12.225 13.35,-46.875 4.95,-0.675 12.45,-0.675 -2.7,12.45 -5.475,22.65 -2.775,10.2 -4.8,15.975 -2.025,5.775 -3.9,9.975 -1.875,4.2 -2.775,5.7 -0.9,1.425 -1.425,2.025 -2.475,0.525 -6.075,0.525 -4.2,0 -6.75,-0.3 -6.525,-17.025 -9.375,-25.275 -9.225,12.975 -19.875,25.275 -0.825,0.3 -5.55,0.3 -3.825,0 -6,-0.6 z"
         style="font-style:normal;font-variant:normal;font-weight:600;font-stretch:normal;font-size:90px;line-height:94.99999881%;font-family:F0nt;-inkscape-font-specification:'F0nt Semi-Bold';text-align:start;writing-mode:lr-tb;text-anchor:start"
         id="path4427" />
      <path
         d="m 300.59531,653.5115 0,0.3 q 0.525,6.45 5.25,10.2 4.8,3.675 11.85,3.675 8.325,0 14.025,-5.475 5.775,-5.55 5.775,-13.2 0,-8.175 -5.175,-12.9 -5.1,-4.725 -11.775,-4.725 -5.85,0 -10.425,2.775 -4.5,2.7 -6.825,6.45 -1.5,0 -5.475,-0.75 -3.975,-0.75 -5.175,-1.35 3.375,-5.175 11.55,-9.075 8.175,-3.9 19.65,-3.9 12.375,0 19.2,6.225 6.9,6.225 6.9,15.75 0,6 -3.075,11.025 -3.075,4.95 -8.175,8.175 -5.025,3.225 -11.325,5.025 -6.3,1.8 -12.9,1.8 -6,0 -10.875,-1.725 -4.8,-1.725 -7.725,-4.425 -2.85,-2.775 -4.425,-5.925 -1.5,-3.225 -1.5,-6.45 0,-3.825 3.225,-5.4 3.225,-1.65 7.875,-1.65 7.725,0 13.875,1.275 -1.2,2.625 -2.025,5.25 -5.7,-1.05 -11.4,-1.05 -0.15,0 -0.45,0.075 -0.3,0 -0.45,0 z"
         style="font-style:normal;font-variant:normal;font-weight:600;font-stretch:normal;font-size:90px;line-height:94.99999881%;font-family:F0nt;-inkscape-font-specification:'F0nt Semi-Bold';text-align:start;writing-mode:lr-tb;text-anchor:start"
         id="path4429" />
      <path
         d="m 351.375,672.1115 q 0,-7.95 1.05,-22.2 1.05,-14.25 2.25,-22.575 7.125,-0.3 12.375,-0.75 -2.175,15.375 -3.375,36.825 9.075,-7.5 18.15,-11.325 1.125,-11.625 4.875,-24.975 6.675,-0.525 12.375,-0.525 2.925,4.95 7.575,7.875 4.725,2.85 10.125,2.85 11.175,0 18.3,-10.425 5.775,-0.75 11.55,-0.75 -1.05,20.85 -5.4,45.375 -8.25,1.125 -12.45,1.125 2.775,-14.625 5.4,-36.9 -8.925,6.075 -21,6.075 -9.45,0 -16.875,-5.55 -1.8,7.2 -2.55,12.375 2.775,-0.375 5.325,-0.375 9.75,0 14.775,3.225 5.025,3.15 5.025,9 0,4.35 -3.45,7.5 -3.45,3.075 -8.025,4.275 -4.575,1.275 -9.375,1.275 -7.425,0 -12.075,-3.3 -4.575,-3.3 -4.575,-9.45 0,-2.475 0.075,-3.75 -8.55,4.8 -18.075,15.3 -1.35,0.3 -6,0.3 -3.525,0 -6,-0.525 z m 41.775,-18.9 q -0.9,5.775 -0.9,7.575 0,4.2 2.325,6.075 2.4,1.8 5.85,1.8 3.525,0 6.225,-2.1 2.775,-2.175 2.775,-5.475 0,-8.175 -12.15,-8.175 -1.275,0 -4.125,0.3 z"
         style="font-style:normal;font-variant:normal;font-weight:600;font-stretch:normal;font-size:90px;line-height:94.99999881%;font-family:F0nt;-inkscape-font-specification:'F0nt Semi-Bold';text-align:start;writing-mode:lr-tb;text-anchor:start"
         id="path4431" />
      <path
         d="m 415.44141,622.5365 q 0,-7.2 7.2,-11.775 7.575,-4.725 23.025,-4.725 3.375,0 4.65,0.075 -0.75,3.075 -2.175,5.55 -0.525,0 -1.875,0 -1.425,-0.075 -1.875,-0.075 -9.375,0 -13.65,2.55 -4.275,2.475 -4.275,7.725 -6.15,0 -11.025,0.675 z"
         style="font-style:normal;font-variant:normal;font-weight:600;font-stretch:normal;font-size:90px;line-height:94.99999881%;font-family:F0nt;-inkscape-font-specification:'F0nt Semi-Bold';text-align:start;writing-mode:lr-tb;text-anchor:start"
         id="path4433" />
      <path
         d="m 475.47656,672.0365 q 1.125,-13.8 1.125,-21.525 0,-13.425 -0.75,-22.8 7.725,-0.225 12.375,-0.675 0.075,1.95 0.075,5.55 0,6.3 -0.375,15 -0.375,8.7 -0.375,11.475 0,1.8 -0.075,3 4.65,-6.15 17.7,-24.675 2.625,-0.225 7.05,-1.35 0.6,1.575 9.45,27.3 5.925,-12.225 13.35,-46.875 4.95,-0.675 12.45,-0.675 -2.7,12.45 -5.475,22.65 -2.775,10.2 -4.8,15.975 -2.025,5.775 -3.9,9.975 -1.875,4.2 -2.775,5.7 -0.9,1.425 -1.425,2.025 -2.475,0.525 -6.075,0.525 -4.2,0 -6.75,-0.3 -6.525,-17.025 -9.375,-25.275 -9.225,12.975 -19.875,25.275 -0.825,0.3 -5.55,0.3 -3.825,0 -6,-0.6 z"
         style="font-style:normal;font-variant:normal;font-weight:600;font-stretch:normal;font-size:90px;line-height:94.99999881%;font-family:F0nt;-inkscape-font-specification:'F0nt Semi-Bold';text-align:start;writing-mode:lr-tb;text-anchor:start"
         id="path4435" />
      <path
         d="m 566.78672,673.5365 q -11.925,0 -18.6,-6.15 -6.675,-6.225 -6.675,-15.375 0,-7.95 5.025,-14.1 5.025,-6.225 12.825,-9.3 7.875,-3.075 16.875,-3.075 12.3,0 19.125,6.3 6.9,6.225 6.9,15.675 0,6.225 -3.225,11.325 -3.15,5.1 -8.325,8.25 -5.175,3.075 -11.4,4.8 -6.15,1.65 -12.525,1.65 z m 3.3,-6 q 8.025,0 13.875,-5.325 5.85,-5.4 5.85,-13.2 0,-8.1 -5.1,-12.75 -5.1,-4.725 -11.85,-4.725 -7.95,0 -13.5,5.475 -5.475,5.4 -5.475,13.5 0,7.8 4.875,12.45 4.95,4.575 11.325,4.575 z"
         style="font-style:normal;font-variant:normal;font-weight:600;font-stretch:normal;font-size:90px;line-height:94.99999881%;font-family:F0nt;-inkscape-font-specification:'F0nt Semi-Bold';text-align:start;writing-mode:lr-tb;text-anchor:start"
         id="path4437" />
      <path
         d="m 603.79687,672.1115 q 0,-7.95 1.05,-22.2 1.05001,-14.25 2.25,-22.575 7.125,-0.3 12.375,-0.75 -2.175,15.375 -3.375,36.825 9.075,-7.5 18.15001,-11.325 1.125,-11.625 4.875,-24.975 6.67499,-0.525 12.375,-0.525 2.92499,4.95 7.57499,7.875 4.725,2.85 10.125,2.85 11.17501,0 18.30001,-10.425 5.775,-0.75 11.54999,-0.75 -1.04999,20.85 -5.39999,45.375 -8.25,1.125 -12.45001,1.125 2.775,-14.625 5.4,-36.9 -8.925,6.075 -21,6.075 -9.44999,0 -16.875,-5.55 -1.8,7.2 -2.55,12.375 2.775,-0.375 5.32501,-0.375 9.75,0 14.775,3.225 5.02499,3.15 5.02499,9 0,4.35 -3.45,7.5 -3.44999,3.075 -8.025,4.275 -4.57499,1.275 -9.375,1.275 -7.42499,0 -12.07499,-3.3 -4.57501,-3.3 -4.57501,-9.45 0,-2.475 0.075,-3.75 -8.55001,4.8 -18.07501,15.3 -1.35,0.3 -6,0.3 -3.52499,0 -6,-0.525 z m 41.775,-18.9 q -0.9,5.775 -0.9,7.575 0,4.2 2.32501,6.075 2.4,1.8 5.84999,1.8 3.52501,0 6.225,-2.1 2.775,-2.175 2.775,-5.475 0,-8.175 -12.15,-8.175 -1.275,0 -4.125,0.3 z"
         style="font-style:normal;font-variant:normal;font-weight:600;font-stretch:normal;font-size:90px;line-height:94.99999881%;font-family:F0nt;-inkscape-font-specification:'F0nt Semi-Bold';text-align:start;writing-mode:lr-tb;text-anchor:start"
         id="path4439" />
      <path
         d="m 667.86328,622.5365 q 0,-7.2 7.2,-11.775 7.575,-4.725 23.025,-4.725 3.375,0 4.65,0.075 -0.75,3.075 -2.175,5.55 -0.525,0 -1.875,0 -1.425,-0.075 -1.875,-0.075 -9.375,0 -13.65,2.55 -4.275,2.475 -4.275,7.725 -6.15,0 -11.025,0.675 z"
         style="font-style:normal;font-variant:normal;font-weight:600;font-stretch:normal;font-size:90px;line-height:94.99999881%;font-family:F0nt;-inkscape-font-specification:'F0nt Semi-Bold';text-align:start;writing-mode:lr-tb;text-anchor:start"
         id="path4441" />
      <path
         d="m 21.375,757.56647 q 0,-7.65 1.05,-22.125 1.125,-14.475 2.25,-22.575 10.275,-0.3 14.55,-0.825 -1.275,9.15 -2.55,23.625 -1.275,14.475 -1.275,22.2 -1.125,0.3 -6.975,0.3 -3.675,0 -7.05,-0.6 z m 24.525,0 q 0,-7.65 1.05,-22.125 1.125,-14.475 2.25,-22.575 10.275,-0.3 14.55,-0.825 -1.275,9.15 -2.55,23.625 -1.275,14.475 -1.275,22.2 -1.125,0.3 -7.05,0.3 -3.6,0 -6.975,-0.6 z"
         style="font-style:normal;font-variant:normal;font-weight:bold;font-stretch:normal;font-size:90px;line-height:94.99999881%;font-family:F0nt;-inkscape-font-specification:'F0nt Bold';text-align:start;writing-mode:lr-tb;text-anchor:start"
         id="path4443" />
      <path
         d="m 69.525,757.49147 q 1.125,-13.275 1.125,-21.75 0,-12.075 -0.75,-22.425 8.475,-0.15 14.55,-0.825 0,0 0,3.825 0,7.5 -0.525,17.1 -0.45,9.6 -0.45,12.075 l 0,0.375 q 7.875,-10.725 15.9,-22.8 3.6,-0.375 8.175,-1.575 0.375,0.9 8.475,25.425 5.25,-12.15 12.075,-44.85 6.225,-0.825 14.55,-0.825 -2.7,12.525 -5.4,22.725 -2.7,10.125 -4.65,15.9 -1.95,5.775 -3.75,9.975 -1.8,4.125 -2.7,5.625 -0.9,1.425 -1.5,2.1 -2.55,0.6 -7.125,0.6 -4.05,0 -7.8,-0.375 -4.725,-12.375 -8.4,-23.55 -8.175,11.85 -18.225,23.625 -0.975,0.3 -6.525,0.3 -4.125,0 -7.05,-0.675 z"
         style="font-style:normal;font-variant:normal;font-weight:bold;font-stretch:normal;font-size:90px;line-height:94.99999881%;font-family:F0nt;-inkscape-font-specification:'F0nt Bold';text-align:start;writing-mode:lr-tb;text-anchor:start"
         id="path4445" />
      <path
         d="m 139.31016,757.56647 q 0,-7.65 1.05,-22.125 1.125,-14.475 2.25,-22.575 10.275,-0.3 14.55,-0.825 -2.325,17.4 -3.45,35.55 7.575,-5.475 16.875,-8.925 1.125,-12.675 4.8,-26.025 6.75,-0.6 14.55,-0.6 -4.95,16.275 -6.075,23.325 l 1.2,0 q 7.725,0 11.925,3.15 4.2,3.075 4.2,8.7 0,5.925 -4.725,8.925 -4.725,2.925 -11.325,2.925 -7.05,0 -11.025,-3.225 -3.9,-3.3 -3.9,-9.225 l 0,-2.1 q -9.675,5.025 -16.875,13.35 -1.125,0.3 -6.975,0.3 -3.675,0 -7.05,-0.6 z m 47.1,-4.125 q 2.325,0 3.825,-1.5 1.5,-1.5 1.5,-4.125 0,-3.45 -2.25,-5.25 -2.175,-1.875 -6,-1.875 l -0.975,0 q -1.05,3.3 -1.05,5.85 0,6.9 4.95,6.9 z"
         style="font-style:normal;font-variant:normal;font-weight:bold;font-stretch:normal;font-size:90px;line-height:94.99999881%;font-family:F0nt;-inkscape-font-specification:'F0nt Bold';text-align:start;writing-mode:lr-tb;text-anchor:start"
         id="path4447" />
      <path
         d="m 223.68516,757.49147 q 1.125,-13.275 1.125,-21.75 0,-12.075 -0.75,-22.425 8.475,-0.15 14.55,-0.825 0,0 0,3.825 0,7.5 -0.525,17.1 -0.45,9.6 -0.45,12.075 l 0,0.375 q 7.875,-10.725 15.9,-22.8 3.6,-0.375 8.175,-1.575 0.375,0.9 8.475,25.425 5.25,-12.15 12.075,-44.85 6.225,-0.825 14.55,-0.825 -2.7,12.525 -5.4,22.725 -2.7,10.125 -4.65,15.9 -1.95,5.775 -3.75,9.975 -1.8,4.125 -2.7,5.625 -0.9,1.425 -1.5,2.1 -2.55,0.6 -7.125,0.6 -4.05,0 -7.8,-0.375 -4.725,-12.375 -8.4,-23.55 -8.175,11.85 -18.225,23.625 -0.975,0.3 -6.525,0.3 -4.125,0 -7.05,-0.675 z"
         style="font-style:normal;font-variant:normal;font-weight:bold;font-stretch:normal;font-size:90px;line-height:94.99999881%;font-family:F0nt;-inkscape-font-specification:'F0nt Bold';text-align:start;writing-mode:lr-tb;text-anchor:start"
         id="path4449" />
      <path
         d="m 301.79531,739.34147 q 0.75,6.15 5.25,9.525 4.575,3.375 11.025,3.375 7.425,0 12.6,-5.25 5.25,-5.325 5.25,-12.375 0,-7.95 -4.875,-12.375 -4.8,-4.5 -10.875,-4.5 -5.325,0 -9.45,2.7 -4.125,2.625 -6.225,6.15 -1.8,0 -6.45,-0.825 -4.575,-0.9 -6,-1.575 3.3,-5.25 11.7,-9.225 8.4,-4.05 20.325,-4.05 12.675,0 19.5,6.225 6.9,6.225 6.9,15.675 0,8.025 -5.475,14.175 -5.475,6.15 -13.65,9.15 -8.1,2.925 -17.175,2.925 -6.15,0 -11.1,-1.725 -4.875,-1.725 -7.8,-4.5 -2.925,-2.775 -4.425,-5.925 -1.5,-3.225 -1.5,-6.375 0,-4.125 3.525,-5.85 3.6,-1.725 8.55,-1.725 7.875,0 14.175,1.35 -1.5,3.225 -2.4,6.075 -5.7,-1.05 -11.25,-1.05 l -0.15,0 z"
         style="font-style:normal;font-variant:normal;font-weight:bold;font-stretch:normal;font-size:90px;line-height:94.99999881%;font-family:F0nt;-inkscape-font-specification:'F0nt Bold';text-align:start;writing-mode:lr-tb;text-anchor:start"
         id="path4451" />
      <path
         d="m 350.775,757.56647 q 0,-7.65 1.05,-22.125 1.125,-14.475 2.25,-22.575 10.275,-0.3 14.55,-0.825 -2.325,17.25 -3.45,35.325 8.1,-6.75 16.05,-10.2 1.125,-11.325 4.725,-24.525 6.75,-0.6 14.55,-0.6 2.85,4.875 7.275,7.65 4.425,2.775 9.3,2.775 9.975,0 16.575,-10.05 6.075,-0.825 13.5,-0.825 -1.2,21.075 -5.4,45.3 -11.025,1.275 -14.55,1.275 2.625,-13.725 5.325,-35.775 -8.4,5.175 -19.65,5.175 -8.625,0 -15.45,-4.575 -1.275,5.1 -2.1,10.425 1.8,-0.225 3.6,-0.225 10.2,0 15.3,3.3 5.175,3.3 5.175,9.225 0,3.375 -2.1,6.075 -2.1,2.7 -5.4,4.2 -3.3,1.5 -6.975,2.25 -3.6,0.825 -7.125,0.825 -7.725,0 -12.375,-3.375 -4.65,-3.45 -4.65,-9.45 0,-2.1 0.075,-3.15 -8.175,5.1 -16.05,14.775 -1.125,0.3 -6.975,0.3 -3.675,0 -7.05,-0.6 z m 43.725,-18.9 q -0.975,5.175 -0.975,7.575 0,3.825 1.95,5.55 2.025,1.65 5.025,1.65 3.075,0 5.475,-2.025 2.4,-2.025 2.4,-5.025 0,-7.875 -11.325,-7.875 -0.75,0 -2.55,0.15 z"
         style="font-style:normal;font-variant:normal;font-weight:bold;font-stretch:normal;font-size:90px;line-height:94.99999881%;font-family:F0nt;-inkscape-font-specification:'F0nt Bold';text-align:start;writing-mode:lr-tb;text-anchor:start"
         id="path4453" />
      <path
         d="m 414.91641,707.99147 q 0,-7.275 7.35,-11.925 7.875,-4.95 23.7,-4.95 3.525,0 4.95,0.075 -1.05,3.975 -2.55,6.375 -0.525,0 -2.025,0 -1.5,-0.075 -1.95,-0.075 -8.55,0 -12.6,2.4 -3.975,2.325 -3.975,7.275 -5.85,0 -12.9,0.825 z"
         style="font-style:normal;font-variant:normal;font-weight:bold;font-stretch:normal;font-size:90px;line-height:94.99999881%;font-family:F0nt;-inkscape-font-specification:'F0nt Bold';text-align:start;writing-mode:lr-tb;text-anchor:start"
         id="path4455" />
      <path
         d="m 474.87656,757.49147 q 1.125,-13.275 1.125,-21.75 0,-12.075 -0.75,-22.425 8.475,-0.15 14.55,-0.825 0,0 0,3.825 0,7.5 -0.525,17.1 -0.45,9.6 -0.45,12.075 l 0,0.375 q 7.875,-10.725 15.9,-22.8 3.6,-0.375 8.175,-1.575 0.375,0.9 8.475,25.425 5.25,-12.15 12.075,-44.85 6.225,-0.825 14.55,-0.825 -2.7,12.525 -5.4,22.725 -2.7,10.125 -4.65,15.9 -1.95,5.775 -3.75,9.975 -1.8,4.125 -2.7,5.625 -0.9,1.425 -1.5,2.1 -2.55,0.6 -7.125,0.6 -4.05,0 -7.8,-0.375 -4.725,-12.375 -8.4,-23.55 -8.175,11.85 -18.225,23.625 -0.975,0.3 -6.525,0.3 -4.125,0 -7.05,-0.675 z"
         style="font-style:normal;font-variant:normal;font-weight:bold;font-stretch:normal;font-size:90px;line-height:94.99999881%;font-family:F0nt;-inkscape-font-specification:'F0nt Bold';text-align:start;writing-mode:lr-tb;text-anchor:start"
         id="path4457" />
      <path
         d="m 566.48672,759.06647 q -12.3,0 -18.975,-6.225 -6.6,-6.225 -6.6,-15.3 0,-6.15 3,-11.25 3.075,-5.1 8.1,-8.4 5.025,-3.3 11.325,-5.1 6.375,-1.875 13.125,-1.875 12.675,0 19.5,6.225 6.825,6.225 6.825,15.675 0,5.025 -2.175,9.375 -2.1,4.35 -5.775,7.425 -3.6,3 -8.325,5.175 -4.65,2.175 -9.75,3.225 -5.1,1.05 -10.275,1.05 z m 3.975,-6.9 q 7.275,0 12.525,-5.175 5.25,-5.175 5.25,-12.375 0,-7.875 -4.875,-12.3 -4.8,-4.5 -10.875,-4.5 -7.125,0 -12.075,5.175 -4.95,5.175 -4.95,12.75 0,7.65 4.575,12.075 4.65,4.35 10.425,4.35 z"
         style="font-style:normal;font-variant:normal;font-weight:bold;font-stretch:normal;font-size:90px;line-height:94.99999881%;font-family:F0nt;-inkscape-font-specification:'F0nt Bold';text-align:start;writing-mode:lr-tb;text-anchor:start"
         id="path4459" />
      <path
         d="m 603.19687,757.56647 q 0,-7.65 1.05001,-22.125 1.125,-14.475 2.25,-22.575 10.275,-0.3 14.54999,-0.825 -2.325,17.25 -3.45,35.325 8.1,-6.75 16.05001,-10.2 1.125,-11.325 4.725,-24.525 6.75,-0.6 14.54999,-0.6 2.85001,4.875 7.275,7.65 4.42501,2.775 9.30001,2.775 9.97499,0 16.57499,-10.05 6.07501,-0.825 13.5,-0.825 -1.19999,21.075 -5.4,45.3 -11.02499,1.275 -14.54999,1.275 2.625,-13.725 5.32499,-35.775 -8.4,5.175 -19.65,5.175 -8.625,0 -15.45,-4.575 -1.275,5.1 -2.09999,10.425 1.79999,-0.225 3.59999,-0.225 10.2,0 15.30001,3.3 5.17499,3.3 5.17499,9.225 0,3.375 -2.1,6.075 -2.09999,2.7 -5.4,4.2 -3.29999,1.5 -6.975,2.25 -3.59999,0.825 -7.125,0.825 -7.72499,0 -12.375,-3.375 -4.65,-3.45 -4.65,-9.45 0,-2.1 0.075,-3.15 -8.17501,5.1 -16.05001,14.775 -1.125,0.3 -6.97499,0.3 -3.67501,0 -7.05001,-0.6 z m 43.725,-18.9 q -0.975,5.175 -0.975,7.575 0,3.825 1.95001,5.55 2.02499,1.65 5.02499,1.65 3.07501,0 5.47501,-2.025 2.39999,-2.025 2.39999,-5.025 0,-7.875 -11.325,-7.875 -0.75,0 -2.55,0.15 z"
         style="font-style:normal;font-variant:normal;font-weight:bold;font-stretch:normal;font-size:90px;line-height:94.99999881%;font-family:F0nt;-inkscape-font-specification:'F0nt Bold';text-align:start;writing-mode:lr-tb;text-anchor:start"
         id="path4461" />
      <path
         d="m 667.33828,707.99147 q 0,-7.275 7.35,-11.925 7.875,-4.95 23.7,-4.95 3.525,0 4.95,0.075 -1.05,3.975 -2.55,6.375 -0.525,0 -2.025,0 -1.5,-0.075 -1.95,-0.075 -8.55,0 -12.6,2.4 -3.975,2.325 -3.975,7.275 -5.85,0 -12.9,0.825 z"
         style="font-style:normal;font-variant:normal;font-weight:bold;font-stretch:normal;font-size:90px;line-height:94.99999881%;font-family:F0nt;-inkscape-font-specification:'F0nt Bold';text-align:start;writing-mode:lr-tb;text-anchor:start"
         id="path4463" />
      <path
         d="m 20.25,842.94651 q 0,-7.35 1.05,-21.975 1.125,-14.7 2.25,-22.5 15.675,-0.9 16.725,-0.975 -1.275,8.775 -2.625,23.4 -1.275,14.625 -1.275,22.425 -1.5,0.375 -8.1,0.375 -4.275,0 -8.025,-0.75 z m 24.6,0 q 0,-7.35 1.05,-21.975 1.125,-14.7 2.25,-22.5 15.675,-0.9 16.725,-0.975 -1.275,8.775 -2.625,23.4 -1.275,14.625 -1.275,22.425 -1.5,0.375 -8.1,0.375 -4.275,0 -8.025,-0.75 z"
         style="font-style:normal;font-variant:normal;font-weight:800;font-stretch:normal;font-size:90px;line-height:94.99999881%;font-family:F0nt;-inkscape-font-specification:'F0nt Ultra-Bold';text-align:start;writing-mode:lr-tb;text-anchor:start"
         id="path4465" />
      <path
         d="m 69,842.94651 q 1.125,-15.525 1.125,-21.975 0,-12.825 -0.75,-22.125 8.775,-0.15 16.725,-0.9 0,0 0,2.7 0,5.85 -0.225,11.325 -0.225,5.475 -0.6,10.65 -0.375,5.175 -0.45,6.825 4.275,-6.15 14.025,-20.7 3.825,-0.45 9.375,-1.8 0.225,0.525 7.425,23.475 4.275,-10.95 10.875,-42.825 6.075,-0.9 16.725,-0.9 -2.7,12.6 -5.325,22.725 -2.625,10.05 -4.5,15.825 -1.875,5.775 -3.6,9.9 -1.725,4.125 -2.625,5.625 -0.9,1.5 -1.575,2.175 -3,0.75 -8.1,0.75 -4.725,0 -9,-0.375 -4.2,-11.625 -7.5,-21.9 -7.65,11.325 -16.5,21.9 -1.125,0.375 -7.5,0.375 -5.25,0 -8.025,-0.75 z"
         style="font-style:normal;font-variant:normal;font-weight:800;font-stretch:normal;font-size:90px;line-height:94.99999881%;font-family:F0nt;-inkscape-font-specification:'F0nt Ultra-Bold';text-align:start;writing-mode:lr-tb;text-anchor:start"
         id="path4467" />
      <path
         d="m 138.78516,842.94651 q 0,-7.35 1.05,-21.975 1.125,-14.7 2.25,-22.5 15.675,-0.9 16.725,-0.975 -1.95,13.65 -3.375,33.975 6.15,-4.35 14.325,-7.575 1.05,-11.775 4.725,-25.725 7.125,-0.675 16.725,-0.675 -5.25,17.1 -6.225,22.8 8.25,0 12.525,3.225 4.275,3.15 4.275,8.85 0,4.275 -2.7,7.125 -2.625,2.85 -6.3,3.975 -3.6,1.125 -7.875,1.125 -7.5,0 -11.55,-3.375 -3.975,-3.375 -3.975,-9.3 l 0,-1.275 q -8.625,5.025 -14.475,12.675 -1.5,0.375 -8.1,0.375 -4.275,0 -8.025,-0.75 z m 47.625,-4.725 q 1.95,0 3.225,-1.35 1.35,-1.425 1.35,-3.9 0,-6.6 -7.725,-6.6 -0.975,2.925 -0.975,5.55 0,6.3 4.125,6.3 z"
         style="font-style:normal;font-variant:normal;font-weight:800;font-stretch:normal;font-size:90px;line-height:94.99999881%;font-family:F0nt;-inkscape-font-specification:'F0nt Ultra-Bold';text-align:start;writing-mode:lr-tb;text-anchor:start"
         id="path4469" />
      <path
         d="m 223.16016,842.94651 q 1.125,-15.525 1.125,-21.975 0,-12.825 -0.75,-22.125 8.775,-0.15 16.725,-0.9 0,0 0,2.7 0,5.85 -0.225,11.325 -0.225,5.475 -0.6,10.65 -0.375,5.175 -0.45,6.825 4.275,-6.15 14.025,-20.7 3.825,-0.45 9.375,-1.8 0.225,0.525 7.425,23.475 4.275,-10.95 10.875,-42.825 6.075,-0.9 16.725,-0.9 -2.7,12.6 -5.325,22.725 -2.625,10.05 -4.5,15.825 -1.875,5.775 -3.6,9.9 -1.725,4.125 -2.625,5.625 -0.9,1.5 -1.575,2.175 -3,0.75 -8.1,0.75 -4.725,0 -9,-0.375 -4.2,-11.625 -7.5,-21.9 -7.65,11.325 -16.5,21.9 -1.125,0.375 -7.5,0.375 -5.25,0 -8.025,-0.75 z"
         style="font-style:normal;font-variant:normal;font-weight:800;font-stretch:normal;font-size:90px;line-height:94.99999881%;font-family:F0nt;-inkscape-font-specification:'F0nt Ultra-Bold';text-align:start;writing-mode:lr-tb;text-anchor:start"
         id="path4471" />
      <path
         d="m 303.29531,825.17151 q 1.05,5.775 5.25,8.775 4.2,2.925 9.975,2.925 6.6,0 11.175,-5.025 4.65,-5.1 4.65,-11.625 0,-5.25 -2.4,-9.075 -2.325,-3.825 -5.55,-5.475 -3.15,-1.65 -6.525,-1.65 -4.8,0 -8.475,2.625 -3.675,2.55 -5.625,6 -2.175,0 -7.425,-0.975 -5.175,-0.975 -6.9,-1.8 3.225,-5.25 11.85,-9.375 8.7,-4.2 21.075,-4.2 13.125,0 19.875,6.225 6.825,6.225 6.825,15.6 0,6.225 -3.3,11.4 -3.3,5.1 -8.7,8.325 -5.4,3.225 -11.925,5.025 -6.45,1.725 -13.2,1.725 -6.3,0 -11.325,-1.725 -5.025,-1.8 -7.95,-4.575 -2.85,-2.85 -4.35,-6 -1.5,-3.15 -1.5,-6.3 0,-3.075 2.175,-4.95 2.175,-1.95 4.8,-2.475 2.7,-0.6 6.075,-0.6 8.325,0 14.4,1.35 -2.1,4.8 -2.7,6.975 -4.95,-1.05 -10.275,-1.125 z"
         style="font-style:normal;font-variant:normal;font-weight:800;font-stretch:normal;font-size:90px;line-height:94.99999881%;font-family:F0nt;-inkscape-font-specification:'F0nt Ultra-Bold';text-align:start;writing-mode:lr-tb;text-anchor:start"
         id="path4473" />
      <path
         d="m 350.25,842.94651 q 0,-7.35 1.05,-21.975 1.125,-14.7 2.25,-22.5 15.675,-0.9 16.725,-0.975 -1.95,13.575 -3.375,33.6 6.75,-5.55 13.875,-8.775 1.125,-10.875 4.575,-24.15 7.125,-0.675 16.725,-0.675 2.775,4.725 6.9,7.425 4.125,2.625 8.4,2.625 8.925,0 14.85,-9.525 8.55,-0.975 15.525,-0.975 -1.2,20.7 -5.325,45.225 -10.725,1.425 -16.725,1.425 2.25,-11.475 5.25,-34.65 -7.725,4.35 -18.3,4.35 -7.5,0 -13.95,-3.75 -1.125,4.35 -1.8,8.55 0.675,-0.075 1.95,-0.075 10.65,0 15.9,3.45 5.25,3.375 5.25,9.45 0,3.525 -2.25,6.3 -2.175,2.7 -5.625,4.2 -3.45,1.5 -7.2,2.25 -3.75,0.825 -7.35,0.825 -8.025,0 -12.675,-3.45 -4.65,-3.45 -4.65,-9.45 0,-0.45 0,-1.275 0.075,-0.825 0.075,-1.2 -6.975,4.875 -13.95,14.1 -1.5,0.375 -8.1,0.375 -4.275,0 -8.025,-0.75 z m 45.675,-18.75 q -1.05,5.625 -1.05,7.5 0,6.525 5.775,6.525 2.7,0 4.725,-1.875 2.025,-1.95 2.025,-4.725 0,-7.425 -10.575,-7.425 l -0.9,0 z"
         style="font-style:normal;font-variant:normal;font-weight:800;font-stretch:normal;font-size:90px;line-height:94.99999881%;font-family:F0nt;-inkscape-font-specification:'F0nt Ultra-Bold';text-align:start;writing-mode:lr-tb;text-anchor:start"
         id="path4475" />
      <path
         d="m 414.31641,793.44651 q 0,-7.275 7.5,-12.075 8.175,-5.175 24.3,-5.175 3.825,0 5.325,0.075 -1.2,4.275 -3,7.275 -0.6,0 -2.1,0 -1.5,-0.075 -1.95,-0.075 -7.875,0 -11.55,2.175 -3.75,2.25 -3.75,6.9 -7.575,0 -14.775,0.9 z"
         style="font-style:normal;font-variant:normal;font-weight:800;font-stretch:normal;font-size:90px;line-height:94.99999881%;font-family:F0nt;-inkscape-font-specification:'F0nt Ultra-Bold';text-align:start;writing-mode:lr-tb;text-anchor:start"
         id="path4477" />
      <path
         d="m 474.35156,842.94651 q 1.125,-15.525 1.125,-21.975 0,-12.825 -0.75,-22.125 8.775,-0.15 16.725,-0.9 0,0 0,2.7 0,5.85 -0.225,11.325 -0.225,5.475 -0.6,10.65 -0.375,5.175 -0.45,6.825 4.275,-6.15 14.025,-20.7 3.825,-0.45 9.375,-1.8 0.225,0.525 7.425,23.475 4.275,-10.95 10.875,-42.825 6.075,-0.9 16.725,-0.9 -2.7,12.6 -5.325,22.725 -2.625,10.05 -4.5,15.825 -1.875,5.775 -3.6,9.9 -1.725,4.125 -2.625,5.625 -0.9,1.5 -1.575,2.175 -3,0.75 -8.1,0.75 -4.725,0 -9,-0.375 -4.2,-11.625 -7.5,-21.9 -7.65,11.325 -16.5,21.9 -1.125,0.375 -7.5,0.375 -5.25,0 -8.025,-0.75 z"
         style="font-style:normal;font-variant:normal;font-weight:800;font-stretch:normal;font-size:90px;line-height:94.99999881%;font-family:F0nt;-inkscape-font-specification:'F0nt Ultra-Bold';text-align:start;writing-mode:lr-tb;text-anchor:start"
         id="path4479" />
      <path
         d="m 566.26172,844.59651 q -6.525,0 -11.625,-1.725 -5.025,-1.8 -8.1,-4.8 -3.075,-3.075 -4.575,-6.825 -1.575,-3.825 -1.575,-8.1 0,-8.25 5.4,-14.475 5.4,-6.3 13.5,-9.3 8.175,-3.075 17.475,-3.075 13.05,0 19.8,6.225 6.825,6.225 6.825,15.6 0,6.3 -3.375,11.55 -3.375,5.175 -8.85,8.4 -5.4,3.15 -11.85,4.875 -6.45,1.65 -13.05,1.65 z m 4.575,-7.8 q 6.525,0 11.175,-4.95 4.65,-5.025 4.65,-11.625 0,-7.65 -4.5,-11.85 -4.5,-4.275 -9.975,-4.275 -6.375,0 -10.8,4.95 -4.35,4.875 -4.35,12 0,7.425 4.275,11.625 4.35,4.125 9.525,4.125 z"
         style="font-style:normal;font-variant:normal;font-weight:800;font-stretch:normal;font-size:90px;line-height:94.99999881%;font-family:F0nt;-inkscape-font-specification:'F0nt Ultra-Bold';text-align:start;writing-mode:lr-tb;text-anchor:start"
         id="path4481" />
      <path
         d="m 602.67187,842.94651 q 0,-7.35 1.05,-21.975 1.125,-14.7 2.25,-22.5 15.67501,-0.9 16.725,-0.975 -1.94999,13.575 -3.375,33.6 6.75,-5.55 13.875,-8.775 1.125,-10.875 4.57501,-24.15 7.125,-0.675 16.725,-0.675 2.775,4.725 6.9,7.425 4.125,2.625 8.39999,2.625 8.925,0 14.85001,-9.525 8.54999,-0.975 15.52499,-0.975 -1.2,20.7 -5.325,45.225 -10.72499,1.425 -16.72499,1.425 2.25,-11.475 5.25,-34.65 -7.725,4.35 -18.30001,4.35 -7.5,0 -13.94999,-3.75 -1.125,4.35 -1.80001,8.55 0.67501,-0.075 1.95001,-0.075 10.64999,0 15.89999,3.45 5.25,3.375 5.25,9.45 0,3.525 -2.25,6.3 -2.17499,2.7 -5.625,4.2 -3.45,1.5 -7.2,2.25 -3.75,0.825 -7.34999,0.825 -8.02501,0 -12.67501,-3.45 -4.65,-3.45 -4.65,-9.45 0,-0.45 0,-1.275 0.075,-0.825 0.075,-1.2 -6.975,4.875 -13.95001,14.1 -1.5,0.375 -8.1,0.375 -4.275,0 -8.025,-0.75 z m 45.675,-18.75 q -1.05,5.625 -1.05,7.5 0,6.525 5.775,6.525 2.70001,0 4.725,-1.875 2.025,-1.95 2.025,-4.725 0,-7.425 -10.57499,-7.425 l -0.90001,0 z"
         style="font-style:normal;font-variant:normal;font-weight:800;font-stretch:normal;font-size:90px;line-height:94.99999881%;font-family:F0nt;-inkscape-font-specification:'F0nt Ultra-Bold';text-align:start;writing-mode:lr-tb;text-anchor:start"
         id="path4483" />
      <path
         d="m 666.73828,793.44651 q 0,-7.275 7.5,-12.075 8.175,-5.175 24.3,-5.175 3.825,0 5.325,0.075 -1.2,4.275 -3,7.275 -0.6,0 -2.1,0 -1.5,-0.075 -1.95,-0.075 -7.875,0 -11.55,2.175 -3.75,2.25 -3.75,6.9 -7.575,0 -14.775,0.9 z"
         style="font-style:normal;font-variant:normal;font-weight:800;font-stretch:normal;font-size:90px;line-height:94.99999881%;font-family:F0nt;-inkscape-font-specification:'F0nt Ultra-Bold';text-align:start;writing-mode:lr-tb;text-anchor:start"
         id="path4485" />
      <path
         d="m 19.125,928.40162 q 0,-7.125 1.125,-21.975 1.2,-14.925 2.25,-22.425 16.8,-0.825 18.825,-1.05 -1.275,9 -2.7,23.625 -1.35,14.625 -1.35,22.275 -1.35,0.375 -9.075,0.375 -4.35,0 -9.075,-0.825 z m 24.675,0 q 0,-7.125 1.125,-21.975 1.2,-14.925 2.25,-22.425 16.8,-0.825 18.825,-1.05 -1.275,9 -2.7,23.625 -1.35,14.625 -1.35,22.275 -1.275,0.375 -9.075,0.375 -4.35,0 -9.075,-0.825 z"
         style="font-style:normal;font-variant:normal;font-weight:900;font-stretch:normal;font-size:90px;line-height:94.99999881%;font-family:F0nt;-inkscape-font-specification:'F0nt, Heavy';text-align:start;writing-mode:lr-tb;text-anchor:start"
         id="path4487" />
      <path
         d="m 68.4,928.40162 q 1.125,-14.85 1.125,-22.275 0,-11.175 -0.75,-21.675 9.6,-0.15 18.825,-1.05 0,0 0,1.425 0,9 -1.35,28.125 9.225,-13.65 12.15,-18.525 4.575,-0.45 10.5,-2.025 0.3,0.75 6.375,21.225 3.525,-10.35 9.675,-40.425 7.35,-1.05 18.825,-1.05 -4.2,20.325 -8.175,33.75 -3.975,13.35 -5.85,17.175 -1.8,3.825 -3.225,5.325 -3.825,0.825 -9.15,0.825 -6,0 -10.05,-0.45 -4.125,-11.775 -6.525,-20.1 -6.825,10.5 -14.85,20.175 -1.2,0.375 -8.475,0.375 -5.55,0 -9.075,-0.825 z"
         style="font-style:normal;font-variant:normal;font-weight:900;font-stretch:normal;font-size:90px;line-height:94.99999881%;font-family:F0nt;-inkscape-font-specification:'F0nt, Heavy';text-align:start;writing-mode:lr-tb;text-anchor:start"
         id="path4489" />
      <path
         d="m 138.18516,928.40162 q 0,-7.125 1.125,-21.975 1.2,-14.925 2.25,-22.425 16.8,-0.825 18.825,-1.05 -1.875,12.75 -3.375,32.55 5.025,-3.525 11.85,-6.3 1.05,-11.4 4.575,-25.5 9,-0.75 18.9,-0.75 -0.6,1.95 -2.25,7.425 -1.65,5.4 -2.55,8.7 -0.9,3.3 -1.5,6.225 8.1,0.225 12.15,3.45 4.125,3.15 4.125,8.7 0,4.425 -2.775,7.425 -2.775,2.925 -6.6,4.05 -3.825,1.2 -8.25,1.2 -8.025,0 -12.15,-3.45 -4.05,-3.45 -4.05,-9.375 l 0,-0.45 q -7.35,4.8 -12.15,12 -1.35,0.375 -9.075,0.375 -4.35,0 -9.075,-0.825 z m 48.225,-5.4 q 1.65,0 2.7,-1.275 1.05,-1.275 1.05,-3.525 0,-5.7 -6.3,-6.15 -0.9,2.55 -0.9,5.175 0,5.775 3.45,5.775 z"
         style="font-style:normal;font-variant:normal;font-weight:900;font-stretch:normal;font-size:90px;line-height:94.99999881%;font-family:F0nt;-inkscape-font-specification:'F0nt, Heavy';text-align:start;writing-mode:lr-tb;text-anchor:start"
         id="path4491" />
      <path
         d="m 222.56016,928.40162 q 1.125,-14.85 1.125,-22.275 0,-11.175 -0.75,-21.675 9.6,-0.15 18.825,-1.05 0,0 0,1.425 0,9 -1.35,28.125 9.225,-13.65 12.15,-18.525 4.575,-0.45 10.5,-2.025 0.3,0.75 6.375,21.225 3.525,-10.35 9.675,-40.425 7.35,-1.05 18.825,-1.05 -4.2,20.325 -8.175,33.75 -3.975,13.35 -5.85,17.175 -1.8,3.825 -3.225,5.325 -3.825,0.825 -9.15,0.825 -6,0 -10.05,-0.45 -4.125,-11.775 -6.525,-20.1 -6.825,10.5 -14.85,20.175 -1.2,0.375 -8.475,0.375 -5.55,0 -9.075,-0.825 z"
         style="font-style:normal;font-variant:normal;font-weight:900;font-stretch:normal;font-size:90px;line-height:94.99999881%;font-family:F0nt;-inkscape-font-specification:'F0nt, Heavy';text-align:start;writing-mode:lr-tb;text-anchor:start"
         id="path4493" />
      <path
         d="m 304.64531,911.15162 q 1.275,5.325 5.175,7.8 3.9,2.475 9.075,2.475 5.85,0 9.825,-4.725 4.05,-4.8 4.05,-10.8 0,-7.425 -4.275,-11.475 -4.275,-4.05 -9.075,-4.05 -4.2,0 -7.425,2.55 -3.225,2.475 -4.95,5.7 -2.475,0 -8.4,-1.05 -5.925,-1.05 -7.8,-2.025 3.15,-5.325 12.075,-9.6 8.925,-4.275 21.75,-4.275 6.9,0 12.15,1.8 5.325,1.725 8.475,4.875 3.15,3.075 4.725,6.9 1.575,3.825 1.575,8.25 0,6.3 -3.45,11.55 -3.375,5.175 -8.925,8.4 -5.475,3.225 -12.15,4.95 -6.6,1.725 -13.35,1.725 -6.45,0 -11.625,-1.8 -5.1,-1.8 -8.025,-4.65 -2.85,-2.85 -4.35,-5.925 -1.5,-3.15 -1.5,-6.225 0,-2.475 1.35,-4.275 1.275,-1.8 3.45,-2.625 2.25,-0.9 4.425,-1.2 2.25,-0.375 4.8,-0.375 8.55,0 14.7,1.425 -2.1,4.725 -3,7.8 -5.625,-0.975 -9.3,-1.125 z"
         style="font-style:normal;font-variant:normal;font-weight:900;font-stretch:normal;font-size:90px;line-height:94.99999881%;font-family:F0nt;-inkscape-font-specification:'F0nt, Heavy';text-align:start;writing-mode:lr-tb;text-anchor:start"
         id="path4495" />
      <path
         d="m 349.65,928.40162 q 0,-7.125 1.125,-21.975 1.2,-14.925 2.25,-22.425 16.8,-0.825 18.825,-1.05 -2.1,15.3 -3.375,32.025 5.85,-4.875 11.7,-7.575 1.125,-10.575 4.425,-23.7 9,-0.75 18.9,-0.75 2.7,4.65 6.525,7.2 3.9,2.55 7.65,2.55 7.725,0 13.125,-9.15 8.775,-1.05 17.475,-1.05 -1.425,21.6 -5.325,45.075 -14.4,1.65 -18.825,1.65 2.025,-10.425 5.175,-33.75 -7.5,3.675 -16.95,3.675 -6.825,0 -12.45,-2.925 -1.05,4.2 -1.5,6.825 l 0.3,0 q 11.025,0 16.425,3.525 5.4,3.45 5.4,9.675 0,3.6 -2.325,6.375 -2.325,2.775 -5.925,4.35 -3.6,1.575 -7.5,2.325 -3.825,0.825 -7.425,0.825 -8.325,0 -13.05,-3.525 -4.65,-3.6 -4.65,-9.45 l 0,-1.65 q -6.525,5.25 -11.85,13.35 -1.35,0.375 -9.075,0.375 -4.35,0 -9.075,-0.825 z m 47.55,-18.6 q -1.05,4.8 -1.05,7.35 0,5.85 4.575,5.85 2.25,0 3.9,-1.725 1.725,-1.8 1.725,-4.35 0,-6.9 -9.15,-7.125 z"
         style="font-style:normal;font-variant:normal;font-weight:900;font-stretch:normal;font-size:90px;line-height:94.99999881%;font-family:F0nt;-inkscape-font-specification:'F0nt, Heavy';text-align:start;writing-mode:lr-tb;text-anchor:start"
         id="path4497" />
      <path
         d="m 413.79141,878.90162 q 0,-7.425 7.725,-12.225 8.475,-5.4 24.9,-5.4 3.975,0 5.625,0.075 -1.35,4.8 -3.375,8.1 -0.6,0 -2.175,0 -1.65,-0.075 -2.1,-0.075 -6.825,0 -10.5,2.1 -3.375,1.95 -3.375,6.375 -7.275,0 -16.725,1.05 z"
         style="font-style:normal;font-variant:normal;font-weight:900;font-stretch:normal;font-size:90px;line-height:94.99999881%;font-family:F0nt;-inkscape-font-specification:'F0nt, Heavy';text-align:start;writing-mode:lr-tb;text-anchor:start"
         id="path4499" />
      <path
         d="m 473.75156,928.40162 q 1.125,-14.85 1.125,-22.275 0,-11.175 -0.75,-21.675 9.6,-0.15 18.825,-1.05 0,0 0,1.425 0,9 -1.35,28.125 9.225,-13.65 12.15,-18.525 4.575,-0.45 10.5,-2.025 0.3,0.75 6.375,21.225 3.525,-10.35 9.675,-40.425 7.35,-1.05 18.825,-1.05 -4.2,20.325 -8.175,33.75 -3.975,13.35 -5.85,17.175 -1.8,3.825 -3.225,5.325 -3.825,0.825 -9.15,0.825 -6,0 -10.05,-0.45 -4.125,-11.775 -6.525,-20.1 -6.825,10.5 -14.85,20.175 -1.2,0.375 -8.475,0.375 -5.55,0 -9.075,-0.825 z"
         style="font-style:normal;font-variant:normal;font-weight:900;font-stretch:normal;font-size:90px;line-height:94.99999881%;font-family:F0nt;-inkscape-font-specification:'F0nt, Heavy';text-align:start;writing-mode:lr-tb;text-anchor:start"
         id="path4501" />
      <path
         d="m 566.03672,930.12662 q -6.75,0 -11.925,-1.8 -5.175,-1.8 -8.25,-4.875 -3.075,-3.075 -4.575,-6.75 -1.5,-3.75 -1.5,-8.025 0,-8.325 5.55,-14.625 5.625,-6.3 13.95,-9.3 8.325,-3.075 17.7,-3.075 6.9,0 12.15,1.8 5.325,1.725 8.475,4.875 3.15,3.075 4.725,6.9 1.575,3.825 1.575,8.25 0,6.375 -3.45,11.625 -3.45,5.25 -9,8.4 -5.55,3.15 -12.15,4.875 -6.6,1.725 -13.275,1.725 z m 5.175,-8.7 q 5.775,0 9.825,-4.725 4.05,-4.8 4.05,-10.8 0,-7.425 -4.275,-11.475 -4.275,-4.05 -9.075,-4.05 -5.55,0 -9.375,4.65 -3.75,4.65 -3.75,11.25 0,7.2 3.975,11.175 4.05,3.975 8.625,3.975 z"
         style="font-style:normal;font-variant:normal;font-weight:900;font-stretch:normal;font-size:90px;line-height:94.99999881%;font-family:F0nt;-inkscape-font-specification:'F0nt, Heavy';text-align:start;writing-mode:lr-tb;text-anchor:start"
         id="path4503" />
      <path
         d="m 602.07187,928.40162 q 0,-7.125 1.125,-21.975 1.20001,-14.925 2.25,-22.425 16.80001,-0.825 18.82501,-1.05 -2.10001,15.3 -3.375,32.025 5.85,-4.875 11.69999,-7.575 1.125,-10.575 4.42501,-23.7 9,-0.75 18.89999,-0.75 2.70001,4.65 6.525,7.2 3.9,2.55 7.65,2.55 7.725,0 13.125,-9.15 8.77501,-1.05 17.475,-1.05 -1.42499,21.6 -5.32499,45.075 -14.40001,1.65 -18.82501,1.65 2.025,-10.425 5.175,-33.75 -7.5,3.675 -16.94999,3.675 -6.82501,0 -12.45001,-2.925 -1.04999,4.2 -1.5,6.825 l 0.30001,0 q 11.025,0 16.42499,3.525 5.4,3.45 5.4,9.675 0,3.6 -2.32499,6.375 -2.32501,2.775 -5.92501,4.35 -3.6,1.575 -7.5,2.325 -3.82499,0.825 -7.42499,0.825 -8.32501,0 -13.05001,-3.525 -4.65,-3.6 -4.65,-9.45 l 0,-1.65 q -6.525,5.25 -11.85,13.35 -1.34999,0.375 -9.07499,0.375 -4.35001,0 -9.07501,-0.825 z m 47.55001,-18.6 q -1.05001,4.8 -1.05001,7.35 0,5.85 4.57501,5.85 2.25,0 3.89999,-1.725 1.72501,-1.8 1.72501,-4.35 0,-6.9 -9.15,-7.125 z"
         style="font-style:normal;font-variant:normal;font-weight:900;font-stretch:normal;font-size:90px;line-height:94.99999881%;font-family:F0nt;-inkscape-font-specification:'F0nt, Heavy';text-align:start;writing-mode:lr-tb;text-anchor:start"
         id="path4505" />
      <path
         d="m 666.21328,878.90162 q 0,-7.425 7.725,-12.225 8.475,-5.4 24.9,-5.4 3.975,0 5.625,0.075 -1.35,4.8 -3.375,8.1 -0.6,0 -2.175,0 -1.65,-0.075 -2.1,-0.075 -6.825,0 -10.5,2.1 -3.375,1.95 -3.375,6.375 -7.275,0 -16.725,1.05 z"
         style="font-style:normal;font-variant:normal;font-weight:900;font-stretch:normal;font-size:90px;line-height:94.99999881%;font-family:F0nt;-inkscape-font-specification:'F0nt, Heavy';text-align:start;writing-mode:lr-tb;text-anchor:start"
         id="path4507" />
      <path
         d="m 18,1014.5622 q 0,-6.75 1.125,-21.82504 1.2,-15.15 2.25,-22.425 16.125,-0.675 21,-1.2 -1.275,8.4 -2.7,23.325 -1.425,14.92504 -1.425,22.57504 -1.8,0.45 -10.125,0.45 -5.475,0 -10.125,-0.9 z m 24.75,0 q 0,-6.75 1.125,-21.82504 1.2,-15.15 2.25,-22.425 16.125,-0.675 21,-1.2 -1.275,8.4 -2.7,23.325 Q 63,1007.3622 63,1015.0122 q -1.8,0.45 -10.125,0.45 -5.475,0 -10.125,-0.9 z"
         style="font-style:normal;font-variant:normal;font-weight:900;font-stretch:normal;font-size:90px;line-height:94.99999881%;font-family:'F0nt Ultra';-inkscape-font-specification:'F0nt Ultra, Heavy';text-align:start;writing-mode:lr-tb;text-anchor:start"
         id="path4509" />
      <path
         d="M 67.875,1014.5622 Q 69,1000.2372 69,992.06216 q 0,-8.85 -0.75,-21.375 11.4,-0.15 21,-1.125 0,11.325 -1.275,27 8.7,-13.5 9.9,-15.75 4.65,-0.45 11.625,-2.25 2.85,10.05 5.4,18.9 2.625,-8.7 8.475,-38.025 8.1,-1.125 21,-1.125 -10.125,49.27504 -16.875,56.25004 -3.9,0.9 -10.125,0.9 -6.75,0 -11.25,-0.45 -4.05,-12.525 -5.625,-18.45004 -5.775,9.30004 -13.125,18.45004 -1.35,0.45 -9.375,0.45 -6.675,0 -10.125,-0.9 z"
         style="font-style:normal;font-variant:normal;font-weight:900;font-stretch:normal;font-size:90px;line-height:94.99999881%;font-family:'F0nt Ultra';-inkscape-font-specification:'F0nt Ultra, Heavy';text-align:start;writing-mode:lr-tb;text-anchor:start"
         id="path4511" />
      <path
         d="m 137.66016,1014.5622 q 0,-6.75 1.125,-21.82504 1.2,-15.15 2.25,-22.425 16.125,-0.675 21,-1.2 -2.025,13.725 -3.375,30.97504 3.825,-2.55004 9.375,-4.87504 0.975,-10.65 4.5,-25.275 9.375,-0.825 21,-0.825 -0.75,2.7 -2.325,7.575 -1.5,4.8 -2.475,8.25 -0.9,3.375 -1.5,6.075 7.95,0.45 11.775,3.675 3.9,3.225 3.9,8.62504 0,4.65 -3,7.725 -2.925,3.075 -6.825,4.2 -3.9,1.125 -8.55,1.125 -8.25,0 -12.45,-3.375 -4.2,-3.375 -4.425,-9 -5.925,4.5 -9.75,11.025 -1.8,0.45 -10.125,0.45 -5.475,0 -10.125,-0.9 z m 46.95,-15.97504 q -0.825,2.62504 -0.825,4.72504 0,2.85 0.6,4.05 0.6,1.125 2.025,1.125 1.275,0 2.1,-1.125 0.9,-1.2 0.9,-3.3 0,-4.80004 -4.8,-5.47504 z"
         style="font-style:normal;font-variant:normal;font-weight:900;font-stretch:normal;font-size:90px;line-height:94.99999881%;font-family:'F0nt Ultra';-inkscape-font-specification:'F0nt Ultra, Heavy';text-align:start;writing-mode:lr-tb;text-anchor:start"
         id="path4513" />
      <path
         d="m 222.03516,1014.5622 q 1.125,-14.325 1.125,-22.50004 0,-8.85 -0.75,-21.375 11.4,-0.15 21,-1.125 0,11.325 -1.275,27 8.7,-13.5 9.9,-15.75 4.65,-0.45 11.625,-2.25 2.85,10.05 5.4,18.9 2.625,-8.7 8.475,-38.025 8.1,-1.125 21,-1.125 -10.125,49.27504 -16.875,56.25004 -3.9,0.9 -10.125,0.9 -6.75,0 -11.25,-0.45 -4.05,-12.525 -5.625,-18.45004 -5.775,9.30004 -13.125,18.45004 -1.35,0.45 -9.375,0.45 -6.675,0 -10.125,-0.9 z"
         style="font-style:normal;font-variant:normal;font-weight:900;font-stretch:normal;font-size:90px;line-height:94.99999881%;font-family:'F0nt Ultra';-inkscape-font-specification:'F0nt Ultra, Heavy';text-align:start;writing-mode:lr-tb;text-anchor:start"
         id="path4515" />
      <path
         d="m 306.22031,997.76216 q 2.625,9.00004 13.125,9.00004 5.025,0 8.4,-4.5 3.45,-4.57504 3.45,-10.05004 0,-7.2 -3.975,-11.025 -3.9,-3.825 -8.1,-3.825 -3.75,0 -6.6,2.475 -2.775,2.4 -4.2,5.475 -2.775,0 -9.3,-1.125 -6.525,-1.2 -8.7,-2.25 3.15,-5.325 12.225,-9.75 9.075,-4.425 22.425,-4.425 7.125,0 12.525,1.8 5.4,1.8 8.475,4.95 3.15,3.075 4.65,6.9 1.575,3.75 1.575,8.1 0,6.45 -3.525,11.70004 -3.525,5.25 -9.225,8.475 -5.7,3.225 -12.45,4.95 -6.675,1.725 -13.5,1.725 -6.675,0 -11.85,-1.8 -5.175,-1.875 -8.1,-4.725 -2.925,-2.925 -4.35,-6 -1.5,-3.15 -1.5,-6.15004 0,-2.7 1.425,-4.575 1.35,-1.875 3.75,-2.775 2.4,-0.9 4.725,-1.275 2.4,-0.375 5.1,-0.375 8.775,0 15,1.5 -2.625,6 -3.375,8.625 -3.9,-0.75 -8.1,-1.05 z"
         style="font-style:normal;font-variant:normal;font-weight:900;font-stretch:normal;font-size:90px;line-height:94.99999881%;font-family:'F0nt Ultra';-inkscape-font-specification:'F0nt Ultra, Heavy';text-align:start;writing-mode:lr-tb;text-anchor:start"
         id="path4517" />
      <path
         d="m 349.125,1014.5622 q 0,-6.75 1.125,-21.82504 1.2,-15.15 2.25,-22.425 16.125,-0.675 21,-1.2 -1.95,12.75 -3.3,30.3 4.5,-3.675 9.525,-6.15 1.125,-10.275 4.275,-23.325 9.375,-0.825 21,-0.825 2.625,4.5 6.225,6.975 3.6,2.4 6.75,2.4 6.525,0 11.4,-8.625 9.6,-1.2 19.5,-1.2 -1.575,21.675 -5.25,45.00004 -14.025,1.8 -21,1.8 2.1,-10.35 5.1,-32.77504 -6.825,3 -15.6,3 -5.775,0 -10.95,-2.325 -0.975,4.125 -1.2,5.325 10.8,0.225 15.975,3.825 5.175,3.525 5.175,9.67504 0,3.675 -2.475,6.6 -2.4,2.85 -6.225,4.425 -3.75,1.575 -7.725,2.325 -3.9,0.825 -7.575,0.825 -8.625,0 -13.35,-3.6 -4.65,-3.675 -4.65,-9.45 l 0,-0.675 q -5.55,5.1 -9.75,12.375 -1.8,0.45 -10.125,0.45 -5.475,0 -10.125,-0.9 z m 49.35,-18.22504 q -0.975,4.35004 -0.975,6.97504 0,2.85 0.75,4.05 0.825,1.125 2.625,1.125 1.8,0 3.15,-1.65 1.35,-1.65 1.35,-3.9 0,-5.85004 -6.9,-6.60004 z"
         style="font-style:normal;font-variant:normal;font-weight:900;font-stretch:normal;font-size:90px;line-height:94.99999881%;font-family:'F0nt Ultra';-inkscape-font-specification:'F0nt Ultra, Heavy';text-align:start;writing-mode:lr-tb;text-anchor:start"
         id="path4519" />
      <path
         d="m 413.19141,965.06216 q 0,-7.425 7.875,-12.375 8.925,-5.625 25.5,-5.625 4.275,0 6,0.075 -0.45,1.65 -1.725,4.725 -1.275,3 -2.025,4.275 -0.6,0 -2.325,0 -1.725,-0.075 -2.175,-0.075 -6.075,0 -9.375,1.875 -3.15,1.8 -3.15,6 -9.225,0 -18.6,1.125 z"
         style="font-style:normal;font-variant:normal;font-weight:900;font-stretch:normal;font-size:90px;line-height:94.99999881%;font-family:'F0nt Ultra';-inkscape-font-specification:'F0nt Ultra, Heavy';text-align:start;writing-mode:lr-tb;text-anchor:start"
         id="path4521" />
      <path
         d="m 473.22656,1014.5622 q 1.125,-14.325 1.125,-22.50004 0,-8.85 -0.75,-21.375 11.4,-0.15 21,-1.125 0,11.325 -1.275,27 8.7,-13.5 9.9,-15.75 4.65,-0.45 11.625,-2.25 2.85,10.05 5.4,18.9 2.625,-8.7 8.475,-38.025 8.1,-1.125 21,-1.125 -10.125,49.27504 -16.875,56.25004 -3.9,0.9 -10.125,0.9 -6.75,0 -11.25,-0.45 -4.05,-12.525 -5.625,-18.45004 -5.775,9.30004 -13.125,18.45004 -1.35,0.45 -9.375,0.45 -6.675,0 -10.125,-0.9 z"
         style="line-height:94.99999881%;fill:#ee0033;fill-opacity:1"
         id="path4523" />
      <path
         d="m 565.81172,1016.3622 q -6.975,0 -12.3,-1.8 -5.25,-1.8 -8.325,-4.875 -3,-3.15 -4.425,-6.825 -1.5,-3.67504 -1.5,-7.87504 0,-6.375 3.375,-11.625 3.3,-5.325 8.7,-8.625 5.475,-3.375 12.15,-5.175 6.75,-1.8 13.8,-1.8 7.125,0 12.525,1.8 5.4,1.8 8.475,4.95 3.15,3.075 4.65,6.9 1.575,3.75 1.575,8.1 0,6.45 -3.525,11.70004 -3.525,5.25 -9.225,8.475 -5.7,3.225 -12.45,4.95 -6.675,1.725 -13.5,1.725 z m 5.85,-9.6 q 5.025,0 8.4,-4.5 3.45,-4.57504 3.45,-10.05004 0,-7.2 -3.975,-11.025 -3.9,-3.825 -8.1,-3.825 -4.725,0 -7.95,4.425 -3.225,4.425 -3.225,10.5 0,6.975 3.675,10.72504 3.75,3.75 7.725,3.75 z"
         style="line-height:94.99999881%;fill:#ee0033;fill-opacity:1"
         id="path4525" />
      <path
         d="m 601.54687,1014.5622 q 0,-6.75 1.125,-21.82504 1.20001,-15.15 2.25,-22.425 16.125,-0.675 21,-1.2 -1.95,12.75 -3.29999,30.3 4.5,-3.675 9.525,-6.15 1.125,-10.275 4.27499,-23.325 9.375,-0.825 21,-0.825 2.625,4.5 6.22501,6.975 3.6,2.4 6.75,2.4 6.52499,0 11.39999,-8.625 9.60001,-1.2 19.5,-1.2 -1.575,21.675 -5.25,45.00004 -14.02499,1.8 -21,1.8 2.10001,-10.35 5.10001,-32.77504 -6.82501,3 -15.60001,3 -5.77499,0 -10.95,-2.325 -0.97499,4.125 -1.19999,5.325 10.79999,0.225 15.975,3.825 5.17499,3.525 5.17499,9.67504 0,3.675 -2.475,6.6 -2.4,2.85 -6.225,4.425 -3.75,1.575 -7.72499,2.325 -3.90001,0.825 -7.57501,0.825 -8.625,0 -13.35,-3.6 -4.65,-3.675 -4.65,-9.45 l 0,-0.675 q -5.54999,5.1 -9.75,12.375 -1.79999,0.45 -10.125,0.45 -5.475,0 -10.125,-0.9 z m 49.35001,-18.22504 q -0.97501,4.35004 -0.97501,6.97504 0,2.85 0.75,4.05 0.82501,1.125 2.625,1.125 1.8,0 3.15,-1.65 1.35,-1.65 1.35,-3.9 0,-5.85004 -6.89999,-6.60004 z"
         style="line-height:94.99999881%;fill:#ee0033;fill-opacity:1"
         id="path4527" />
      <path
         d="m 665.61328,965.06216 q 0,-7.425 7.875,-12.375 8.925,-5.625 25.5,-5.625 4.275,0 6,0.075 -0.45,1.65 -1.725,4.725 -1.275,3 -2.025,4.275 -0.6,0 -2.325,0 -1.725,-0.075 -2.175,-0.075 -6.075,0 -9.375,1.875 -3.15,1.8 -3.15,6 -9.225,0 -18.6,1.125 z"
         style="line-height:94.99999881%;fill:#ee0033;fill-opacity:1"
         id="path4529" />
    </g>
  </g>
</svg>
