<svg xmlns="http://www.w3.org/2000/svg" width="350" height="350" viewBox="0 0 350 350"><g letter-spacing="0" word-spacing="0" fill="#fff" fill-opacity=".9"><path style="line-height:100%;-inkscape-font-specification:'F0nt Thin'" d="M306.857 73.684c-11.408 0-19.569 1.456-24.484 4.369-2.488 1.456-4.339 3.124-5.553 5.006-1.274 1.82-1.912 4.157-1.912 7.01.364-.122 1.002-.184 1.912-.184 0-4.551 2.215-8.1 6.645-10.649 4.733-2.73 12.501-4.097 23.303-4.097 1.577 0 2.7.03 3.367.091.182-.364.273-.85.273-1.457-.607-.06-1.79-.09-3.55-.09zm-182.2 9.556l-2.094.182c-2.974 12.925-6.313 24.699-10.014 35.318-3.641 10.62-6.494 18.084-8.557 22.393-2.063 4.308-3.731 7.312-5.006 9.012-8.495-19.905-14.352-34.015-17.568-42.329l-1.547.366c-3.277 4.55-8.253 10.862-14.928 18.933-6.675 8.071-12.864 15.293-18.568 21.664.728-8.738 1.092-15.11 1.092-19.115 0-14.14-.304-25.063-.91-32.77l-2.002.182c.607 6.433.91 16.384.91 29.856 0 7.828-.455 16.05-1.365 24.668l1 .181c.364 0 .698-.029 1.002-.09 12.743-14.32 24.182-28.035 34.316-41.142 4.248 10.74 9.95 24.423 17.111 41.05l1.276.182c.485 0 .909-.029 1.273-.09l1.365-2.002c.85-1.274 2.094-3.611 3.733-7.01 1.699-3.458 3.519-7.615 5.46-12.47 2.003-4.855 4.25-11.438 6.737-19.752 2.549-8.314 4.977-17.386 7.283-27.217zm35.177 12.29c-7.343 0-13.897 1.333-19.662 4.003-5.704 2.61-10.013 5.917-12.926 9.922.304.243.881.457 1.73.639 2.731-3.763 6.797-6.89 12.198-9.377 5.4-2.488 11.62-3.73 18.66-3.73 7.95 0 14.593 2.366 19.934 7.099 5.34 4.733 8.01 10.862 8.01 18.387 0 8.435-3.52 15.382-10.56 20.843-6.978 5.401-15.504 8.102-25.577 8.102-7.707 0-13.988-2.003-18.842-6.008-4.855-4.066-7.281-8.83-7.281-14.29 0-1.457.486-2.459 1.457-3.005.97-.546 2.456-.818 4.459-.818 3.58 0 8.464.515 14.654 1.547l.455-1.365c-5.644-1.032-10.68-1.547-15.11-1.547-5.097 0-7.646 1.728-7.646 5.187 0 5.826 2.55 10.924 7.647 15.293 5.158 4.309 11.893 6.463 20.207 6.463 10.62 0 19.631-2.852 27.035-8.557 7.403-5.765 11.105-13.046 11.105-21.845 0-7.89-2.883-14.352-8.648-19.389-5.704-5.037-12.803-7.555-21.299-7.555zm146.373.273c-.91 0-1.488.06-1.73.181-8.678 10.316-19.48 15.475-32.405 15.475-6.553 0-12.227-1.396-17.021-4.188-4.794-2.852-8.525-6.493-11.196-10.923l-2.003.183c-3.641 10.438-5.885 21.33-6.735 32.678-6.19 2.549-11.955 5.4-17.295 8.555-5.34 3.155-11.165 7.192-17.476 12.107.242-16.81 1.547-34.65 3.914-53.523l-2.094.183c-1.092 7.828-2.002 17.082-2.73 27.762-.729 10.62-1.094 19.752-1.094 27.398l1.002.09c.425 0 .759-.029 1.002-.09a156.58 156.58 0 0 1 34.588-20.845c-.122 1.517-.182 3.854-.182 7.01 0 2.79.546 5.217 1.639 7.28 1.092 2.064 2.58 3.643 4.46 4.735a23.674 23.674 0 0 0 5.825 2.275 26.54 26.54 0 0 0 6.281.729c5.704 0 10.528-1.213 14.473-3.64 4.005-2.428 6.007-5.918 6.007-10.47 0-4.247-1.82-7.463-5.46-9.648-3.58-2.245-8.436-3.367-14.565-3.367-5.4 0-10.831.91-16.293 2.73.789-9.83 2.792-19.784 6.008-29.857 2.73 4.066 6.493 7.435 11.287 10.106 4.794 2.67 10.376 4.003 16.748 4.003 13.714 0 24.79-4.855 33.225-14.564-.486 12.683-2.823 30.554-7.01 53.613.607 0 1.274-.09 2.002-.271 4.551-23.849 6.828-42.418 6.828-55.707zm-54.16 31.312c12.986 0 19.478 4.035 19.478 12.106 0 3.64-1.82 6.614-5.46 8.92-3.58 2.245-7.647 3.369-12.198 3.369-2.002 0-3.945-.214-5.826-.639-1.82-.425-3.64-1.092-5.46-2.002-1.821-.97-3.278-2.396-4.37-4.277-1.032-1.881-1.547-4.127-1.547-6.737 0-2.67.091-5.279.274-7.828 5.34-1.942 10.376-2.912 15.109-2.912z" font-weight="100" font-family="F0nt"/><path style="line-height:100%;-inkscape-font-specification:'F0nt Ultra Heavy'" d="M310.719 178.893c-13.897 0-24.214 2.125-30.95 6.373-3.216 2.002-5.613 4.277-7.19 6.826-1.579 2.488-2.366 4.914-2.366 7.281a189.37 189.37 0 0 1 22.574-1.365c0-2.488 1.274-4.46 3.822-5.916 2.67-1.517 6.462-2.276 11.377-2.276.364 0 1.245.032 2.641.092h2.822c.607-1.031 1.426-2.762 2.457-5.19 1.032-2.487 1.73-4.399 2.094-5.734-1.396-.06-3.822-.091-7.281-.091zm-179.873 13.654c-10.438 0-18.935.455-25.489 1.365-4.733 23.727-8.16 39.111-10.285 46.15a5693.672 5693.672 0 0 1-6.552-22.939c-5.644 1.456-10.347 2.366-14.11 2.73-.97 1.821-4.976 8.193-12.015 19.116 1.031-12.683 1.546-23.605 1.546-32.768-7.767.79-16.262 1.244-25.486 1.365.607 10.134.91 18.781.91 25.942 0 6.614-.455 15.716-1.365 27.306 2.791.729 6.888 1.094 12.29 1.094 6.492 0 10.284-.183 11.376-.547 5.947-7.403 11.257-14.868 15.93-22.392 1.274 4.794 3.549 12.258 6.826 22.392 3.64.364 8.193.547 13.654.547 5.037 0 9.134-.365 12.29-1.094 2.488-2.572 5.263-8.739 8.32-18.42.3 1.451.723 2.86 1.279 4.221 1.153 2.974 2.944 5.735 5.37 8.283 2.489 2.488 5.857 4.46 10.104 5.916 4.309 1.457 9.285 2.186 14.928 2.186 5.522 0 10.984-.698 16.385-2.094 5.461-1.395 10.497-3.398 15.11-6.008 4.611-2.609 8.343-6.037 11.195-10.285a25.995 25.995 0 0 0 1.506-2.574c-.545 8.257-.827 14.55-.827 18.775 3.763.729 7.86 1.094 12.29 1.094 6.735 0 10.832-.183 12.288-.547 3.399-5.886 7.342-10.893 11.832-15.02v.821c0 4.673 1.883 8.495 5.645 11.469 3.823 2.913 9.223 4.369 16.201 4.369 2.974 0 6.038-.334 9.194-1.002a46.338 46.338 0 0 0 9.377-2.82c3.094-1.275 5.612-3.065 7.554-5.371 2.003-2.367 3.004-5.037 3.004-8.01 0-4.976-2.094-8.89-6.281-11.742-4.187-2.913-10.65-4.46-19.389-4.643a98.89 98.89 0 0 1 1.365-6.281c4.005 1.76 8.314 2.64 12.926 2.64 6.918 0 13.078-1.184 18.479-3.55-2.428 17.962-4.49 31.192-6.19 39.687 2.428 0 6.766-.274 13.016-.82 6.25-.486 10.407-.94 12.47-1.365 2.974-18.873 5.1-37.078 6.374-54.616-8.01 0-15.9.487-23.668 1.457-3.945 6.979-8.405 10.47-13.381 10.47-2.549 0-5.219-.973-8.01-2.915-2.73-1.942-5.157-4.763-7.281-8.465-9.406 0-17.901.335-25.487 1.002-2.548 10.56-4.279 19.995-5.189 28.309-4.066 2.002-7.92 4.49-11.56 7.463 1.092-14.2 2.428-26.458 4.005-36.774-3.944.425-12.44.911-25.486 1.457-.544 3.771-1.117 8.996-1.71 15.381a23.84 23.84 0 0 0-.7-1.91c-1.214-3.095-3.094-5.885-5.643-8.373-2.488-2.549-5.918-4.551-10.287-6.008-4.369-1.456-9.436-2.185-15.201-2.185-5.704 0-11.287.729-16.748 2.185-5.4 1.457-10.316 3.549-14.746 6.28a31.83 31.83 0 0 0-7.834 6.722c1.875-7.82 3.836-16.704 5.88-26.656zm26.347 23.121c3.399 0 6.677 1.546 9.832 4.64 3.217 3.095 4.825 7.556 4.825 13.381 0 4.43-1.396 8.496-4.188 12.198-2.73 3.64-6.13 5.463-10.195 5.463-3.216 0-6.341-1.519-9.375-4.553-2.974-3.034-4.461-7.372-4.461-13.016 0-4.915 1.305-9.164 3.914-12.744 2.61-3.58 5.825-5.369 9.648-5.369zm96.438 23.03c5.583.606 8.375 3.276 8.375 8.009 0 1.82-.547 3.397-1.639 4.732-1.092 1.335-2.366 2.004-3.822 2.004s-2.52-.457-3.188-1.367c-.606-.97-.91-2.608-.91-4.914 0-2.124.395-4.945 1.184-8.465z" font-weight="900" font-family="F0nt Ultra"/></g></svg>